<?xml version="1.0"?>
<svg xmlns="http://www.w3.org/2000/svg" xmlns:xlink="http://www.w3.org/1999/xlink" xmlns:svgjs="http://svgjs.com/svgjs" version="1.1" width="512" height="512" x="0" y="0" viewBox="0 0 98 98" style="enable-background:new 0 0 512 512" xml:space="preserve" class=""><g>
<style xmlns="http://www.w3.org/2000/svg" type="text/css">
	.st0{fill:url(#SVGID_1_);}
</style>
<linearGradient xmlns="http://www.w3.org/2000/svg" id="SVGID_1_" gradientUnits="userSpaceOnUse" x1="49" y1="9.8003" x2="49" y2="92.1997"><stop stop-opacity="1" stop-color="#eb360a" offset="0.277992277992278"/><stop stop-opacity="1" stop-color="#ffa300" offset="1"/><stop stop-opacity="1" stop-color="#42445a" offset="1"/></linearGradient>
<path xmlns="http://www.w3.org/2000/svg" class="" d="M49,9.8C26.3,9.8,7.8,28.3,7.8,51c0,22.7,18.5,41.2,41.2,41.2S90.2,73.7,90.2,51C90.2,28.3,71.7,9.8,49,9.8z   M13.8,51c0-19.4,15.8-35.2,35.2-35.2c8.7,0,16.6,3.1,22.7,8.3L22.1,73.7C16.9,67.6,13.8,59.7,13.8,51z M49,86.2  c-8.6,0-16.5-3.1-22.6-8.2L76,28.4c5.1,6.1,8.2,14,8.2,22.6C84.2,70.4,68.4,86.2,49,86.2z" fill="#000000" data-original="#000000" style=""/>
</g></svg>
