<?xml version="1.0" encoding="utf-8"?>
<!-- Generator: Adobe Illustrator 25.2.0, SVG Export Plug-In . SVG Version: 6.00 Build 0)  -->
<svg version="1.1" id="Capa_1" xmlns="http://www.w3.org/2000/svg" xmlns:xlink="http://www.w3.org/1999/xlink" x="0px" y="0px"
	 viewBox="0 0 2419.8 1653.4" style="enable-background:new 0 0 2419.8 1653.4;" xml:space="preserve">
<style type="text/css">
	.st0{fill:#6464ED;}
	.st1{fill:#5454B2;}
	.st2{fill:#C8FFFF;}
	.st3{fill:#70EFEF;}
	.st4{fill:#BAC6CC;}
	.st5{fill:#CFDCE5;}
	.st6{fill:#4EBFED;}
</style>
<g>
	<g>
		<path d="M63,109.9h114.1c67.6,0,101.5,26.6,101.5,79.8c0,26.4-11.6,48.3-34.7,65.8c33.6,14.6,50.4,40.6,50.4,78
			c0,28.7-9.9,51.5-29.7,68.6c-9.7,8.1-20,13.8-31.1,17c-11,3.2-25.9,4.8-44.6,4.8h-17.7v-80.8H187c9.4,0,16-1.2,19.8-3.6
			c3.8-2.4,5.8-6.6,5.8-12.5c0-10.1-7.8-15.2-23.5-15.2h-17.9v-83.8c17.2,0,25.8-5.9,25.8-17.7c0-10.9-7.7-16.3-23.2-16.3h-17.3V424
			H63V109.9z"/>
		<path d="M445.9,266.4v82.8h-26.9V424h-93.4V224.3c0-38.7,10.5-68.7,31.6-90.1c21.1-21.4,50.7-32.1,88.9-32.1
			c36.8,0,64,9.7,81.7,29.1c17.6,19.4,26.5,49.4,26.5,89.9V424h-93.4V227.3c0-12.3-1.5-20.8-4.4-25.5c-2.9-4.8-8.1-7.1-15.6-7.1
			c-14.6,0-21.9,10.9-21.9,32.7v39.1H445.9z"/>
		<path d="M747.5,200.1V424h-93.4V200.1h-71.6v-90.2h236.3v90.2H747.5z"/>
		<path d="M972.8,222.2v82.8h-26v119h-93.4V109.9h93.4v112.3H972.8z M1082.1,109.9V424h-93.4V109.9H1082.1z"/>
		<path d="M1144.9,109.9H1259c67.6,0,101.5,26.6,101.5,79.8c0,26.4-11.6,48.3-34.7,65.8c33.6,14.6,50.4,40.6,50.4,78
			c0,28.7-9.9,51.5-29.7,68.6c-9.7,8.1-20,13.8-31.1,17c-11,3.2-25.9,4.8-44.6,4.8H1253v-80.8h15.9c9.4,0,16-1.2,19.8-3.6
			c3.8-2.4,5.8-6.6,5.8-12.5c0-10.1-7.8-15.2-23.5-15.2H1253v-83.8c17.2,0,25.8-5.9,25.8-17.7c0-10.9-7.7-16.3-23.2-16.3h-17.3V424
			h-93.4V109.9z"/>
		<path d="M1562.7,102.1c44.5,0,82.6,16.2,114.5,48.5c31.8,32.4,47.7,71.1,47.7,116.2c0,45.9-16,84.8-48.1,116.9
			c-32.1,32.1-71,48.1-116.9,48.1c-45.6,0-84.4-16.1-116.7-48.3c-32.2-32.2-48.3-71.1-48.3-116.7c0-46,16.2-85,48.7-116.9
			C1476.1,118.1,1515.8,102.1,1562.7,102.1z M1560,194.6c-19.2,0-35.5,7.1-49,21.2c-13.5,14.1-20.2,31.1-20.2,51.1
			c0,19.9,6.8,37,20.4,51.1c13.6,14.1,29.9,21.2,48.9,21.2c19.3,0,35.7-7,49.1-21.1c13.4-14,20.1-31.1,20.1-51.2
			c0-20.1-6.7-37.2-20.1-51.2C1595.7,201.6,1579.3,194.6,1560,194.6z"/>
		<path d="M1762.4,424V197.6c0-28.1,8.5-51,25.5-68.8c17-17.8,39.1-26.7,66.3-26.7c32.2,0,57,14.8,74.3,44.4
			c10.6-16,21.9-27.3,34.1-34.2c12.1-6.8,27.1-10.2,44.9-10.2c28.2,0,49.8,8.9,64.9,26.7c15,17.8,22.6,43.4,22.6,76.9V424h-93.4
			V219.7c0-10.1-0.8-16.8-2.4-20.1c-1.6-3.3-4.9-4.9-9.8-4.9c-9.2,0-13.8,7.8-13.8,23.5V424h-93.4V219.7c0-10-0.8-16.6-2.5-20
			c-1.7-3.4-5-5.1-9.9-5.1c-9.2,0-13.8,8.4-13.8,25.1V424H1762.4z"/>
		<path d="M2151.5,109.9h114.1c67.6,0,101.5,26.6,101.5,79.8c0,26.4-11.6,48.3-34.7,65.8c33.6,14.6,50.4,40.6,50.4,78
			c0,28.7-9.9,51.5-29.7,68.6c-9.7,8.1-20,13.8-31.1,17c-11,3.2-25.9,4.8-44.6,4.8h-17.7v-80.8h15.9c9.4,0,16-1.2,19.8-3.6
			c3.8-2.4,5.8-6.6,5.8-12.5c0-10.1-7.8-15.2-23.5-15.2h-17.9v-83.8c17.2,0,25.8-5.9,25.8-17.7c0-10.9-7.7-16.3-23.2-16.3h-17.3V424
			h-93.4V109.9z"/>
	</g>
	<g>
		<path d="M748.4,768.1V566.2c0-25,7.6-45.5,22.8-61.4c15.2-15.9,34.9-23.8,59.1-23.8c28.7,0,50.8,13.2,66.3,39.6
			c9.4-14.2,19.6-24.4,30.4-30.5c10.8-6.1,24.1-9.1,40-9.1c25.2,0,44.5,7.9,57.9,23.8c13.4,15.9,20.1,38.7,20.1,68.5v194.7h-83.3
			V585.9c0-9-0.7-15-2.2-18c-1.4-2.9-4.3-4.4-8.7-4.4c-8.2,0-12.3,7-12.3,20.9v183.7h-83.3V585.9c0-8.9-0.8-14.8-2.3-17.9
			c-1.5-3-4.4-4.5-8.8-4.5c-8.2,0-12.3,7.5-12.3,22.4v182.2H748.4z"/>
		<path d="M1197,627.5v73.9h-24v66.7h-83.3V590c0-34.5,9.4-61.3,28.2-80.3c18.8-19.1,45.2-28.6,79.3-28.6c32.8,0,57.1,8.7,72.8,26
			c15.7,17.3,23.6,44,23.6,80.1v181h-83.3V592.6c0-10.9-1.3-18.5-3.9-22.8c-2.6-4.2-7.3-6.4-14-6.4c-13,0-19.5,9.7-19.5,29.1v34.9
			H1197z"/>
		<path d="M1427.4,488v280.1h-83.3V488H1427.4z M1587.3,488l-73.9,127l73.5,153.1h-93.6l-63.4-154.7l71.8-125.4H1587.3z"/>
		<path d="M1764.6,596.9v62.4h-54.4c-7.4,0-12.6,1.1-15.7,3.3c-3.1,2.2-4.6,5.9-4.6,11.1c0,5.9,1.6,9.7,4.7,11.6
			c3.1,1.8,9.6,2.8,19.3,2.8h56v80h-65.5c-30.8,0-54.3-7.4-70.6-22.1c-16.3-14.7-24.4-35.9-24.4-63.7V572.5
			c0-26.8,7.7-47.6,23.1-62.4c15.4-14.8,37-22.2,64.9-22.2h72.4v80.4h-53.1c-14.4,0-21.5,4.7-21.5,14c0,5.5,1.7,9.3,5.1,11.4
			c3.4,2.1,9.5,3.2,18.3,3.2H1764.6z"/>
		<path d="M1901,563.3v204.8h-83.3V488h106.9c32.6,0,57.8,8.1,75.7,24.2c20,18.1,30,41,30,68.7c0,28.3-12.4,52.2-37.1,71.6l48,115.5
			h-87.4l-40.4-90.3v-72h6.6c17.5,0,26.3-7.5,26.3-22.6c0-13.3-10.1-19.9-30.4-19.9H1901z"/>
	</g>
	<g>
		<circle class="st0" cx="1563.8" cy="263.9" r="168.2"/>
		<path class="st1" d="M1650.9,81c-2.8,0.4-5.3,1.8-7.1,4.1l-10.1,13.2c12.3,6,24,13.2,35.1,21.7c11.9,9.1,22.7,19.4,32.2,30.7
			l10.5-13.7c1.7-2.3,2.5-5.1,2.1-7.9c-0.4-2.8-1.8-5.3-4.1-7.1l-25.3-19.3c0,0-0.1-0.1-0.1-0.1l-25.4-19.4
			C1656.5,81.3,1653.7,80.6,1650.9,81z"/>
		<path class="st1" d="M1653.8,349.4c-0.3-0.1-0.5-0.2-0.7-0.3c-3.6-0.8-7.1-1.9-10.6-3.2c-3.6-1.1-7.1-2.5-10.5-4c0,0-0.1,0-0.1,0
			c0,0,0,0-0.1,0c-0.3-0.1-0.6-0.3-0.8-0.4c-2-0.8-4-1.6-5.9-2.6c-29.7-12.4-58.7-29.2-86.1-49.9c-51-38.5-90.6-86.5-111.4-135
			c-0.6-1.5-1.2-2.9-1.8-4.4l-9.6,12.3c-4.4,6.6-8.3,13.6-11.8,20.8c1.2,3.2,2.5,6.4,3.8,9.5c0,0,0,0,0,0l0,0
			c19.8,45.9,57.5,91.5,106.2,128.3c48.7,36.8,103.2,60.8,153.2,67.7c0,0,0,0,0,0c0,0,0,0,0,0c3.4,0.5,6.8,0.8,10.3,1.1
			c6.1-5.2,11.9-10.7,17.3-16.7l9.6-12.3c-1.6-0.2-3.2-0.4-4.8-0.6C1685,357.8,1669.4,354.3,1653.8,349.4z"/>
		<path class="st1" d="M1448.9,170.9c15.1-31.9,39-56.8,67.4-73.3c-44.1,13.2-82.7,44.2-103.9,89.1c-39.8,83.9-4.1,184.2,79.8,224.1
			c52,24.7,110.3,20.3,156.6-6.5c-38.4,11.5-81.1,9.3-120.1-9.2C1444.8,355.1,1409.1,254.8,1448.9,170.9z"/>
		<g>
			<path d="M1686.7,303.2c1.8,1.4,4,2,6.2,1.7c2.2-0.3,4.2-1.4,5.6-3.2c2.8-3.7,2.1-9-1.6-11.8c-1.8-1.4-4-2-6.2-1.7
				c-2.2,0.3-4.2,1.4-5.6,3.2C1682.3,295.1,1683,300.4,1686.7,303.2z"/>
			<path d="M1571.7,126.3c-2.2,0.3-4.2,1.5-5.6,3.2c-2.8,3.7-2.1,9,1.6,11.8c1.8,1.4,4,2,6.3,1.7c2.2-0.3,4.2-1.4,5.6-3.2
				c2.8-3.7,2.1-9-1.6-11.8C1576.1,126.6,1573.9,126,1571.7,126.3z"/>
			<path d="M1656.8,287.8c-2.2,0.3-4.2,1.4-5.6,3.2c-1.4,1.8-2,4-1.7,6.3c0.3,2.2,1.5,4.2,3.2,5.6c1.8,1.4,4,2,6.2,1.7
				c2.2-0.3,4.2-1.4,5.6-3.2c1.4-1.8,2-4,1.7-6.2c-0.3-2.2-1.4-4.2-3.2-5.6C1661.3,288.1,1659.1,287.5,1656.8,287.8z"/>
			<path d="M1799.8,29.5c3.1-4,2.3-9.8-1.7-12.8c-4-3.1-9.8-2.3-12.8,1.7l-17.6,22.9c-3.1,4-2.3,9.8,1.7,12.8c2,1.5,4.4,2.1,6.8,1.8
				c2.3-0.3,4.5-1.5,6.1-3.5L1799.8,29.5z"/>
			<path d="M1737.9,52.3c5-0.7,8.5-5.3,7.9-10.3l-4.5-34.1c-0.7-5-5.3-8.5-10.3-7.9c-5,0.7-8.5,5.3-7.9,10.3l4.5,34.1
				C1728.2,49.5,1732.8,53,1737.9,52.3z"/>
			<path d="M1822.4,69.6l-34.1,4.5c-5,0.7-8.5,5.3-7.9,10.3c0.7,5,5.3,8.5,10.3,7.9l34.1-4.5c5-0.7,8.5-5.3,7.9-10.3
				C1832,72.5,1827.4,69,1822.4,69.6z"/>
			<path d="M1745.5,70.4c-1.5,2-3.7,3.2-6.1,3.5c-2.4,0.3-4.8-0.3-6.8-1.8c-12-9.2-29.3-6.9-38.5,5.1l-5.6,7.3L1674,73.4
				c-5.8-4.5-13-6.4-20.3-5.4c-7.3,1-13.7,4.7-18.2,10.5l-10.4,13.6c-0.1,0.6-0.2,1.2-0.4,1.8c-25-9.2-52-12.7-79.1-9.9
				c-40.7,4.2-78.3,21.9-107,50.5c-1.1-1-2.4-1.7-3.9-2.1c-2.8-0.6-5.7,0.3-7.6,2.4c-0.6,0.7-1.3,1.4-1.9,2.1
				c-0.1,0.1-0.3,0.3-0.4,0.5l-16.5,21.5c-0.1,0.2-0.2,0.3-0.3,0.5c-5.3,8.1-10,16.7-14,25.6c-0.8,1.9-0.9,4-0.2,6
				c1,2.8,2,5.6,3.1,8.3c-12.6,34.4-14.3,72.6-4.6,108.2c10.3,37.8,32.2,70.4,63.4,94.2c31.2,23.9,68.4,36.5,107.5,36.5
				c7.9,0,15.8-0.5,23.5-1.6c28.6-3.8,56.2-14.6,79.6-31.2c3,0.3,5.9,0.6,8.9,0.8c0.6,0,1.1,0,1.7,0c1.5-0.2,2.9-0.8,4-1.7
				c7.5-6.2,14.6-13,21.1-20.2c0.1-0.1,0.3-0.3,0.4-0.5l16.5-21.5c0.1-0.2,0.2-0.3,0.3-0.5c0.5-0.8,1-1.6,1.5-2.4l0.1-0.1
				c1.5-2.4,1.7-5.5,0.3-8c-0.7-1.3-1.8-2.4-3-3.2c20-35.2,27.4-76.1,20.7-116.5c-4.2-25.6-13.9-49.7-28.1-70.7l12.1-15.8
				c4.5-5.8,6.4-13,5.4-20.3c-1-7.3-4.7-13.7-10.5-18.2l-14.5-11.1l5.6-7.3c3.1-4,8.8-4.8,12.8-1.7c5.8,4.5,13,6.4,20.3,5.4
				c7.3-1,13.7-4.7,18.2-10.5c3.1-4,2.3-9.8-1.7-12.8C1754.3,65.7,1748.6,66.4,1745.5,70.4z M1465.5,389
				c-51.4-39.3-74-106-58.5-167.7c21.4,41.3,56.1,81.4,99.3,114.4s91,56,136.4,65.9C1587.2,432.6,1516.9,428.3,1465.5,389z
				 M1700.8,346c-1.4-0.2-2.8-0.3-4.2-0.5c-13.5-1.9-27.6-5.1-41.7-9.6c-4.2-1.3-8.8,1-10.1,5.2c-1.3,4.2,1,8.7,5.2,10.1
				c15,4.8,30,8.2,44.4,10.3c1.5,0.2,3.1,0.4,4.6,0.6l-9.2,12c-5.1,5.7-10.7,11.2-16.6,16.2c-3.3-0.3-6.6-0.7-9.9-1.1c0,0,0,0,0,0
				c0,0,0,0,0,0c-48.1-6.7-100.4-30.1-147.3-66c-46.9-35.9-83.2-80.2-102.3-124.9l0,0c0,0,0,0,0,0c-1.3-3-2.5-6.1-3.7-9.3
				c3.3-7,7.1-13.8,11.3-20.2l9.2-12c0.6,1.4,1.2,2.9,1.8,4.3c20.1,47.2,58.2,93.9,107.3,131.4c26.4,20.2,54.3,36.5,82.9,48.7
				c4.1,1.7,8.8-0.2,10.5-4.3c1.7-4.1-0.2-8.8-4.3-10.5c-27.4-11.6-54.1-27.3-79.4-46.6c-46.9-35.9-83.2-80.2-102.3-124.9
				c-0.5-1.3-1.1-2.6-1.6-3.9c47.2-50.8,121.1-64.8,182.7-38c0,0.1,0.1,0.2,0.1,0.3c0.1-0.1,0.1-0.1,0.2-0.2
				c11.6,5.1,22.8,11.6,33.3,19.6C1727.8,182.9,1744.5,275.9,1700.8,346z M1706.5,121.3c1.9,1.5,3.2,3.6,3.5,6.1s-0.3,4.8-1.8,6.8
				l-9,11.8c-8.2-9.7-17.4-18.5-27.7-26.3c-9.5-7.3-19.6-13.5-30.1-18.6l8.7-11.3c1.5-1.9,3.6-3.2,6.1-3.5c2.4-0.3,4.8,0.3,6.8,1.8
				l21.8,16.7c0,0,0.1,0,0.1,0.1L1706.5,121.3z"/>
		</g>
	</g>
	<circle class="st2" cx="75.9" cy="774.1" r="38.9"/>
	
		<ellipse transform="matrix(0.7071 -0.7071 0.7071 0.7071 -309.7323 391.4028)" class="st2" cx="317.6" cy="569.6" rx="97.2" ry="97.2"/>
	<path class="st3" d="M251.2,569.6c0-36.6,29.7-66.3,66.3-66.3c4.8,0,8.6,3.9,8.6,8.6s-3.9,8.6-8.6,8.6c-27.1,0-49,22-49.1,49.1
		c0,4.8-3.9,8.6-8.6,8.6S251.2,574.4,251.2,569.6z"/>
	<path class="st3" d="M113.9,599.3c-16.8,46.5,7.3,97.7,53.8,114.5s97.7-7.3,114.5-53.8c-46.3-18-71.5-68.1-58.2-115.9
		c-8.4-2.5-17.1-3.8-25.8-3.8C160.4,540.2,126.7,563.9,113.9,599.3z"/>
	<circle class="st3" cx="51.2" cy="418.7" r="42.6"/>
	<circle class="st2" cx="481.9" cy="455" r="42.6"/>
	<path d="M75.9,726.6c-26.2,0-47.5,21.3-47.5,47.5s21.3,47.5,47.5,47.5s47.5-21.3,47.5-47.5C123.4,747.9,102.1,726.6,75.9,726.6z
		 M75.9,743.9L75.9,743.9c16.7,0,30.2,13.5,30.2,30.2s-13.5,30.2-30.2,30.2s-30.2-13.5-30.2-30.2C45.7,757.4,59.2,743.9,75.9,743.9z
		"/>
	<path d="M423.4,569.6c0-4.8-3.9-8.6-8.6-8.6s-8.6,3.9-8.6,8.6c0,29.5-14.7,57-39.1,73.4c-40.6,27.3-95.6,16.6-122.9-24
		c-27.3-40.6-16.6-95.6,24-122.9s95.6-16.6,122.9,24c2.7,3.8,7.9,4.9,11.8,2.3c4-2.6,5.1-8,2.5-12c-12.6-18.7-30.8-32.8-52-40.4
		c-55-19.7-115.5,8.8-135.3,63.8c-44.9-9.5-90.3,13.3-109.5,55C86,638,107.5,696.3,156.8,719c49.2,22.7,107.6,1.1,130.2-48.1
		c9.9,3,20.2,4.6,30.6,4.6C376,675.4,423.4,628,423.4,569.6z M270.9,664.4c-15.9,33.4-52.4,51.7-88.6,44.6
		c-43.8-8.6-72.3-51.1-63.6-94.9c8.6-43.8,51.1-72.3,94.9-63.6c-1.2,6.3-1.8,12.7-1.8,19.1C211.8,609.9,234.8,646.6,270.9,664.4z"/>
	<path d="M317.6,520.5c4.8,0,8.6-3.9,8.6-8.6s-3.9-8.6-8.6-8.6c-36.6,0-66.3,29.7-66.3,66.3c0,4.8,3.9,8.6,8.6,8.6s8.6-3.9,8.6-8.6
		C268.6,542.5,290.5,520.5,317.6,520.5z"/>
	<path d="M102.4,418.7C102.4,418.7,102.4,418.7,102.4,418.7c0-28.3-22.9-51.2-51.2-51.2C22.9,367.5,0,390.4,0,418.7
		c0,28.3,22.9,51.2,51.2,51.2C79.5,469.9,102.4,447,102.4,418.7z M51.2,384.8c18.7,0,33.9,15.2,33.9,33.9c0,0,0,0,0,0
		c0,18.7-15.2,33.9-33.9,33.9c-18.7,0-33.9-15.2-33.9-33.9C17.3,400,32.5,384.8,51.2,384.8L51.2,384.8z"/>
	<path d="M533.1,455C533.1,455,533.1,455,533.1,455c0-28.3-23-51.2-51.2-51.2c-28.3,0-51.2,23-51.2,51.2c0,28.3,23,51.2,51.2,51.2
		C510.2,506.2,533.1,483.2,533.1,455z M481.9,421c18.7,0,33.9,15.2,33.9,33.9c0,0,0,0,0,0c0,18.7-15.2,33.9-34,33.9
		c-18.7,0-33.9-15.2-33.9-34C447.9,436.2,463.1,421,481.9,421L481.9,421z"/>
	<g>
		<g>
			<polyline class="st4" points="505.9,1437.3 460.7,1623.3 558.5,1623.3 711.6,1493.6 			"/>
			<polyline class="st4" points="1941.7,1437.3 1986.9,1623.3 1889,1623.3 1736,1493.6 			"/>
		</g>
		<path class="st5" d="M2142,993.4v119.3c0,134.8-84.2,253.2-211.3,320.9c-57.5,30.6-123.8,50.9-195,57.5c-17.1,1.6-34.4,2.5-52,2.5
			H764c-17.6,0-35-0.8-52-2.5c-75.1-7-144.7-29.1-204.3-62.6c-121.9-68.5-202.1-184.4-202.1-315.8V993.4"/>
		<path class="st4" d="M2142,1078.4v-85H305.6v85l0,0v34.3c0,131.5,80.2,247.4,202.1,315.8c59.6,33.5,129.2,55.6,204.3,62.6
			c17.1,1.6,34.4,2.5,52,2.5h172.1c-17.6,0-35-0.8-52-2.5c-75.1-7-144.7-29.1-204.3-62.6c-121.9-68.5-202.1-184.4-202.1-315.8v-34.3
			L2142,1078.4L2142,1078.4z"/>
		<path class="st5" d="M279.3,874.5c-39.5,0-71.6,26.6-71.6,59.5c0,16.4,8,31.3,21,42.1c12.9,10.8,30.8,17.4,50.6,17.4h26.3H2142
			h26.3c39.5,0,71.6-26.6,71.6-59.5c0-16.4-8-31.3-21-42s-30.8-17.4-50.6-17.4H426"/>
		<path class="st4" d="M476.4,934c0-32.8,32-59.5,71.6-59.5H426H279.3c-39.5,0-71.6,26.6-71.6,59.5c0,16.4,8,31.3,21,42.1
			c12.9,10.8,30.8,17.4,50.6,17.4h26.3h242.3c-19.8,0-37.6-6.6-50.6-17.4C484.4,965.3,476.4,950.4,476.4,934z"/>
		<path class="st5" d="M305.6,773.6V668c0-83.6,81.8-151.5,182.3-151.5c100.6,0,182.3,68,182.3,151.5v82H549.8v-82
			c0-28.3-27.8-51.4-61.9-51.4S426,639.6,426,668v109.8"/>
		<polygon class="st6" points="279.3,874.5 237.4,874.5 237.4,777.7 305.6,777.7 426,777.7 426,874.5 		"/>
		<path d="M2274.3,935.1c0-23.6-11.1-45.8-31.2-62.5c-20.1-16.7-46.8-25.9-75.3-25.9h-544.1c-19.3,0-34.9,13-34.9,29
			s15.6,29,34.9,29h544.1c9.8,0,19,3.2,25.9,8.9c6.9,5.8,10.8,13.4,10.8,21.5c0,16.8-16.4,30.5-36.7,30.5h-1889
			c-9.8,0-19-3.2-25.9-8.9c-6.9-5.8-10.8-13.4-10.8-21.6c0-16.8,16.4-30.5,36.7-30.5h1228.6c19.3,0,34.9-13,34.9-29
			c0-16-15.6-29-34.9-29h-1047V669.1c0-12.4,12.1-22.5,27-22.5c14.9,0,27,10.1,27,22.5v82c0,16,15.6,29,34.9,29h120.4
			c19.3,0,34.9-13,34.9-29v-82c0-99.5-97.4-180.5-217.2-180.5c-119.8,0-217.2,81-217.2,180.5v80.8h-33.4c-19.3,0-34.9,13-34.9,29
			V874c-18.3,15.9-29.6,37.4-29.6,61.1c0,23.6,11.1,45.9,31.2,62.6c18,15,41.5,23.9,66.7,25.5v90.7c0,34.7,5.2,69.1,15.5,102.4
			c4.1,13.1,18.2,21.8,33.8,21.8c2.9,0,5.8-0.3,8.7-0.9c18.7-4,29.9-19.8,25.1-35.3c-8.8-28.6-13.3-58.2-13.3-88v-90.3h1766.6v90.3
			c0,120.5-73,231.3-195.3,296.5c-54.8,29.2-115.4,47.1-180.2,53.1c-15.8,1.5-32,2.3-48.1,2.3H763.5c-16.1,0-32.3-0.8-48.1-2.3
			c-67.3-6.3-132.5-26.3-188.6-57.8c-52.7-29.6-97.4-69.3-129.4-114.8c-9.7-13.8-31.1-18.5-47.7-10.4c-16.6,8.1-22.3,25.8-12.6,39.6
			c33.3,47.5,78.6,89.5,131.7,122.5L426,1618.6c-2.1,8.5,0.6,17.4,7.2,24.1c6.6,6.7,16.5,10.6,27,10.6h97.8c9.4,0,18.3-3.1,24.9-8.7
			l144.2-122.1c12.1,0.7,24.2,1.2,36.4,1.2h919.6c12.1,0,24.3-0.4,36.4-1.2l144.2,122.1c6.6,5.6,15.5,8.7,24.9,8.7h97.8
			c10.5,0,20.4-3.9,27-10.6c6.6-6.7,9.3-15.6,7.2-24.1l-42.8-176.1c124.9-77.3,198.6-198.1,198.6-328.7v-90.6
			C2231.1,1019.6,2274.3,981.4,2274.3,935.1z M271.8,846.6v-38.8h118.9v38.8H271.8z M340,669.1c0-67.6,66.1-122.5,147.4-122.5
			c81.3,0,147.5,55,147.5,122.5v53h-50.7v-53c0-44.4-43.4-80.4-96.8-80.4c-53.4,0-96.8,36.1-96.8,80.4v80.8H340V669.1z
			 M543.4,1595.4h-40.6l29.1-119.7c35.1,15.5,72.4,27.4,110.9,35.5L543.4,1595.4z M1903.2,1595.4l-99.4-84.2
			c38.5-8.1,75.9-20,110.9-35.5l29.1,119.6L1903.2,1595.4L1903.2,1595.4z"/>
	</g>
	<g>
		<path class="st3" d="M864.1,783.7c-14.1,0-27.8,4.6-39.1,13c-19.1-49.2-74.6-73.6-123.8-54.5c-17.8,6.9-33,19-43.9,34.6
			c-17.6-4.5-36.1-3.4-53.1,3.1c-1.5-26.9-24.5-47.4-51.4-45.9c-25.8,1.4-46,22.8-46,48.7c0,0.7,0.1,1.4,0.1,2.2
			c-35.6-6.6-69.8,16.9-76.4,52.4c-0.7,4-1.1,8.1-1.1,12.2h500.4C929.8,813.2,900.4,783.7,864.1,783.7L864.1,783.7z"/>
		<path d="M864.1,776.7c-12.6,0-25.1,3.3-36,9.6c-24.9-50.9-86.4-72.1-137.4-47.2c-14.3,7-26.8,17.2-36.4,29.8
			c-14.7-2.9-29.9-2.4-44.3,1.6c-6.7-30.1-36.4-49-66.5-42.4c-23.4,5.2-40.9,24.8-43.4,48.7c-1.6-0.1-3.3-0.2-4.9-0.2
			c-40.2,0-72.7,32.6-72.8,72.8c0,3.9,3.1,7,7,7c0,0,0,0,0,0h267.8c3.9,0,7-3.1,7-7c0-3.9-3.1-7-7-7H436.9
			c3.7-32.1,32.8-55,64.9-51.3c1.3,0.2,2.6,0.4,3.9,0.6c3.8,0.7,7.5-1.9,8.2-5.7c0.1-0.5,0.1-1,0.1-1.6l-0.1-1c0-0.3,0-0.6,0-0.9
			c0-23,18.6-41.7,41.6-41.7c22.1,0,40.4,17.3,41.7,39.4c0.2,3.9,3.5,6.8,7.4,6.6c0.7,0,1.4-0.2,2.1-0.5c15.6-5.9,32.7-6.9,48.9-2.8
			c2.8,0.7,5.8-0.4,7.5-2.8c27.9-40.2,83.1-50.2,123.3-22.3c14.5,10.1,25.7,24.2,32.1,40.7c1.4,3.6,5.5,5.4,9.1,4
			c0.6-0.2,1.1-0.5,1.6-0.9c10.1-7.5,22.3-11.6,34.9-11.6c29.7,0,54.7,22.2,58.3,51.7h-84.5c-3.9,0-7,3.1-7,7c0,3.9,3.1,7,7,7h91.9
			c3.9,0,7-3.1,7-7C936.8,809.3,904.2,776.7,864.1,776.7z"/>
		<path d="M779.6,842.4h-24.1c-3.9,0-7,3.1-7,7c0,3.9,3.1,7,7,7h24.1c3.9,0,7-3.1,7-7C786.6,845.6,783.5,842.4,779.6,842.4z"/>
	</g>
	<g>
		<circle class="st2" cx="2358.3" cy="849.3" r="31.5"/>
		
			<ellipse transform="matrix(0.7071 -0.7071 0.7071 0.7071 150.0042 1729.2477)" class="st2" cx="2162.4" cy="683.6" rx="78.8" ry="78.8"/>
		<path class="st3" d="M2209.2,690.6c-3.9,0-7-3.1-7-7c0-22-17.8-39.7-39.8-39.8c-3.9,0-7-3.1-7-7c0-3.9,3.1-7,7-7
			c29.7,0,53.7,24.1,53.8,53.8C2216.2,687.4,2213,690.6,2209.2,690.6z"/>
		<path class="st3" d="M2259.3,659.8c-7.1,0-14.1,1-20.9,3.1c10.7,38.8-9.7,79.4-47.2,94c13.6,37.7,55.1,57.2,92.8,43.6
			c37.7-13.6,57.2-55.1,43.6-92.8C2317.1,678.9,2289.8,659.8,2259.3,659.8z"/>
		<circle class="st3" cx="2021" cy="812.5" r="42.7"/>
		<circle class="st3" cx="2378.3" cy="561.3" r="34.5"/>
		<circle class="st2" cx="2029.3" cy="590.7" r="34.5"/>
		<path d="M2319.8,849.3c0,21.3,17.2,38.5,38.5,38.5s38.5-17.2,38.5-38.5c0-21.3-17.2-38.5-38.5-38.5
			C2337,810.8,2319.8,828,2319.8,849.3z M2382.8,849.3c0,13.5-11,24.5-24.5,24.5s-24.5-11-24.5-24.5c0-13.5,11-24.5,24.5-24.5l0,0
			C2371.8,824.8,2382.7,835.8,2382.8,849.3z"/>
		<path d="M2162.4,769.3c8.4,0,16.8-1.2,24.8-3.7c18.4,39.9,65.6,57.4,105.6,39s57.4-65.6,39-105.6c-15.5-33.8-52.4-52.2-88.7-44.6
			c-16-44.5-65.1-67.7-109.6-51.7c-17.2,6.2-31.9,17.6-42.1,32.8c-2.1,3.2-1.2,7.6,2,9.7c3.2,2.1,7.4,1.3,9.6-1.9
			c22.2-32.9,66.8-41.6,99.6-19.4c32.9,22.2,41.6,66.8,19.4,99.6c-22.2,32.9-66.8,41.6-99.6,19.4c-19.8-13.3-31.7-35.6-31.7-59.5
			c0-3.9-3.1-7-7-7s-7,3.1-7,7C2076.7,730.9,2115,769.3,2162.4,769.3z M2248.2,683.6c0-5.2-0.5-10.4-1.5-15.5
			c35.5-7,69.9,16.1,76.9,51.6c7,35.5-16.1,69.9-51.6,76.9c-29.4,5.8-59-9.1-71.8-36.1C2229.5,746,2248.1,716.2,2248.2,683.6z"/>
		<path d="M2202.2,683.6c0,3.9,3.1,7,7,7c3.9,0,7-3.1,7-7c0-29.7-24.1-53.7-53.8-53.8c-3.9,0-7,3.1-7,7s3.1,7,7,7
			C2184.3,643.8,2202.1,661.6,2202.2,683.6z"/>
		<path d="M2021,862.3c27.5,0,49.8-22.3,49.8-49.7c0-27.5-22.3-49.8-49.7-49.8c-27.5,0-49.8,22.3-49.8,49.7c0,0,0,0,0,0
			C1971.3,840,1993.5,862.3,2021,862.3z M2021,776.8c19.7,0,35.8,16,35.8,35.7c0,19.7-16,35.8-35.7,35.8c-19.7,0-35.8-16-35.8-35.7
			c0,0,0,0,0,0C1985.3,792.8,2001.3,776.8,2021,776.8z"/>
		<path d="M2378.3,602.8c22.9,0,41.5-18.6,41.5-41.5c0-22.9-18.6-41.5-41.5-41.5c-22.9,0-41.5,18.6-41.5,41.5c0,0,0,0,0,0
			C2336.8,584.2,2355.4,602.8,2378.3,602.8z M2378.3,533.8c15.2,0,27.5,12.3,27.5,27.5s-12.3,27.5-27.5,27.5
			c-15.2,0-27.5-12.3-27.5-27.5c0,0,0,0,0,0C2350.8,546.1,2363.1,533.8,2378.3,533.8L2378.3,533.8z"/>
		<path d="M2029.3,632.2c22.9,0,41.5-18.6,41.5-41.5c0-22.9-18.6-41.5-41.5-41.5c-22.9,0-41.5,18.6-41.5,41.5c0,0,0,0,0,0
			C1987.8,613.6,2006.3,632.1,2029.3,632.2z M2029.3,563.2c15.2,0,27.5,12.3,27.5,27.5c0,15.2-12.3,27.5-27.5,27.5
			s-27.5-12.3-27.5-27.5c0,0,0,0,0,0C2001.8,575.5,2014.1,563.2,2029.3,563.2L2029.3,563.2z"/>
	</g>
	<g>
		<path class="st3" d="M2128.2,779.9c-14.1,0-27.8,4.6-39.1,13c-19.1-49.2-74.6-73.6-123.8-54.5c-17.8,6.9-33,19-43.9,34.6
			c-17.6-4.5-36.1-3.4-53.1,3.1c-1.5-26.9-24.5-47.4-51.4-45.9c-25.8,1.4-46,22.8-46,48.7c0,0.7,0.1,1.4,0.1,2.2
			c-35.6-6.6-69.8,16.9-76.4,52.4c-0.7,4-1.1,8.1-1.1,12.2H2194C2194,809.3,2164.5,779.9,2128.2,779.9L2128.2,779.9z"/>
		<path d="M2128.2,772.9c-12.6,0-25.1,3.3-36,9.6c-24.9-50.9-86.4-72.1-137.4-47.2c-14.3,7-26.8,17.2-36.4,29.8
			c-14.7-2.9-29.9-2.4-44.3,1.6c-6.7-30.1-36.4-49-66.5-42.4c-23.4,5.2-40.9,24.8-43.4,48.7c-1.6-0.1-3.3-0.2-4.9-0.2
			c-40.2,0-72.7,32.6-72.8,72.8c0,3.9,3.1,7,7,7c0,0,0,0,0,0h267.8c3.9,0,7-3.1,7-7s-3.1-7-7-7H1701c3.7-32.1,32.8-55,64.9-51.3
			c1.3,0.2,2.6,0.4,3.9,0.6c3.8,0.7,7.5-1.9,8.2-5.7c0.1-0.5,0.1-1,0.1-1.6l-0.1-1c0-0.3,0-0.6,0-0.9c0-23,18.6-41.7,41.6-41.7
			c22.1,0,40.4,17.3,41.7,39.4c0.2,3.9,3.5,6.8,7.4,6.6c0.7,0,1.4-0.2,2.1-0.5c15.6-5.9,32.7-6.9,48.9-2.8c2.8,0.7,5.8-0.4,7.5-2.8
			c27.9-40.2,83.1-50.2,123.3-22.3c14.5,10.1,25.7,24.2,32.1,40.7c1.4,3.6,5.5,5.4,9.1,4c0.6-0.2,1.1-0.5,1.6-0.9
			c10.1-7.5,22.3-11.6,34.9-11.6c29.7,0,54.7,22.2,58.3,51.7H2102c-3.9,0-7,3.1-7,7s3.1,7,7,7h91.9c3.9,0,7-3.1,7-7
			C2201,805.5,2168.4,772.9,2128.2,772.9z"/>
		<path d="M2043.8,838.6h-24.1c-3.9,0-7,3.1-7,7s3.1,7,7,7h24.1c3.9,0,7-3.1,7-7S2047.7,838.6,2043.8,838.6z"/>
	</g>
</g>
</svg>
