<svg height="479pt" viewBox="-19 1 479 479.99949" width="479pt" xmlns="http://www.w3.org/2000/svg"><path d="m178.132812 175.472656h16v16h-16zm0 0"/><path d="m226.132812 175.472656h16v16h-16zm0 0"/><path d="m202.132812 206.695312h16v16h-16zm0 0"/><path d="m338.132812 222.695312h16v16h-16zm0 0"/><path d="m314.132812 198.695312h16v16h-16zm0 0"/><path d="m330.132812 385.824219c1.207032 0 2.402344-.273438 3.492188-.800781 5.898438-2.875 11.578125-6.171876 17-9.863282 3.652344-2.488281 4.597656-7.464844 2.109375-11.117187-2.488281-3.652344-7.464844-4.59375-11.117187-2.109375-4.78125 3.261718-9.792969 6.167968-15 8.699218-3.359376 1.625-5.144532 5.363282-4.304688 9 .839844 3.636719 4.085938 6.210938 7.820312 6.199219zm0 0"/><path d="m367.082031 358.695312c2.203125 0 4.304688-.90625 5.816407-2.503906 17.902343-18.851562 29.996093-42.457031 34.839843-68 .824219-4.339844-2.027343-8.527344-6.367187-9.351562-4.339844-.824219-8.527344 2.027344-9.351563 6.367187-4.273437 22.539063-14.949219 43.367188-30.746093 60-2.199219 2.320313-2.804688 5.726563-1.542969 8.664063 1.265625 2.9375 4.15625 4.839844 7.351562 4.839844zm0 0"/><path d="m4.378906 438.09375 14.832032 9.027344c35.269531 21.523437 75.796874 32.902344 117.121093 32.878906 4.160157 0 8.328125-.113281 12.511719-.34375 46.828125-2.710938 91.671875-19.859375 128.359375-49.089844 91.492187-1.746094 164.789063-76.339844 164.929687-167.847656 0-4.417969-3.582031-8-8-8h-24.410156c-1.800781-31.140625-14.308594-60.703125-35.40625-83.679688 17.78125-.496093 34.253906-9.472656 44.320313-24.144531l18.542969-26.824219c1.328124-1.914062 1.757812-4.3125 1.171874-6.570312-.585937-2.257812-2.128906-4.144531-4.21875-5.171875l-29.355468-14.234375c-5.183594-2.507812-10.726563-4.199219-16.429688-5.023438.230469-5.585937-.378906-11.175781-1.808594-16.582031l-8.527343-31.527343c-.609375-2.257813-2.171875-4.136719-4.28125-5.140626-2.109375-1.007812-4.550781-1.039062-6.6875-.09375l-29.785157 13.207032c-5.074218 2.296875-9.78125 5.324218-13.976562 8.984375-4.171875-3.8125-8.894531-6.980469-14.007812-9.398438l-29.542969-13.871093c-2.113281-.996094-4.554688-1.015626-6.6875-.058594-2.128907.960937-3.734375 2.800781-4.390625 5.042968l-9.203125 31.285157c-5.917969 19.839843-.335938 41.328125 14.488281 55.777343h-47.804688c-71.929687.117188-131.339843 56.199219-135.59375 128h-24.40625c-4.421874 0-8 3.582032-8 8 .046876 7.546876.625 15.085938 1.726563 22.550782-.296875 0-.601563 0-.898437 0l-22.71875 1.28125c-2.75.152344-5.230469 1.710937-6.5625 4.121094-1.332032 2.414062-1.328126 5.34375.011718 7.75l8.40625 15.199218c14.707032 26.28125 34.46875 49.390625 58.144532 68-25.914063 5.8125-50.605469 16.144532-72.933594 30.523438l-19.113282 12.414062c-2.335937 1.492188-3.730468 4.082032-3.695312 6.851563.039062 2.769531 1.503906 5.320312 3.878906 6.75zm393.382813-329.597656 20.953125 10.152344-13.230469 19.160156c-11.164063 16.3125-32.613281 21.953125-50.351563 13.238281l-15.816406-7.664063c-1.664062-.910156-3.410156-1.671874-5.105468-2.519531l13.199218-19.113281c11.164063-16.304688 32.605469-21.949219 50.351563-13.253906zm-53.992188-44.945313 21.21875-9.40625 6.0625 22.519531c1.074219 4.027344 1.507813 8.203126 1.28125 12.367188-11.757812 1.671875-22.667969 7.066406-31.136719 15.390625 1.164063-11.863281-1.527343-23.789063-7.671874-34.007813 3.046874-2.792968 6.503906-5.109374 10.246093-6.863281zm-68.949219 11.890625 6.566407-22.339844 21.070312 9.90625c17.925781 8.328126 27.019531 28.542969 21.363281 47.480469l-6.570312 22.3125-21.0625-9.914062c-17.914062-8.320313-27.011719-28.519531-21.367188-47.445313zm-48.6875 67.253906h48c16.394532.011719 32.613282 3.40625 47.636719 9.976563l9.273438 4.488281c36.292969 19.574219 60.007812 56.398438 62.824219 97.535156h-287.472657c4.289063-62.992187 56.597657-111.921874 119.738281-112zm199.789063 128c-4.042969 74.714844-61.773437 135.414063-136.191406 143.199219-.519531-1.609375-1.539063-3.011719-2.910157-4l-5.152343-8.296875c-22.058594-36.019531-53.769531-65.140625-91.535157-84.054687l-17.730468-8.800781c-30.019532-14.972657-62.996094-23.070313-96.535156-23.703126-.773438-4.753906-1.308594-9.542968-1.601563-14.351562zm-373.832031 35.199219-2.238282-4.054687 9.976563-.558594c3.054687-.152344 6.191406-.3125 9.359375-.3125 33.347656-.34375 66.300781 7.238281 96.144531 22.125l17.71875 8.800781c29.425781 14.773438 54.957031 36.265625 74.535157 62.738281-32.726563-14.660156-68.484376-21.292968-104.296876-19.34375l-19.742187 1.085938c-5.207031.289062-10.398437.800781-15.550781 1.425781-27.257813-18.527343-49.820313-43.148437-65.90625-71.914062zm-20.09375 119.703125c30.660156-19.804687 65.953125-31.28125 102.398437-33.292968l19.738281-1.105469c39.160157-2.109375 78.132813 6.777343 112.511719 25.65625l1.351563.742187c-34.238282 27.457032-76.1875 43.554688-120 46.058594-42.285156 2.363281-84.289063-8.183594-120.441406-30.242188l-3.929688-2.398437zm0 0"/><path d="m105.378906 91.566406c1.355469 2.710938 4.125 4.425782 7.15625 4.425782s5.800782-1.714844 7.15625-4.425782l4.6875-9.375c6.269532-12.609375 17.320313-22.191406 30.6875-26.617187 3.285156-1.078125 5.503906-4.144531 5.503906-7.597657 0-3.457031-2.21875-6.523437-5.503906-7.601562-13.367187-4.425781-24.417968-14.007812-30.6875-26.617188l-4.648437-9.335937c-1.355469-2.710937-4.125-4.421875-7.15625-4.421875s-5.800781 1.710938-7.15625 4.421875l-4.679688 9.371094c-6.273437 12.609375-17.324219 22.191406-30.695312 26.613281-3.28125 1.082031-5.503907 4.144531-5.503907 7.601562 0 3.457032 2.222657 6.519532 5.503907 7.601563 13.371093 4.417969 24.421875 13.996094 30.695312 26.605469zm-14.496094-43.566406c8.855469-5.742188 16.261719-13.453125 21.648438-22.527344 5.390625 9.074219 12.804688 16.785156 21.664062 22.527344-8.863281 5.738281-16.277343 13.449219-21.664062 22.527344-5.390625-9.074219-12.796875-16.78125-21.648438-22.527344zm0 0"/><path d="m22.003906 135.582031c10.292969 3.40625 18.800782 10.78125 23.632813 20.488281l3.742187 7.496094c1.355469 2.710938 4.125 4.425782 7.15625 4.425782s5.800782-1.714844 7.15625-4.425782l3.75-7.496094c4.828125-9.707031 13.332032-17.085937 23.625-20.496093 3.285156-1.078125 5.503906-4.144531 5.503906-7.597657 0-3.457031-2.21875-6.523437-5.503906-7.601562-10.292968-3.40625-18.796875-10.785156-23.625-20.496094l-3.75-7.496094c-1.355468-2.710937-4.125-4.421874-7.15625-4.421874s-5.800781 1.710937-7.15625 4.421874l-3.742187 7.488282c-4.828125 9.710937-13.335938 17.089844-23.632813 20.496094-3.285156 1.078124-5.503906 4.144531-5.503906 7.601562 0 3.453125 2.21875 6.519531 5.503906 7.597656zm34.527344-22.589843c3.851562 5.859374 8.761719 10.949218 14.480469 15.007812-5.71875 4.054688-10.632813 9.148438-14.480469 15.007812-3.851562-5.855468-8.753906-10.945312-14.464844-15.007812 5.710938-4.0625 10.617188-9.152344 14.464844-15.007812zm0 0"/></svg>