<svg id="Layer_1" enable-background="new 0 0 468 468" height="512" viewBox="0 0 468 468" width="512" xmlns="http://www.w3.org/2000/svg"><g><path d="m198 63.858c0-28.924-23.505-63.858-52.694-63.858-15.134 0-30.141 9.566-40.656 25.746-27.615 2.534-49.344 35.879-49.344 63.687 0 4.362.544 8.599 1.55 12.655-15.836-5.645-26.856-20.652-26.856-38.23 0-20.93 16.524-48.61 37.045-51.593 3.279-.477 5.551-3.521 5.074-6.801s-3.515-5.552-6.801-5.074c-27.082 3.937-47.318 36.755-47.318 63.468 0 26.197 18.889 47.989 44.441 51.969 9.137 15.671 26.131 26.234 45.559 26.234s36.422-10.564 45.559-26.234c25.552-3.98 44.441-25.772 44.441-51.969zm-90 66.204c-22.438 0-40.694-18.226-40.694-40.628 0-23.343 18.778-51.858 40.694-51.858s40.694 28.515 40.694 51.858c0 22.401-18.256 40.628-40.694 40.628zm51.145-27.978c1.006-4.055 1.549-8.29 1.549-12.651 0-25.366-18.08-55.35-42.216-62.343 7.767-9.574 17.39-15.09 26.828-15.09 21.916 0 40.694 28.515 40.694 51.858 0 17.577-11.02 32.581-26.855 38.226z"/><g><path d="m380.206 9.63-.309-.367c-4.953-5.887-12.205-9.263-19.897-9.263s-14.944 3.376-19.896 9.263l-.309.367c-41.219 4.629-69.795 22.759-69.795 44.537v8.41c0 29.954 18.382 57.241 47.972 71.214 13.158 6.214 27.593 9.321 42.028 9.321s28.87-3.107 42.029-9.321c6.313-2.981 12.222-6.632 17.56-10.851 2.601-2.055 3.042-5.828.987-8.428-2.054-2.6-5.828-3.042-8.427-.987-4.625 3.655-9.754 6.822-15.244 9.416-23.109 10.912-50.702 10.912-73.81 0-19.589-9.251-33.437-25.168-38.721-43.583 20.622 16.103 50.222 20.476 75.626 20.476 28.568 0 55.584-6.737 72.268-18.022.003-.002.006-.005.01-.007 11.594-7.845 17.722-17.402 17.722-27.638 0-21.778-28.576-39.908-69.794-44.537zm-98.206 44.537c0-12.967 18.958-25.09 46.051-30.578l-37.878 45.026c-4.326-3.728-8.173-8.668-8.173-14.448zm78 33.667c-23.093 0-44.824-4.613-59.779-12.52l49.066-58.326c5.459-6.491 15.948-6.513 21.426 0l49.066 58.327c-14.955 7.906-36.686 12.519-59.779 12.519zm69.827-19.218-37.878-45.026c27.093 5.487 46.051 17.611 46.051 30.577 0 5.78-3.847 10.72-8.173 14.449z"/><g><circle cx="434.406" cy="99.334" r="7"/></g></g><g><circle cx="354" cy="322.068" r="7"/></g><path d="m462 414.31h-172.893c1.144-.513 2.286-1.032 3.417-1.579 29.231-14.146 50.796-37.816 60.722-66.65 1.079-3.133-.587-6.548-3.72-7.626-3.14-1.079-6.549.587-7.626 3.72-8.878 25.79-28.27 47.011-54.603 59.754-33.373 16.151-73.223 16.151-106.596 0-36.824-17.821-59.701-52.351-59.701-90.113v-2.934c28.911 24.855 76.608 28.228 113 28.228 32.486 0 63.117-4.769 86.249-13.428 24.989-9.355 38.751-22.537 38.751-37.119 0-13.789-11.812-25.996-34.158-35.303-18.823-7.84-43.959-12.988-71.288-14.651l-.308-87.479c-.287-10.958-9-19.596-19.97-19.79-10.862.061-19.722 8.947-19.748 19.809l-.221 87.546c-27.071 1.747-51.944 6.911-70.529 14.722-22.097 9.29-33.778 21.443-33.778 35.146 0 .041.003.082.004.123 0 .024-.004.048-.004.072v25.057c0 42.403 25.472 81.072 66.476 100.915 1.131.547 2.273 1.066 3.417 1.579h-172.893c-3.313 0-6 2.687-6 6v41.691c0 3.313 2.687 6 6 6h456c3.313 0 6-2.687 6-6v-41.69c0-3.313-2.687-6-6-6zm-115-127.747c0 13.849-26.781 28.897-68.84 35.333 1.655-5.082 2.499-10.364 2.467-15.652-.08-13.017-9.188-32.201-27.028-57.009l-.002-.6c57.869 3.614 93.403 22.129 93.403 37.928zm-121.472-137.383c.011-4.298 3.517-7.815 7.814-7.839 4.423.131 7.612 3.517 7.903 7.832l.339 96.323-1.216.003c-.027 0-.054 0-.082 0l-15.002.037zm6.124 108.34 4.246-.011c3.98 13.411 8.181 31.219 8.278 46.933.021 3.301 2.703 5.963 5.999 5.963h.038c3.313-.021 5.983-2.723 5.963-6.037-.078-12.61-2.53-26.257-5.502-38.257 11.581 17.529 17.899 31.578 17.953 40.207.036 5.91-1.381 11.834-4.107 17.299-13.172 1.323-26.436 1.739-39.667 1.363-1.127-5.924-1.729-12.764-1.777-20.435-.097-15.703 4.34-33.58 8.576-47.025zm-15.012 8.807c-3.122 12.034-5.641 25.687-5.563 38.292.044 7.216.554 13.821 1.497 19.767-3.031-.208-6.004-.46-8.92-.751-2.764-5.61-4.24-11.869-4.28-18.278-.053-8.471 6.019-22.101 17.266-39.03zm-3.363-17.6-.004 1.423c-17.249 23.857-25.979 42.459-25.9 55.282.035 5.65.948 11.217 2.667 16.496-42.175-6.419-69.04-21.493-69.04-35.363 0-15.624 35.118-34.04 92.277-37.838zm242.723 207.273h-444v-29.69h444z"/><g><g><path d="m443.143 300.123c-13.706 0-24.856-11.287-24.856-25.16s11.15-25.159 24.856-25.159 24.857 11.286 24.857 25.159-11.151 25.16-24.857 25.16zm0-38.319c-7.089 0-12.856 5.903-12.856 13.159s5.768 13.16 12.856 13.16c7.09 0 12.857-5.903 12.857-13.16 0-7.256-5.768-13.159-12.857-13.159z"/></g><g><path d="m443.143 218.196c-13.706 0-24.856-11.286-24.856-25.159s11.15-25.16 24.856-25.16 24.857 11.287 24.857 25.16-11.151 25.159-24.857 25.159zm0-38.319c-7.089 0-12.856 5.903-12.856 13.16 0 7.256 5.768 13.159 12.856 13.159 7.09 0 12.857-5.903 12.857-13.159s-5.768-13.16-12.857-13.16z"/></g><g><path d="m372.857 259.252c-13.706 0-24.857-11.286-24.857-25.159s11.151-25.159 24.857-25.159 24.856 11.286 24.856 25.159-11.15 25.159-24.856 25.159zm0-38.318c-7.09 0-12.857 5.903-12.857 13.159s5.768 13.159 12.857 13.159 12.856-5.903 12.856-13.159-5.767-13.159-12.856-13.159z"/></g></g><g><g><path d="m93.604 262.113c-14.554 0-26.395-12.052-26.395-26.867 0-10.282 10.589-22.599 19.472-31.12 3.883-3.724 9.965-3.723 13.846-.001 8.884 8.523 19.473 20.839 19.473 31.122 0 14.814-11.841 26.866-26.396 26.866zm0-47.98c-9.929 9.824-14.395 17.625-14.395 21.113 0 8.198 6.457 14.867 14.395 14.867s14.396-6.669 14.396-14.867c0-3.487-4.465-11.288-14.396-21.113z"/></g><g><path d="m27.587 306.827c-14.554 0-26.395-12.052-26.395-26.867 0-10.285 10.589-22.6 19.472-31.121 3.881-3.724 9.965-3.725 13.846 0 8.884 8.521 19.473 20.836 19.473 31.12-.001 14.816-11.841 26.868-26.396 26.868zm0-47.979c-9.929 9.823-14.395 17.625-14.395 21.113 0 8.198 6.457 14.867 14.395 14.867s14.396-6.669 14.396-14.867c-.001-3.489-4.465-11.289-14.396-21.113z"/></g><g><path d="m26.396 221.946c-14.555 0-26.396-12.052-26.396-26.867 0-10.282 10.589-22.599 19.472-31.12 3.883-3.724 9.965-3.723 13.846-.001 8.884 8.523 19.473 20.839 19.473 31.122-.001 14.814-11.842 26.866-26.395 26.866zm-.001-47.98c-9.929 9.824-14.395 17.626-14.395 21.113 0 8.198 6.458 14.867 14.396 14.867s14.395-6.669 14.395-14.867c-.001-3.487-4.466-11.287-14.396-21.113z"/></g></g><g><circle cx="89.605" cy="10.332" r="7"/></g></g></svg>