<svg viewBox="-6 0 511 511.99983" xmlns="http://www.w3.org/2000/svg"><path d="m491.035156 330.632812c-4.125-.4375-7.8125 2.539063-8.253906 6.65625-4.671875 43.636719-25.253906 83.953126-57.953125 113.523438-32.9375 29.785156-75.550781 46.1875-119.996094 46.1875-36.203125 0-71.078125-10.757812-100.859375-31.113281-3.417968-2.335938-8.085937-1.457031-10.421875 1.960937-2.339843 3.421875-1.460937 8.085938 1.957031 10.425782 32.289063 22.0625 70.089844 33.726562 109.324219 33.726562 48.167969 0 94.355469-17.777344 130.054688-50.0625 35.4375-32.046875 57.746093-75.746094 62.808593-123.050781.441407-4.117188-2.539062-7.8125-6.660156-8.253907zm0 0"/><path d="m480.628906 272.101562h-56.449218c-2.941407-6.097656-9.167969-10.328124-16.378907-10.328124h-66.804687c-7.210938 0-13.4375 4.226562-16.375 10.328124h-22.226563v-115.367187c0-22-17.898437-39.898437-39.898437-39.898437h-23.699219l-92.242187-92.242188c-3.292969-3.292969-7.671876-5.105469-12.332032-5.105469-4.65625 0-9.035156 1.8125-12.328125 5.105469l-.851562.855469-13.46875-13.46875c-8.734375-8.734375-20.789063-13.023438-33.070313-11.765625-12.285156 1.257812-23.21875 7.894531-30.003906 18.210937l-37.605469 57.183594c-10.148437 15.429687-8.035156 36.109375 5.027344 49.167969l4.894531 4.894531-1.441406 1.441406c-5.746094 5.746094-8.914062 13.386719-8.914062 21.515625s3.167968 15.769532 8.914062 21.515625l23.746094 23.746094c2.925781 2.925781 7.675781 2.925781 10.605468 0 2.929688-2.929687 2.929688-7.679687 0-10.609375l-23.746093-23.742188c-2.914063-2.914062-4.519531-6.789062-4.519531-10.910156s1.605468-7.992187 4.519531-10.90625l24.246093-24.246094c11.652344 9.300782 25.992188 14.363282 41.121094 14.363282h141.234375l10.503907 10.503906c.964843.964844.765624 2.027344.5625 2.574219-.207032.546875-.75 1.480469-2.109376 1.578125l-39.1875 2.789062c-1.800781.128906-3.496093.902344-4.773437 2.179688l-13.261719 13.261718-11.472656-11.472656c-2.929688-2.933594-7.679688-2.929687-10.605469 0-2.929687 2.925782-2.929687 7.675782 0 10.605469l11.472657 11.472656-9.414063 9.417969-11.476563-11.476562c-2.929687-2.929688-7.675781-2.929688-10.605468 0-2.929688 2.929687-2.929688 7.679687 0 10.605468l11.472656 11.476563-9.414062 9.414062-11.472657-11.472656c-2.929687-2.929687-7.679687-2.929687-10.609375 0-2.925781 2.929687-2.925781 7.675781 0 10.605469l11.476563 11.472656-17.015625 17.015625c-2.914063 2.914063-6.789063 4.519531-10.910156 4.519531-4.121094 0-7.992188-1.605468-10.90625-4.519531l-20.941407-20.941406c-2.929687-2.929688-7.679687-2.929688-10.605469 0-2.929687 2.929687-2.929687 7.679687 0 10.605469l20.9375 20.941406c5.933594 5.933594 13.726563 8.898437 21.519532 8.898437 7.789062 0 15.582031-2.964843 21.515625-8.898437l78.949219-78.949219 36.394531-2.589844c3.917969-.28125 7.476562-1.800781 10.261719-4.246093 2.925781 1.214843 4.929687 4.085937 4.929687 7.417968v107.472656h-128.765625c-10.027344 0-18.1875 8.15625-18.1875 18.1875v27.726563c0 51.988281 20.300781 100.820313 57.15625 137.496094 1.464844 1.457031 3.378906 2.183593 5.292969 2.183593 1.921875 0 3.847656-.734374 5.3125-2.207031 2.921875-2.9375 2.914062-7.683593-.023438-10.605469-34.007812-33.84375-52.734375-78.898437-52.734375-126.867187v-27.726563c0-1.757812 1.425782-3.1875 3.183594-3.1875h193.78125v76.140626c0 12.558593 10.214844 22.773437 22.773438 22.773437 12.554687 0 22.769531-10.214844 22.769531-22.773437v-11.875c0-3.863282 3.144531-7.003907 7.007812-7.003907s7.007813 3.140625 7.007813 7.003907v51.867187c0 12.027344 9.785156 21.8125 21.808594 21.8125 12.027343 0 21.808593-9.785156 21.808593-21.8125v-116.132813h54.644531c1.757813 0 3.183594 1.429688 3.183594 3.1875v13.621094c0 4.144532 3.359375 7.5 7.5 7.5 4.144532 0 7.5-3.355468 7.5-7.5v-13.621094c0-10.03125-8.160156-18.1875-18.1875-18.1875zm-458.101562-157.929687c-8.054688-8.054687-9.359375-20.804687-3.097656-30.320313l37.601562-57.183593c4.296875-6.53125 11.21875-10.734375 18.996094-11.53125 7.78125-.792969 15.410156 1.921875 20.9375 7.449219l13.46875 13.46875-6.957032 6.957031-13.464843-13.46875c-3.429688-3.429688-8.164063-5.113281-12.980469-4.617188-4.824219.492188-9.117188 3.097657-11.78125 7.148438l-37.601562 57.179687c-3.707032 5.636719-2.9375 13.191406 1.835937 17.960938l4.894531 4.894531-6.957031 6.957031zm22.457031-12.667969-4.488281-4.488281 37.289062-56.703125c.109375-.164062.273438-.414062.769532-.464844.492187-.050781.707031.160156.851562.300782l13.46875 13.46875zm46.363281 15.332032c-11.109375 0-21.683594-3.527344-30.433594-10.046876l71.585938-71.589843c.953125-.949219 2.496094-.949219 3.445312 0l81.636719 81.636719zm167.460938 26.605468c-.136719-4.273437-1.863282-8.398437-5.019532-11.605468h8.707032c13.730468 0 24.898437 11.171874 24.898437 24.898437v115.367187h-14.601562v-107.472656c.003906-9.488281-5.683594-17.667968-13.984375-21.1875zm152.179687 259.792969c0 3.757813-3.054687 6.8125-6.808593 6.8125-3.753907 0-6.808594-3.054687-6.808594-6.8125v-51.867187c0-12.132813-9.871094-22.003907-22.007813-22.003907s-22.007812 9.871094-22.007812 22.003907v11.875c0 4.289062-3.484375 7.773437-7.773438 7.773437-4.285156 0-7.773437-3.484375-7.773437-7.773437v-83.28125c0-1.757813 1.433594-3.1875 3.1875-3.1875h66.808594c1.753906 0 3.183593 1.429687 3.183593 3.1875zm0 0"/><path d="m219.054688 250.441406c1.039062.492188 2.132812.726563 3.210937.726563 2.808594 0 5.5-1.582031 6.78125-4.285157 1.777344-3.742187.183594-8.214843-3.558594-9.992187l-4.472656-2.125c-3.742187-1.777344-8.214844-.183594-9.992187 3.554687-1.777344 3.742188-.1875 8.214844 3.554687 9.996094zm0 0"/><path d="m238.804688 236.648438c.746093 0 1.5-.113282 2.246093-.347657 3.953125-1.238281 6.152344-5.445312 4.914063-9.398437l-1.488282-4.746094c-1.242187-3.953125-5.449218-6.152344-9.402343-4.914062-3.953125 1.238281-6.152344 5.449218-4.910157 9.402343l1.488282 4.746094c1.003906 3.207031 3.964844 5.257813 7.152344 5.257813zm0 0"/><path d="m337.808594 234.765625-4.472656 2.125c-3.742188 1.777344-5.335938 6.25-3.558594 9.992187 1.285156 2.703126 3.976562 4.28125 6.78125 4.28125 1.078125 0 2.171875-.230468 3.210937-.726562l4.476563-2.125c3.742187-1.777344 5.332031-6.25 3.554687-9.992188-1.773437-3.742187-6.246093-5.335937-9.992187-3.554687zm0 0"/><path d="m317.773438 236.304688c.75.230468 1.503906.34375 2.246093.34375 3.191407 0 6.148438-2.054688 7.15625-5.257813l1.488281-4.746094c1.238282-3.953125-.960937-8.164062-4.914062-9.402343-3.953125-1.234376-8.160156.960937-9.398438 4.914062l-1.488281 4.746094c-1.242187 3.953125.960938 8.160156 4.910157 9.402344zm0 0"/><path d="m400.175781 242.023438c3.921875 1.351562 8.1875-.730469 9.535157-4.648438 1.351562-3.914062-.730469-8.183594-4.648438-9.53125-9.417969-3.246094-15.273438-13.085938-13.625-22.890625 1.878906-11.171875 12.089844-18.710937 23.25-17.148437 2.304688.320312 4.617188-.441407 6.277344-2.0625 1.660156-1.621094 2.476562-3.921876 2.210937-6.226563-.300781-2.601563-.109375-5.203125.566407-7.734375 1.488281-5.558594 5.105468-10.128906 10.175781-12.859375 5.066406-2.730469 10.886719-3.230469 16.378906-1.40625 9.417969 3.125 15.394531 12.867187 13.90625 22.660156-.519531 3.421875-1.820313 6.550781-3.859375 9.296875-1.382812 1.863282-1.828125 4.261719-1.199219 6.5.625 2.234375 2.253907 4.054688 4.402344 4.925782 10.441406 4.230468 15.523437 15.859374 11.5625 26.476562-3.472656 9.316406-13.464844 14.90625-23.246094 13.011719-4.070312-.796875-8 1.863281-8.789062 5.929687-.792969 4.066406 1.863281 8.003906 5.933593 8.792969 2.210938.429687 4.425782.636719 6.625.636719 14.59375 0 28.316407-9.136719 33.53125-23.128906 5.800782-15.554688.3125-32.382813-12.558593-41.554688 1.15625-2.734375 1.96875-5.617188 2.425781-8.632812 2.574219-16.921876-7.746094-33.75-24.007812-39.148438-9.457032-3.140625-19.476563-2.273438-28.21875 2.4375-8.621094 4.644531-15.015626 12.730469-17.550782 22.183594-.429687 1.605468-.746094 3.226562-.949218 4.859375-15.730469 1.503906-28.902344 13.332031-31.660157 29.707031-2.851562 16.945312 7.265625 33.953125 23.53125 39.554688zm0 0"/><path d="m325.839844 164.707031c3.972656 5.578125 10.449218 8.671875 17.03125 8.671875 3.050781 0 6.128906-.667968 8.984375-2.0625 3.726562-1.8125 5.273437-6.300781 3.457031-10.027344-1.816406-3.722656-6.304688-5.269531-10.027344-3.453124-2.507812 1.21875-5.613281.433593-7.222656-1.828126-1.851562-2.597656-1.324219-6.125 1.195312-8.027343 1.851563-1.398438 2.949219-3.574219 2.976563-5.894531.027344-2.320313-1.019531-4.523438-2.839844-5.964844-.574219-.457032-1.054687-1.011719-1.421875-1.648438-.804687-1.398437-.996094-3.019531-.53125-4.570312.464844-1.546875 1.519532-2.800782 2.980469-3.53125 2.480469-1.246094 5.59375-.5 7.234375 1.726562.582031.792969.945312 1.675782 1.085938 2.625.339843 2.296875 1.722656 4.308594 3.746093 5.441406 2.027344 1.140626 4.464844 1.273438 6.597657.371094 2.910156-1.230468 6.222656.074219 7.550781 2.976563 1.152343 2.527343.28125 5.609375-2.03125 7.167969-3.433594 2.316406-4.339844 6.980468-2.019531 10.410156 2.316406 3.433594 6.976562 4.339844 10.410156 2.023437 8.316406-5.613281 11.449218-16.722656 7.28125-25.839843-3.578125-7.835938-11.292969-12.394532-19.324219-12.21875-.371094-.636719-.777344-1.253907-1.214844-1.847657-5.917969-8.035156-17.109375-10.722656-26.042969-6.242187-5.1875 2.601562-8.960937 7.085937-10.621093 12.632812-1.625 5.425782-.953125 11.34375 1.847656 16.261719-4.179687 6.890625-4.074219 15.828125.917969 22.847656zm0 0"/><path d="m421.074219 133.488281c1.917969 0 3.839843-.730469 5.304687-2.195312 2.929688-2.929688 2.929688-7.679688 0-10.605469l-.070312-.070312c-2.929688-2.929688-7.640625-2.894532-10.574219.035156-2.925781 2.929687-2.890625 7.710937.035156 10.640625 1.464844 1.464843 3.386719 2.195312 5.304688 2.195312zm0 0"/><path d="m399.203125 127.03125c1.910156 0 3.820313-.726562 5.28125-2.179688 2.941406-2.917968 2.957031-7.664062.039063-10.605468l-.070313-.070313c-2.917969-2.9375-7.632813-2.921875-10.570313 0-2.941406 2.917969-2.921874 7.703125-.003906 10.640625 1.46875 1.476563 3.394532 2.214844 5.324219 2.214844zm0 0"/><path d="m304.863281 115.582031c1.921875 0 3.839844-.730469 5.304688-2.195312 2.929687-2.929688 2.929687-7.679688 0-10.605469l-.070313-.070312c-2.929687-2.929688-7.640625-2.894532-10.570312.035156-2.929688 2.925781-2.894532 7.710937.035156 10.640625 1.464844 1.464843 3.382812 2.195312 5.300781 2.195312zm0 0"/></svg>