<?xml version='1.0' encoding='iso-8859-1'?>
<!DOCTYPE svg PUBLIC '-//W3C//DTD SVG 1.1//EN' 'http://www.w3.org/Graphics/SVG/1.1/DTD/svg11.dtd'>
<svg version="1.1" xmlns="http://www.w3.org/2000/svg" viewBox="0 0 293.354 293.354" xmlns:xlink="http://www.w3.org/1999/xlink" enable-background="new 0 0 293.354 293.354">
  <g>
    <path d="m248.338,161.98l-7.575,33.534c-12.673,4.228-23.639,16.914-27.41,33.622-5.237,23.176 5.333,45.306 23.606,49.432 18.268,4.125 37.333-11.306 42.561-34.482 3.818-16.888-0.773-33.218-10.616-42.432l14.115-62.486-34.681,22.812z"/>
    <path d="m217.198,113.664l-44.979,29.587c-10.972-5.228-25.051-5.576-38.771-0.743-4.893,1.723-9.74,4.102-14.383,7.157-24.494,16.115-34.054,44.839-21.347,64.153 12.71,19.314 42.866,21.911 67.36,5.801 5.187-3.413 9.696-7.396 13.474-11.731 9.226-10.586 14.038-23.29 13.429-35.081l88.112-57.962c1.411-0.928 2.662-2.05 3.74-3.312-4.324,1.38-8.926,2.131-13.701,2.131h-52.934z"/>
    <path d="M270.13,45.289l-138.132,0c-5.389-8.903-13.738-16.476-24.047-21.928c-11.032-5.834-24.303-9.241-38.585-9.241   C31.054,14.12,0,38.609,0,68.817c0,30.21,31.054,54.699,69.366,54.699c14.768,0,28.446-3.65,39.694-9.852   c10.025-5.528,18.106-13.088,23.287-21.928l137.782,0c12.826,0,23.224-10.398,23.224-23.224S282.956,45.289,270.13,45.289z"/>
  </g>
</svg>
