<svg id="Capa_1" enable-background="new 0 0 512.008 512.008" height="512" viewBox="0 0 512.008 512.008" width="512" xmlns="http://www.w3.org/2000/svg"><g><path d="m271.707 326.803 191.958-81.481-7.899-18.609c-3.237-7.624-12.038-11.182-19.669-7.946l-150.078 63.705c-5.084 2.157-9.869 4.791-14.312 7.85z"/><path d="m241.707 326.357v-35.405c-4.722-3.215-9.821-5.954-15.252-8.148l-151.168-61.078c-3.688-1.488-7.818-1.454-11.48.101-3.661 1.555-6.556 4.5-8.047 8.188l-7.557 18.704z"/><path d="m491.143 266.249-219.436 93.145v32.591l231.158-98.121c7.625-3.237 11.184-12.043 7.946-19.669-3.235-7.624-12.038-11.181-19.668-7.946z"/><path d="m241.707 391.659v-32.357l-221.084-89.324c-7.684-3.101-16.424.607-19.527 8.289-3.103 7.681.608 16.424 8.289 19.527z"/><path d="m256.838 182.631c8.284 0 15-6.716 15-15v-32.607c0-8.284-6.716-15-15-15s-15 6.716-15 15v32.607c0 8.284 6.716 15 15 15z"/><path d="m310.9 197.117c2.362 1.364 4.941 2.013 7.486 2.013 5.184 0 10.226-2.69 13.004-7.503l16.305-28.239c4.143-7.174 1.685-16.348-5.49-20.49-7.175-4.145-16.349-1.686-20.49 5.49l-16.305 28.239c-4.142 7.174-1.684 16.347 5.49 20.49z"/><path d="m182.284 191.627c2.778 4.812 7.82 7.503 13.004 7.503 2.545 0 5.124-.648 7.486-2.013 7.175-4.142 9.633-13.315 5.49-20.49l-16.304-28.239c-4.143-7.176-13.316-9.634-20.49-5.49-7.175 4.142-9.633 13.315-5.49 20.49z"/></g></svg>