<svg id="Capa_1" enable-background="new 0 0 512 512" height="512" viewBox="0 0 512 512" width="512" xmlns="http://www.w3.org/2000/svg"><g><path d="m473.172 220.609c-3.258 5.206-6.663 10.187-10.226 14.889-5.679 7.495-11.741 14.339-18.156 20.503 6.415 6.164 12.477 13.008 18.156 20.503 3.563 4.702 6.967 9.683 10.226 14.889 23.943-17.528 38.828-35.393 38.828-35.393s-14.885-17.865-38.828-35.391z"/><path d="m395.235 426.39c-15.968-.567-30.952-2.861-44.843-6.881-2.131 8.634-5.025 17.301-8.675 25.963-2.292 5.439-4.891 10.882-7.772 16.309 27.147 11.97 50.055 15.922 50.055 15.922s8.027-21.819 11.235-51.313z"/><path d="m49.054 276.503c5.679-7.495 11.741-14.338 18.156-20.503-6.415-6.164-12.477-13.008-18.156-20.503-3.563-4.702-6.967-9.683-10.226-14.889-23.943 17.527-38.828 35.392-38.828 35.392s14.885 17.865 38.828 35.391c3.259-5.206 6.663-10.186 10.226-14.888z"/><path d="m333.946 50.219c2.881 5.427 5.48 10.87 7.771 16.309 3.65 8.662 6.544 17.329 8.675 25.963 13.891-4.021 28.875-6.314 44.843-6.881-3.208-29.493-11.235-51.312-11.235-51.312s-22.907 3.952-50.054 15.921z"/><path d="m116.765 85.61c15.968.567 30.952 2.861 44.843 6.881 2.131-8.634 5.025-17.301 8.675-25.963 2.292-5.439 4.891-10.882 7.772-16.309-27.147-11.969-50.055-15.922-50.055-15.922s-8.027 21.819-11.235 51.313z"/><path d="m178.054 461.781c-2.881-5.428-5.48-10.87-7.772-16.309-3.65-8.662-6.544-17.33-8.675-25.963-13.891 4.02-28.875 6.314-44.843 6.881 3.209 29.494 11.236 51.313 11.236 51.313s22.908-3.952 50.054-15.922z"/><path d="m256 512s57.108-47.561 67.277-109.473l-49.315-85.416c-5.874 1.726-11.885 2.569-17.855 2.569-6.127 0-12.209-.886-18.051-2.601l-49.333 85.447c10.169 61.912 67.277 109.474 67.277 109.474z"/><path d="m256 0s-57.108 47.562-67.277 109.473l49.321 85.426c11.9-3.497 24.36-3.35 35.893.035l49.341-85.46c-10.17-61.912-67.278-109.474-67.278-109.474z"/><path d="m272.847 285.18c16.089-9.289 21.622-29.937 12.333-46.026-6.233-10.796-17.583-16.84-29.236-16.84-5.713 0-11.497 1.451-16.79 4.507-16.089 9.289-21.622 29.937-12.333 46.026 9.289 16.088 29.935 21.62 46.026 12.333z"/><path d="m416.535 271h-98.682c-2.835 11.679-8.938 22.544-17.916 31.101l49.323 85.429c17.684 6.672 36.369 9.01 53.849 9.01 40.543 0 74.594-12.54 74.594-12.54s-12.636-73.237-61.168-113z"/><path d="m95.465 241h98.682c2.835-11.679 8.938-22.544 17.916-31.101l-49.323-85.43c-17.684-6.672-36.369-9.01-53.848-9.01-40.543 0-74.594 12.54-74.594 12.54s12.635 73.239 61.167 113.001z"/><path d="m108.892 396.54c17.482 0 36.164-2.337 53.848-9.009l49.32-85.424c-4.302-4.096-8.102-8.86-11.219-14.26-3.117-5.399-5.335-11.073-6.731-16.847h-98.645c-48.532 39.762-61.168 113-61.168 113s34.057 12.54 74.595 12.54z"/><path d="m403.108 115.46c-17.482 0-36.164 2.337-53.849 9.01l-49.324 85.432c4.302 4.097 8.106 8.853 11.224 14.252 3.117 5.399 5.335 11.073 6.731 16.847h98.644c48.532-39.762 61.167-113 61.167-113s-34.055-12.541-74.593-12.541z"/></g></svg>