<svg id="Layer_1" enable-background="new 0 0 495.891 495.891" height="512" viewBox="0 0 495.891 495.891" width="512" xmlns="http://www.w3.org/2000/svg"><path d="m358.774 47.774c-12.948-2.666-25.022-2.89-35.985-1.624 11.78-7.972 24.445-15.573 38.066-22.741 3.91-2.058 5.412-6.896 3.354-10.806-2.058-3.911-6.895-5.41-10.805-3.354-161.31 84.883-216.583 243.815-183.926 423.986.038.214-.319-1.464 12.088 56.331.922 4.298 5.155 7.073 9.501 6.144 4.32-.928 7.07-5.182 6.143-9.501-10.34-48.165-24.368-100.836-19.782-176.515 4.757-3.826 36.599-56.244 74.001-56.803 15.211-.25 29.922 8.546 43.798 26.073 2.743 3.464 7.774 4.049 11.238 1.307s4.049-7.774 1.307-11.238c-39.872-50.363-86.164-37.726-127.555 11.397 4.999-38.15 15.697-70.63 17.434-73.561.636-1.073 64.626-106.938 149.923-73.424 4.111 1.613 8.756-.408 10.371-4.521 1.616-4.112-.408-8.755-4.521-10.371-47.639-18.714-93.436-1.175-130.836 33.497 15.848-27.354 36.641-53.6 63.608-77.544.256-.121.51-.245.75-.391 15.227-8.233 39.396-16.686 68.599-10.67 4.33.889 8.559-1.896 9.449-6.223.893-4.326-1.892-8.556-6.22-9.448z" fill="#90c94f"/><g fill="#99d856"><path d="m427.5 16.5s-19.25 16.5-43 16.5c-15.555 0-32.172-7.579-41-15.53 0 0 17.25-17.47 41-17.47 15.706 0 33.296 8.176 43 16.5z"/><path d="m190.5 495c-33.21-8.759-96.039-32.602-113-63-7.22-12.93-12.47-25.81-16.17-38.37-20.98-70.99 7.17-131.63 7.17-131.63 10.218 37.746 36.436 93.755 72 117 17.85 11.67 29.4 32.2 36.84 52.77 1.314 1.29 10.94 37.414 10.94 43.99.318 11.316 2.019 16.08 2.22 19.24z"/><path d="m427.5 87s-31.29 1.88-53-1c-10.87-1.44-18.02-9.42-22.58-17.61-5.31-9.53-7.08-19.32-7.08-19.32s31.67-8.03 53.66.93c7.64 3.11 13.28 7.42 17.43 12.01 10.54 11.62 11.57 24.99 11.57 24.99z"/><path d="m249.23 423.79c-.444 9.007-2.471 17.759-6.89 25.66-15.65 27.96-51.84 44.55-51.84 44.55-1.137-4.546-2.22-13.403-2.22-18.27 0-16.635 2.612-32.133 13.5-44.64 22.72-26.09 35.72-60.09 35.72-60.09s13.03 26.06 11.73 52.79z"/></g><path d="m150.04 470.9c6.63-15.74 2.64-35.37-9.62-47.26-9.05-8.78-22.1-13.73-28.24-24.74-6.898-12.369-2.69-24.556-3.59-51.66 9.05 12.46 19.67 23.76 31.91 31.76 25.21 16.482 36.949 52.709 36.85 52.81 7.206 19.901 10.93 42.74 10.93 43.95.317 11.316 2.018 16.081 2.22 19.24 0 0-20.74-5.47-44.8-15.41 1.55-2.89 3.11-5.78 4.34-8.69z" fill="#90c94f"/><path d="m101.1 336.13c-15.95 29.578-29.48 40.271-39.77 57.5-20.98-70.99 7.17-131.63 7.17-131.63s10.56 39.01 32.6 74.13z" fill="#aaef68"/><path d="m427.5 87s-31.29 1.88-53-1c-10.87-1.44-18.02-9.42-22.58-17.61 6.315-1.09 13.774.028 20.1.37 15.292.831 33.885-2.527 43.91-6.75 10.54 11.62 11.57 24.99 11.57 24.99z" fill="#90c94f"/><path d="m427.5 16.5s-19.25 16.5-43 16.5c-11.72 0-21.85-3.78-29.12-7.61 20.417-9.482 41.834-15.24 59.6-17.1 7.74 4.11 12.52 8.21 12.52 8.21z" fill="#aaef68"/><path d="m246.57 439.52c-7.218 23.443-35.407 45.008-56.07 54.48-1.305-5.22-2.23-14.127-2.23-18.88 31.523-17.948 14.42-36.219 58.3-35.6z" fill="#90c94f"/><path d="m249.23 423.79c-15.039 9.364-30.187 2.484-39.14 12.57-5.01 5.64-4.021 11.974-18.77 14.17 2.06-6.83 5.35-13.57 10.46-19.44 22.72-26.09 35.72-60.09 35.72-60.09s13.03 26.06 11.73 52.79z" fill="#aaef68"/><path d="m357.02 344.15c.87 22.22-7.23 41.37-7.23 41.37s-18.34-7.25-33.37-22.6c-7.5 18.81-18.59 33.08-18.59 33.08s-.67-13.4-23.87-40.81c-22.09-26.129 15.966-84.43 29.61-84.43 18.377-4.577 73.691 6.7 77.78 37.35 4.75 35.59 14.24 45.08 14.24 45.08s-19.04-1.45-38.57-9.04z" fill="#6994ff"/><path d="m405.12 190.75c.84 21.44-6.98 39.92-6.98 39.92s-17.7-6.99-32.2-21.8c-7.23 18.14-17.94 31.91-17.94 31.91-.529-10.706-16.092-31.189-23.02-39.37-21.176-25.015 15.201-81.46 28.56-81.46 17.181-4.4 71.085 6.226 75.05 36.03 4.58 34.34 13.74 43.49 13.74 43.49s-18.37-1.39-37.21-8.72z" fill="#6994ff"/><path d="m320.581 313.86c-6.237 18.644-12.044 26.732-31.53 30.19-7.05 1.25-13.87 1.09-20.66.48-7.617-27.35 22.468-73.77 35.18-73.77 7.052-1.757 16.851-.88 24.05.28 1.911 14.213-2.565 29.436-7.04 42.82z" fill="#80aaff"/><path d="m389.841 180.24c0 3.74-.06 7.72-2.08 10.88-3.32 5.17-10.91 6.07-16.56 3.65-5.65-2.43-9.81-7.31-13.76-12.03-7.26 10.2-17.74 17.93-29.45 22.31-.95-1.18-1.96-2.4-3.01-3.64-18.26-21.57 5.55-63.86 20.28-77.17 6.105 7.603 2.526 18.944 8.29 26.04 7.49 9.2 24.41 4.16 32.2 13.11 3.869 4.47 4.08 10.94 4.09 16.85z" fill="#80aaff"/><path d="m334.52 344.858c.106 2.315-1.416 4.325-2.998 2.184-5.833-7.895-12.879-33.657-14.542-43.323 11.916 5.343 16.996 29.219 17.54 41.139z" fill="#fff"/><path d="m390.08 197.774c-.474 2.375-1.537 3.494-3.915 2.708-7.921-2.615-7.999-13.812-10.53-19.805-2.163-5.12-16.983-34.204-.002-24.09 11.074 6.597 16.761 29.581 14.447 41.187z" fill="#fff"/><path d="m70.753 322.018c.904-.5 1.374-.027 1.701.934 6.873 20.157 7.654 21.5 7.174 24.554-.503 3.203-5.144 10.49-9.206 10.468-3.702-8.024-1.957-17.669-1.897-27.415.017-2.62-.549-7.005 2.228-8.541z" fill="#fff"/><path d="m395.591 353.19s-19.04-1.45-38.57-9.04c-.32-7.87-1.75-16.12-5.08-24.05-11.48-27.41-32.75-49.89-46.99-49.64 18.14-3.63 72.33 7.08 76.4 37.65 4.749 35.59 14.24 45.08 14.24 45.08z" fill="#4379ff"/><path d="m316.42 362.91c0 1.852-9.933 21.951-18.59 33.09 0 0-.67-13.4-23.87-40.81-21.595-25.499 13.688-79.168 26.73-83.86-13.9 5.831-11.78 39.57.93 69.87 3.57 8.5 8.93 15.72 14.8 21.71z" fill="#4379ff"/><path d="m442.331 199.47s-18.37-1.39-37.21-8.72c-.3-7.59-1.69-15.56-4.9-23.2-11.11-26.5-31.69-48.23-45.43-47.88 17.42-3.55 69.87 6.77 73.8 36.31 4.579 34.34 13.74 43.49 13.74 43.49z" fill="#4379ff"/><path d="m365.94 208.86c0 1.766-9.569 21.157-17.94 31.92 0 0-.64-12.93-23.02-39.37-20.608-24.339 12.676-75.904 25.748-80.894-13.363 5.661-11.307 38.178.942 67.394 3.44 8.2 8.61 15.17 14.27 20.95z" fill="#4379ff"/></svg>