<svg id="Capa_1" enable-background="new 0 0 510 510" height="512" viewBox="0 0 510 510" width="512" xmlns="http://www.w3.org/2000/svg" xmlns:xlink="http://www.w3.org/1999/xlink"><linearGradient id="lg1"><stop offset="0" stop-color="#22b27f"/><stop offset="1" stop-color="#017b4e"/></linearGradient><linearGradient id="SVGID_1_" gradientUnits="userSpaceOnUse" x1="319.139" x2="360.362" xlink:href="#lg1" y1="295.856" y2="337.079"/><linearGradient id="lg2"><stop offset="0" stop-color="#017b4e" stop-opacity="0"/><stop offset="1" stop-color="#026841"/></linearGradient><linearGradient id="SVGID_2_" gradientUnits="userSpaceOnUse" x1="350.381" x2="378.669" xlink:href="#lg2" y1="323.065" y2="336.536"/><linearGradient id="SVGID_3_" gradientUnits="userSpaceOnUse" x1="153.453" x2="184.442" xlink:href="#lg1" y1="381.394" y2="412.383"/><linearGradient id="SVGID_4_" gradientUnits="userSpaceOnUse" x1="172.482" x2="180.124" xlink:href="#lg2" y1="389.988" y2="368.847"/><linearGradient id="SVGID_5_" gradientTransform="matrix(.508 .861 .861 -.508 68.416 -114.194)" gradientUnits="userSpaceOnUse" x1="595.538" x2="642.055" xlink:href="#lg1" y1="-18.328" y2="28.189"/><linearGradient id="SVGID_6_" gradientUnits="userSpaceOnUse" x1="28.977" x2="71.545" xlink:href="#lg1" y1="117.33" y2="159.897"/><linearGradient id="lg3"><stop offset="0" stop-color="#ade194"/><stop offset="1" stop-color="#68ca44"/></linearGradient><linearGradient id="SVGID_7_" gradientUnits="userSpaceOnUse" x1="51.078" x2="330.943" xlink:href="#lg3" y1="151.048" y2="430.914"/><linearGradient id="lg4"><stop offset="0" stop-color="#68ca44" stop-opacity="0"/><stop offset="1" stop-color="#47a920"/></linearGradient><linearGradient id="SVGID_8_" gradientUnits="userSpaceOnUse" x1="401.218" x2="401.218" xlink:href="#lg4" y1="320.649" y2="284.727"/><linearGradient id="SVGID_9_" gradientUnits="userSpaceOnUse" x1="272.689" x2="239.348" xlink:href="#lg4" y1="258.116" y2="224.775"/><linearGradient id="SVGID_10_" gradientUnits="userSpaceOnUse" x1="128.338" x2="226.08" xlink:href="#lg3" y1="90.963" y2="188.705"/><linearGradient id="SVGID_11_" gradientUnits="userSpaceOnUse" x1="234.059" x2="196.977" xlink:href="#lg4" y1="224.343" y2="187.261"/><linearGradient id="SVGID_12_" gradientUnits="userSpaceOnUse" x1="100.745" x2="380.611" xlink:href="#lg3" y1="101.381" y2="381.246"/><linearGradient id="SVGID_13_" gradientUnits="userSpaceOnUse" x1="183.99" x2="183.99" xlink:href="#lg4" y1="298.423" y2="364.099"/><linearGradient id="SVGID_14_" gradientUnits="userSpaceOnUse" x1="201.798" x2="201.798" xlink:href="#lg4" y1="414.606" y2="469.311"/><linearGradient id="SVGID_15_" gradientUnits="userSpaceOnUse" x1="176.053" x2="176.053" xlink:href="#lg4" y1="414.606" y2="469.311"/><linearGradient id="SVGID_16_" gradientUnits="userSpaceOnUse" x1="374.667" x2="429.337" xlink:href="#lg1" y1="251.646" y2="251.646"/><linearGradient id="lg5"><stop offset="0" stop-color="#fe646f"/><stop offset="1" stop-color="#fb2b3a"/></linearGradient><linearGradient id="SVGID_17_" gradientUnits="userSpaceOnUse" x1="333.586" x2="465.088" xlink:href="#lg5" y1="69.932" y2="201.435"/><linearGradient id="lg6"><stop offset="0" stop-color="#f82814" stop-opacity="0"/><stop offset="1" stop-color="#c0272d"/></linearGradient><linearGradient id="SVGID_18_" gradientUnits="userSpaceOnUse" x1="405.161" x2="405.161" xlink:href="#lg6" y1="43.911" y2="120.426"/><linearGradient id="SVGID_19_" gradientUnits="userSpaceOnUse" x1="405.161" x2="405.161" xlink:href="#lg5" y1="19.578" y2="97.233"/><linearGradient id="SVGID_20_" gradientUnits="userSpaceOnUse" x1="405.161" x2="405.161" xlink:href="#lg6" y1="27.661" y2="76.914"/><linearGradient id="SVGID_21_" gradientUnits="userSpaceOnUse" x1="366.576" x2="433.076" xlink:href="#lg5" y1="56.142" y2="92.642"/><linearGradient id="SVGID_22_" gradientUnits="userSpaceOnUse" x1="399.243" x2="405.243" xlink:href="#lg6" y1="53.817" y2="86.317"/><linearGradient id="SVGID_23_" gradientUnits="userSpaceOnUse" x1="394.367" x2="465.367" xlink:href="#lg5" y1="81.543" y2="120.543"/><linearGradient id="SVGID_24_" gradientUnits="userSpaceOnUse" x1="336.214" x2="408.799" xlink:href="#lg5" y1="71.358" y2="143.944"/><linearGradient id="SVGID_25_" gradientUnits="userSpaceOnUse" x1="378.985" x2="387.776" xlink:href="#lg6" y1="83.898" y2="139.576"/><linearGradient id="SVGID_26_" gradientUnits="userSpaceOnUse" x1="295.38" x2="378.194" xlink:href="#lg5" y1="118.192" y2="201.006"/><linearGradient id="SVGID_27_" gradientUnits="userSpaceOnUse" x1="389.42" x2="480.144" xlink:href="#lg5" y1="114.6" y2="205.324"/><linearGradient id="SVGID_28_" gradientUnits="userSpaceOnUse" x1="405.173" x2="405.173" xlink:href="#lg6" y1="189" y2="241.405"/><g><g><g><path d="m317.462 340.355c-15.701-15.701-23.096-36.637-22.269-57.531.234-5.923 4.991-10.68 10.914-10.914 20.894-.827 41.83 6.568 57.531 22.269s23.096 36.637 22.269 57.531c-.234 5.923-4.991 10.68-10.914 10.914-20.895.827-41.83-6.568-57.531-22.269z" fill="url(#SVGID_1_)"/><path d="m385.907 351.709c.827-20.894-6.568-41.83-22.269-57.531-2-2-4.087-3.862-6.246-5.593l-45.523 45.523c1.731 2.159 3.592 4.246 5.593 6.246 15.701 15.701 36.637 23.096 57.531 22.269 5.923-.234 10.679-4.99 10.914-10.914z" fill="url(#SVGID_2_)"/></g><g><path d="m145.04 372.981c-15.701 15.701-23.096 36.637-22.269 57.531.234 5.923 4.991 10.68 10.914 10.914 20.894.827 41.83-6.568 57.531-22.269s23.096-36.637 22.269-57.531c-.234-5.923-4.991-10.68-10.914-10.914-20.895-.827-41.83 6.567-57.531 22.269z" fill="url(#SVGID_3_)"/><path d="m213.485 361.626c.827 20.894-6.568 41.83-22.269 57.531-2 2-4.087 3.862-6.246 5.593l-45.523-45.523c1.731-2.159 3.592-4.246 5.593-6.246 15.701-15.701 36.637-23.096 57.531-22.269 5.923.234 10.679 4.991 10.914 10.914z" fill="url(#SVGID_4_)"/></g><path d="m416.178 389.19c9.11 7.781 14.308 19.816 12.811 32.583-2.385 20.334-20.867 34.935-41.201 32.551-6.926-.812-11.883-7.085-11.071-14.014.813-6.927 7.087-11.884 14.014-11.071 6.501.762 12.41-3.906 13.173-10.408.761-6.5-3.905-12.41-10.408-13.173-15.114-1.772-30.015 2.447-41.956 11.881-5.472 4.324-13.413 3.389-17.738-2.08-4.324-5.473-3.392-13.414 2.08-17.738 17.235-13.616 38.741-19.706 60.555-17.147 7.567.886 14.341 4.004 19.741 8.616z" fill="url(#SVGID_5_)"/><path d="m81.436 115.486c-7.781-9.11-19.817-14.308-32.583-12.811-20.334 2.385-34.935 20.867-32.551 41.201.812 6.926 7.085 11.883 14.014 11.071 6.927-.813 11.884-7.087 11.071-14.014-.762-6.501 3.906-12.41 10.408-13.173 6.5-.761 12.41 3.905 13.173 10.408 1.772 15.114-2.447 30.015-11.881 41.956-4.324 5.472-3.389 13.413 2.08 17.738 5.473 4.324 13.414 3.392 17.738-2.08 13.616-17.235 19.706-38.741 17.147-60.555-.887-7.568-4.005-14.342-8.616-19.741z" fill="url(#SVGID_6_)"/><path d="m407.917 239.331c-6.975 0-12.629 5.654-12.629 12.629 0 114.127-92.849 206.976-206.976 206.976-89.909 0-163.055-73.146-163.055-163.055 0-70.535 57.384-127.918 127.918-127.918 55.035 0 99.809 44.774 99.809 99.809 0 42.635-34.686 77.321-77.321 77.321-32.715 0-59.332-26.616-59.332-59.331 0-12.004 4.675-23.289 13.162-31.777 4.932-4.932 4.933-12.928 0-17.859-4.931-4.933-12.927-4.932-17.86 0-13.259 13.258-20.56 30.886-20.56 49.637 0 46.642 37.946 84.588 84.589 84.588 56.562 0 102.578-46.016 102.578-102.578 0-68.961-56.104-125.066-125.066-125.066-84.46-.002-153.174 68.713-153.174 153.173 0 103.836 84.476 188.312 188.312 188.312 62.031 0 120.35-24.157 164.213-68.02s68.02-102.182 68.02-164.213c0-6.974-5.654-12.628-12.628-12.628z" fill="url(#SVGID_7_)"/><path d="m407.917 239.331c-6.975 0-12.629 5.654-12.629 12.629 0 25.774-4.749 50.456-13.396 73.236h26.925c7.717-23.312 11.728-47.965 11.728-73.236 0-6.975-5.654-12.629-12.628-12.629z" fill="url(#SVGID_8_)"/><path d="m252.984 267.771c0 5.652-.626 11.158-1.783 16.468l20.243 20.243c4.386-11.404 6.797-23.781 6.797-36.711 0-34.633-14.153-66.02-36.976-88.689l-17.851 17.851c18.25 18.096 29.57 43.169 29.57 70.838z" fill="url(#SVGID_9_)"/><path d="m156.427 119.052c-29.731 29.731-43.733 69.372-42.166 108.936.444 11.216 9.451 20.223 20.667 20.667 39.563 1.566 79.205-12.436 108.936-42.166s43.733-69.372 42.166-108.936c-.444-11.216-9.451-20.223-20.667-20.667-39.563-1.567-79.205 12.435-108.936 42.166z" fill="url(#SVGID_10_)"/><path d="m253.514 112.438-131.36 131.36c3.507 2.872 7.932 4.665 12.773 4.856 39.563 1.566 79.205-12.436 108.936-42.166 18.877-18.877 31.403-41.751 37.639-66.061z" fill="url(#SVGID_11_)"/><path d="m258.579 148.648h-23.749l18.223-18.222c4.917-4.917 5.288-12.982.461-17.987-4.917-5.1-13.037-5.156-18.025-.168l-18.519 18.519v-23.749c0-4.149-3.197-7.767-7.344-7.892-4.291-.129-7.81 3.311-7.81 7.574v32.265.081c-.011 4.526-1.956 8.833-5.156 12.033l-12.551 12.551v-23.749c0-4.149-3.197-7.767-7.344-7.892-4.291-.129-7.81 3.311-7.81 7.574v32.265.081c-.011 4.526-1.956 8.833-5.156 12.033l-12.551 12.551v-23.749c0-4.149-3.197-7.767-7.344-7.892-4.291-.129-7.81 3.311-7.81 7.574v32.265.081c-.011 4.526-1.956 8.833-5.156 12.033l-19.038 19.031c-4.916 4.916-5.179 13.217-.26 18.13 2.465 2.463 5.695 3.694 8.925 3.694 3.232 0 6.464-1.233 8.93-3.699l19.303-19.303c3.2-3.2 7.507-5.145 12.033-5.156h.08 32.265c4.262 0 7.703-3.519 7.574-7.81-.125-4.147-3.743-7.344-7.892-7.344h-23.749l12.551-12.551c3.2-3.2 7.507-5.145 12.033-5.156h.08 32.265c4.262 0 7.703-3.519 7.574-7.81-.125-4.147-3.743-7.344-7.892-7.344h-23.749l12.551-12.551c3.2-3.2 7.507-5.145 12.033-5.156h.08 32.265c4.262 0 7.703-3.519 7.574-7.81-.127-4.148-3.746-7.345-7.895-7.345z" fill="url(#SVGID_12_)"/><path d="m175.663 345.092c-32.715 0-59.332-26.616-59.332-59.331 0-.496.02-.989.036-1.482h-25.257c-.01.494-.036.986-.036 1.482 0 46.642 37.946 84.588 84.589 84.588 50.943 0 93.324-37.33 101.244-86.071h-25.715c-7.585 34.729-38.56 60.814-75.529 60.814z" fill="url(#SVGID_13_)"/><g><path d="m358.121 370.153c-37.439 53.626-99.591 88.782-169.809 88.782-63.175 0-118.072-36.115-145.135-88.782h-27.898c28.873 67.008 95.56 114.039 173.033 114.039 62.031 0 120.35-24.157 164.213-68.02 13.985-13.985 25.956-29.444 35.791-46.02h-30.195z" fill="url(#SVGID_14_)"/><path d="m181.918 370.153h-11.73c1.812.116 3.634.196 5.475.196 2.101.001 4.185-.071 6.255-.196z" fill="url(#SVGID_15_)"/></g></g><g><path d="m405.161 221.277c-27.638 0-55.276 9.326-47.659 14.526 6.714 4.583 11.456 11.446 13.014 18.084 3.988 16.985 18.73 28.129 33.688 28.129h1.913c14.958 0 29.7-11.144 33.688-28.129 1.558-6.638 6.301-13.501 13.014-18.084 7.618-5.2-20.02-14.526-47.658-14.526z" fill="url(#SVGID_16_)"/><g><path d="m509 105.477c0-11.652-5.255-22.213-13.773-29.944-8.218-8.014-19.443-12.959-31.828-12.959h-2.868-110.741-2.867c-12.386 0-23.612 4.945-31.829 12.96-8.517 7.731-13.771 18.291-13.771 29.943 0 0 .031.052.076.128-.047.851-.076 1.707-.076 2.57v46.13c0 53.956 43.74 95.696 97.696 95.696h12.287c53.954-.001 97.694-41.741 97.694-95.697v-46.13c0-.863-.029-1.719-.076-2.57.045-.075.076-.127.076-.127z" fill="url(#SVGID_17_)"/><path d="m301.398 105.604c1.999 3.332 47.686 78.458 103.763 78.458 56.077 0 101.764-75.126 103.763-78.458.045-.076.076-.128.076-.128 0-.73-.021-1.458-.062-2.184-.612-10.785-5.729-20.515-13.711-27.761-8.218-8.014-19.443-12.959-31.828-12.959h-2.868-110.741-2.867c-12.386 0-23.612 4.945-31.829 12.96-7.981 7.245-13.098 16.975-13.709 27.759-.041.726-.062 1.454-.062 2.183-.001.003.03.055.075.13z" fill="url(#SVGID_18_)"/><g><path d="m405.161 164.88c40.323 0 72.012-13.749 72.012-49.442v-49.074c0-5.418-.614-10.502-3.438-14.897-5.862-9.119-16.94-15.269-29.641-15.269h-77.865c-12.937 0-24.191 6.381-29.963 15.782-2.625 4.276-3.116 9.176-3.116 14.384v49.074c-.001 35.693 31.688 49.442 72.011 49.442z" fill="url(#SVGID_19_)"/><path d="m405.161 164.88c40.323 0 72.012-13.749 72.012-49.442v-49.074c0-5.418-.614-10.502-3.438-14.897-5.862-9.119-16.94-15.269-29.641-15.269h-77.865c-12.937 0-24.191 6.381-29.963 15.782-2.625 4.276-3.116 9.176-3.116 14.384v49.074c-.001 35.693 31.688 49.442 72.011 49.442z" fill="url(#SVGID_20_)"/><path d="m453.92 86.166c0 21.261-21.83 38.496-48.759 38.496s-48.759-17.235-48.759-38.496 21.83-60.358 48.759-60.358 48.759 39.097 48.759 60.358z" fill="url(#SVGID_21_)"/><path d="m453.92 86.166c0 21.261-21.83 38.496-48.759 38.496s-48.759-17.235-48.759-38.496 21.83-60.358 48.759-60.358 48.759 39.097 48.759 60.358z" fill="url(#SVGID_22_)"/><path d="m449.158 82.281c13.57 0 24.571-9.738 24.571-21.749v-9.056c2.824 4.394 4.444 9.472 4.444 14.889v49.074c0 33.798-29.315 46.333-66.663 49.183v-49.016c0-18.405 16.855-33.325 37.648-33.325z" fill="url(#SVGID_23_)"/><path d="m332.149 115.438v-49.074c0-5.208 1.491-10.108 4.116-14.384 6.605 11.952 20.473 20.185 36.516 20.185h3.797c33.668 0 60.961 24.159 60.961 53.962v25.163c0 15.728-14.263 13.516-32.03 13.59-.116 0-.232.001-.349.001-40.322-.001-73.011-13.75-73.011-49.443z" fill="url(#SVGID_24_)"/><path d="m332.149 115.438v-49.074c0-5.208 1.491-10.108 4.116-14.384 6.605 11.952 20.473 20.185 36.516 20.185h3.797c33.668 0 60.961 24.159 60.961 53.962v25.163c0 15.728-14.263 13.516-32.03 13.59-.116 0-.232.001-.349.001-40.322-.001-73.011-13.75-73.011-49.443z" fill="url(#SVGID_25_)"/></g><path d="m342.588 128.114c-19.3 0-34.945-13.849-34.945-30.933v-12.879c-4.016 6.249-7.321 13.472-7.321 21.175v54.608c0 48.068 42.693 87.494 95.81 91.548v-91.309c-.001-26.177-23.973-32.21-53.544-32.21z" fill="url(#SVGID_26_)"/><path d="m510 160.084v-54.608c0-7.407-3.121-14.376-6.854-20.457-9.394 16.998-29.117 28.707-51.934 28.707h-5.4c-47.883 0-86.701 19.174-86.701 61.559v35.787c0 22.368 20.285 42.821 45.554 42.926.165.002.496.002.496.002 57.349 0 104.839-43.152 104.839-93.916z" fill="url(#SVGID_27_)"/></g><path d="m300.893 169.5c4.844 41.16 41.034 74.27 86.66 81.153 5.278 2.114 11.049 3.32 17.112 3.346.165.001.496.001.496.001 53.766 0 98.867-37.929 104.292-84.5z" fill="url(#SVGID_28_)"/></g></g></svg>