<svg id="Capa_1" enable-background="new 0 0 512 512" height="512" viewBox="0 0 512 512" width="512" xmlns="http://www.w3.org/2000/svg"><g><path d="m512 256c0 86.24-42.65 162.53-108.01 208.91-41.79 29.65-92.85-46.803-147.99-46.803-4.13 0-8.24-.1-12.33-.3-50.41-2.38-96.99 74.533-135.65 47.103h-.01c-65.36-46.38-108.01-122.67-108.01-208.91 0-141.38 114.62-256 256-256s256 114.62 256 256z" fill="#95d6a4"/><path d="m283.589.5h-55.177c-21.736 0-38.224 19.591-34.512 41.008l19.178 110.66h85.846l19.178-110.66c3.711-21.417-12.777-41.008-34.513-41.008z" fill="#b66a54"/><path d="m231.769 41.508 19.17 110.66h-37.86l-19.18-110.66c-3.71-21.42 12.78-41.01 34.51-41.01h37.87c-21.74 0-38.23 19.59-34.51 41.01z" fill="#a95941"/><path d="m177.7 84.79h156.6v171.59h-156.6z" fill="#f9f6f6"/><path d="m177.7 84.79h156.6v47.03h-156.6z" fill="#dddaec"/><path d="m177.7 84.79h50.58v171.59h-50.58z" fill="#dddaec"/><path d="m340.952 54.199h-169.904c-16.868 0-30.542 13.674-30.542 30.542 0 16.868 13.674 30.542 30.542 30.542h169.904c16.868 0 30.542-13.674 30.542-30.542 0-16.868-13.674-30.542-30.542-30.542z" fill="#f9f6f6"/><path d="m218.816 106.341c5.53 5.52 13.16 8.94 21.6 8.94h-69.37c-8.43 0-16.07-3.42-21.6-8.94-5.52-5.53-8.94-13.16-8.94-21.6 0-16.87 13.67-30.54 30.54-30.54h69.37c-16.87 0-30.54 13.67-30.54 30.54 0 8.44 3.42 16.07 8.94 21.6z" fill="#dddaec"/><path d="m438.23 358.56c0 39.69-12.69 76.42-34.24 106.35-41.79 29.65-92.85 47.09-147.99 47.09s-106.2-17.44-147.99-47.09c-21.55-29.93-34.24-66.66-34.24-106.35 0-100.65 81.59-182.23 182.23-182.23s182.23 81.58 182.23 182.23z" fill="#f9f6f6"/><path d="m243.67 511.7c-50.41-2.38-96.99-19.36-135.65-46.79h-.01c-21.55-29.93-34.24-66.66-34.24-106.35 0-72.62 42.47-135.31 103.93-164.59 15.74-7.51 32.74-12.82 50.58-15.54v38.11c-14.12 11.37-26.52 24.8-36.72 39.84-19.77 29.14-31.32 64.31-31.32 102.18 0 64.22 33.23 120.69 83.43 153.14z" fill="#dddaec"/><path d="m397.14 358.56c0 77.95-63.19 141.14-141.14 141.14-11.55 0-22.78-1.39-33.53-4.01-61.76-15.04-107.61-70.73-107.61-137.13 0-23.23 5.61-45.14 15.54-64.46h251.2c9.93 19.32 15.54 41.23 15.54 64.46z" fill="#dd636e"/><path d="m222.47 495.69c-61.76-15.04-107.61-70.73-107.61-137.13 0-23.23 5.61-45.14 15.54-64.46h41.57c-7.58 20.04-11.73 41.76-11.73 64.46 0 54.68 24.09 103.74 62.23 137.13z" fill="#da4a54"/><circle cx="339.401" cy="253.211" fill="#fff" r="29.929"/><circle cx="375.075" cy="308.952" fill="#fff" r="19.698"/><g fill="#da4a54"><circle cx="220.183" cy="373.544" r="34.204"/><circle cx="271.204" cy="426.275" r="16.817"/><circle cx="317.683" cy="356.437" r="24.317"/></g><g><path d="m494.393 182.827-66.815 66.823-66.815-66.823c-7.626-7.618-11.431-17.606-11.431-27.594s3.805-19.975 11.431-27.593c15.236-15.244 39.951-15.244 55.187 0l11.628 11.621 11.621-11.621c7.618-7.626 17.613-11.431 27.594-11.431 4.322 0 8.651.714 12.775 2.142 5.415 1.868 10.497 4.96 14.826 9.289 15.243 15.236 15.243 39.951-.001 55.187z" fill="#dd636e"/><g fill="#da4a54"><path d="m479.567 118.351c-5.415 1.868-10.504 4.96-14.834 9.289l-24.388 24.388-12.768-12.768 11.621-11.621c7.618-7.626 17.613-11.431 27.594-11.431 4.321.001 8.651.715 12.775 2.143z"/><path d="m386.295 182.83c-15.241-15.241-15.241-39.951 0-55.192 4.324-4.324 9.412-7.418 14.828-9.289-13.673-4.722-29.448-1.628-40.364 9.289-15.241 15.241-15.241 39.951 0 55.192l66.817 66.817 12.768-12.768z"/></g></g><g><path d="m122.31 254.245-49.271 49.277-49.271-49.277c-5.623-5.618-8.429-12.983-8.429-20.348s2.806-14.73 8.429-20.348c11.235-11.241 29.461-11.241 40.696 0l8.575 8.569 8.569-8.569c5.618-5.623 12.989-8.429 20.348-8.429 3.187 0 6.38.526 9.421 1.579 3.994 1.378 7.741 3.657 10.933 6.85 11.241 11.235 11.241 29.46 0 40.696z" fill="#dd636e"/><g fill="#da4a54"><path d="m111.377 206.698c-3.994 1.378-7.746 3.657-10.939 6.85l-17.985 17.985-9.415-9.415 8.569-8.569c5.618-5.623 12.989-8.429 20.348-8.429 3.188-.001 6.381.525 9.422 1.578z"/><path d="m42.595 254.247c-11.239-11.239-11.239-29.461 0-40.7 3.189-3.189 6.94-5.47 10.935-6.85-10.083-3.482-21.715-1.2-29.765 6.85-11.239 11.239-11.239 29.461 0 40.7l49.273 49.273 9.415-9.415z"/></g></g></g></svg>