<svg id="Capa_1" enable-background="new 0 0 512 512" height="512" viewBox="0 0 512 512" width="512" xmlns="http://www.w3.org/2000/svg"><g><path d="m0 256c0-141.226 114.358-255.742 255.524-256 140.42-.256 255.505 113.783 256.47 254.2.491 71.374-28.23 136.042-74.913 182.757-2.027 2.028-5.296 2.105-7.401.16-45.636-42.163-106.65-67.926-173.68-67.926-66.775 0-127.578 25.566-173.156 67.444-2.407 2.212-6.131 2.129-8.435-.19-45.991-46.281-74.409-110.044-74.409-180.445z" fill="#1ab975"/><path d="m402 37.371v82.629h-292v-82.629c0-4.071 3.3-7.371 7.371-7.371h21.812c4.071 0 7.371 3.3 7.371 7.371v.405c0 6.827 5.597 12.347 12.453 12.222 6.728-.123 11.993-5.896 11.993-12.627 0-4.071 3.3-7.371 7.371-7.371h9.423c4.071 0 7.371 3.3 7.371 7.371v.405c0 6.827 5.597 12.347 12.452 12.222 6.729-.124 11.995-5.897 11.995-12.627 0-4.071 3.3-7.371 7.371-7.371h9.423c4.071 0 7.371 3.3 7.371 7.371v.405c0 6.827 5.597 12.347 12.452 12.222 6.729-.124 11.994-5.896 11.994-12.627 0-4.071 3.3-7.371 7.371-7.371h9.423c4.071 0 7.371 3.3 7.371 7.371v.405c0 6.827 5.597 12.347 12.452 12.222 6.729-.123 11.995-5.896 11.995-12.626 0-4.071 3.3-7.371 7.371-7.371h9.423c4.071-.001 7.371 3.299 7.371 7.37v.405c0 6.827 5.597 12.347 12.453 12.222 6.729-.124 11.994-5.896 11.994-12.627 0-4.071 3.3-7.371 7.371-7.371h21.812c4.07 0 7.37 3.3 7.37 7.371z" fill="#f9f1d2"/><path d="m145.862 37.371v82.629h-35.862v-82.629c0-4.071 3.3-7.371 7.371-7.371h21.812c3.291 0 6.078 2.157 7.025 5.135-.225.705-.346 1.456-.346 2.236z" fill="#ffe1aa"/><path d="m402 80 31.494 70.98c2.875 5.936 4.368 12.446 4.368 19.042v2.473c0 15.191-12.315 27.505-27.505 27.505h-308.713c-15.191 0-27.505-12.315-27.505-27.505v-2.473c0-6.596 1.493-13.105 4.368-19.042l31.493-70.98z" fill="#ffe1aa"/><path d="m137.505 200h-35.862c-15.191 0-27.505-12.314-27.505-27.505v-2.473c0-6.595 1.493-13.105 4.368-19.041l31.494-70.981h35.862l-31.494 70.98c-2.875 5.936-4.368 12.446-4.368 19.041v2.473c0 15.192 12.314 27.506 27.505 27.506z" fill="#ffd993"/><path d="m256 512c-71.122 0-135.47-29.003-181.862-75.827v-266.173h363.724v266.173c-46.392 46.824-110.74 75.827-181.862 75.827z" fill="#ffd993"/><path d="m110 170v296.313c-12.863-8.946-24.867-19.042-35.862-30.14v-266.173z" fill="#ffcd71"/><path d="m155.046 373.963c-2.635-9.2-4.046-18.916-4.046-28.963 0-57.99 47.01-105 105-105s105 47.01 105 105c0 10.047-1.411 19.763-4.046 28.963-.318 1.109-62.615-23.057-100.954-23.057s-100.637 24.166-100.954 23.057z" fill="#c47e4e"/><path d="m192.191 345c0 5.852.48 11.592 1.4 17.183-21.531 6.127-38.381 12.355-38.546 11.78-2.634-9.2-4.045-18.917-4.045-28.963 0-57.99 47.01-105 105-105 7.049 0 13.936.695 20.596 2.02-48.129 9.571-84.405 52.04-84.405 102.98z" fill="#b56d3c"/><path d="m307.795 324.803c45.315 45.315 14.833 123.632-49.233 125.166-.852.021-1.706.031-2.562.031-47.944 0-88.382-32.133-100.954-76.037l100.954-100.954z" fill="#ffe1aa"/><g fill="#f9f1d2"><path d="m200 270c5.523 0 10-4.477 10-10s-4.477-10-10-10-10 4.477-10 10 4.477 10 10 10zm120 10c0 5.523 4.477 10 10 10s10-4.477 10-10-4.477-10-10-10-10 4.477-10 10zm-30-40c5.523 0 10-4.477 10-10s-4.477-10-10-10-10 4.477-10 10 4.477 10 10 10zm-70-20c5.523 0 10-4.477 10-10s-4.477-10-10-10-10 4.477-10 10 4.477 10 10 10zm25-25c5.523 0 10-4.477 10-10s-4.477-10-10-10-10 4.477-10 10 4.477 10 10 10zm75 15c5.523 0 10-4.477 10-10s-4.477-10-10-10-10 4.477-10 10 4.477 10 10 10z"/><path d="m356.954 373.963c-12.572 43.904-53.01 76.037-100.954 76.037-9.565 0-15.765-5.791-15.765-5.791-17.145-13.161-12.188-43.489-11.491-47.422 2.03-11.457 7.282-21.1 13.789-29.047 21.652-26.445 27.082-62.611 13.743-94.078l-.276-.653z"/></g></g></svg>