<svg id="Capa_1" enable-background="new 0 0 511.378 511.378" height="512" viewBox="0 0 511.378 511.378" width="512" xmlns="http://www.w3.org/2000/svg"><g><path d="m511.214 254.72c.699 142.023-117.561 256.961-256.001 255.999-32.379.001-63.359-6.009-91.879-16.989-14.386-5.533-.655-46.785-13.653-54.705-13.736-8.369-54.113 16.463-65.988 5.735-96.465-80.857-112.907-247.166-31.7-345.73v-.01c135.803-191.656 467.808-83.724 459.221 155.7z" fill="#ffd064"/><g><path d="m471.75 394.747c-14.784 0-26.77-11.985-26.77-26.77v-194.389c0-3.476-2.828-6.304-6.304-6.304h-112.123c-14.785 0-26.77-11.985-26.77-26.77s11.985-26.77 26.77-26.77h112.123c32.999 0 59.844 26.846 59.844 59.845v194.389c.001 14.784-11.984 26.769-26.77 26.769z" fill="#90d8f9"/><g><path d="m468.076 367.977v-194.389c0-3.476-2.828-6.304-6.304-6.304h-23.096c3.476 0 6.304 2.828 6.304 6.304v194.389c0 14.785 11.986 26.77 26.77 26.77 4.136 0 8.052-.939 11.548-2.614-9.003-4.311-15.222-13.507-15.222-24.156z" fill="#75cef9"/></g><path d="m408.984 69.55v369.47c0 8.88-2.11 17.26-5.86 24.67-9.02 17.82-27.51 30.04-48.85 30.04h-190.94c-29.59-11.38-56.53-28.09-79.64-48.97-.2-1.88-.3-3.8-.3-5.74v-260.83l-42.23-63.95-8.97-13.58 19.8-1.63v-.01z" fill="#90d8f9"/><path d="m204.394 493.73h-41.06c-29.59-11.38-56.53-28.09-79.64-48.97-.2-1.89-.3-3.8-.3-5.74v-260.83l-42.23-63.95-8.97-13.58 19.8-1.63 97.69-8.07v348.06c0 30.21 24.49 54.71 54.71 54.71z" fill="#75cef9"/><path d="m376.865 226.288v212.738c0 12.454-10.13 22.583-22.583 22.583h-216.176c-12.453 0-22.583-10.13-22.583-22.583v-212.738z" fill="#75cef9"/><path d="m154.544 461.609h-16.437c-12.453 0-22.583-10.13-22.583-22.583v-212.738h34.159v212.738c-.001 8.052 1.744 15.708 4.861 22.583z" fill="#6bbef6"/><path d="m397.853 100.662h-365.655c-13.026 0-23.585-10.559-23.585-23.585 0-13.026 10.559-23.585 23.585-23.585h365.655c13.026 0 23.585 10.559 23.585 23.585 0 13.026-10.559 23.585-23.585 23.585z" fill="#d3effb"/><path d="m128.715 100.667h-96.512c-13.032 0-23.59-10.569-23.59-23.59 0-6.511 2.645-12.411 6.907-16.673 4.273-4.273 10.173-6.917 16.683-6.917h96.512c-6.511 0-12.411 2.645-16.673 6.917-4.262 4.262-6.907 10.162-6.907 16.673.001 13.021 10.559 23.59 23.58 23.59z" fill="#b1e4f9"/><path d="m295.824 168.277h56.614c6.94 0 12.567 5.626 12.567 12.567 0 6.94-5.626 12.567-12.567 12.567h-56.614c-6.94 0-12.567-5.626-12.567-12.567 0-6.941 5.626-12.567 12.567-12.567z" fill="#75cef9"/><g fill="#6bbef6"><path d="m295.824 242.384h56.614c6.94 0 12.567 5.626 12.567 12.567 0 6.94-5.626 12.567-12.567 12.567h-56.614c-6.94 0-12.567-5.626-12.567-12.567 0-6.94 5.626-12.567 12.567-12.567z"/><path d="m295.824 316.492h56.614c6.94 0 12.567 5.626 12.567 12.567 0 6.94-5.626 12.567-12.567 12.567h-56.614c-6.94 0-12.567-5.626-12.567-12.567 0-6.941 5.626-12.567 12.567-12.567z"/><path d="m295.824 390.599h56.614c6.94 0 12.567 5.626 12.567 12.567 0 6.94-5.626 12.567-12.567 12.567h-56.614c-6.94 0-12.567-5.626-12.567-12.567 0-6.94 5.626-12.567 12.567-12.567z"/></g></g></g></svg>