<svg id="Capa_1" enable-background="new 0 0 512 512" height="512" viewBox="0 0 512 512" width="512" xmlns="http://www.w3.org/2000/svg"><g><path d="m512 256c0 86.246-42.649 162.53-108.008 208.913-41.785 29.654-92.853-6.869-147.992-6.869s-106.207 36.523-147.992 6.869c-65.359-46.383-108.008-122.667-108.008-208.913 0-141.385 114.615-256 256-256s256 114.615 256 256z" fill="#30579d"/><path d="m165.893 87.327h-15.57v-15.57c0-10.393-8.425-18.818-18.818-18.818-10.393 0-18.818 8.425-18.818 18.818v15.57h-15.57c-10.393 0-18.818 8.425-18.818 18.818s8.425 18.818 18.818 18.818h15.57v15.57c0 10.393 8.425 18.818 18.818 18.818 10.393 0 18.818-8.425 18.818-18.818v-15.57h15.57c10.393 0 18.818-8.425 18.818-18.818s-8.425-18.818-18.818-18.818z" fill="#bc95e2"/><path d="m283.589.5h-55.177c-21.736 0-38.224 19.591-34.512 41.008l19.178 110.66h85.846l19.178-110.66c3.711-21.417-12.777-41.008-34.513-41.008z" fill="#e48863"/><path d="m231.769 41.508 19.17 110.66h-37.86l-19.18-110.66c-3.71-21.42 12.78-41.01 34.51-41.01h37.87c-21.74 0-38.23 19.59-34.51 41.01z" fill="#d77350"/><path d="m177.7 84.79h156.6v171.59h-156.6z" fill="#f9f6f6"/><path d="m177.7 84.79h156.6v47.03h-156.6z" fill="#dddaec"/><path d="m177.7 84.79h50.58v171.59h-50.58z" fill="#dddaec"/><path d="m340.952 54.199h-169.904c-16.868 0-30.542 13.674-30.542 30.542 0 16.868 13.674 30.542 30.542 30.542h169.904c16.868 0 30.542-13.674 30.542-30.542 0-16.868-13.674-30.542-30.542-30.542z" fill="#f9f6f6"/><path d="m218.816 106.341c5.53 5.52 13.16 8.94 21.6 8.94h-69.37c-8.43 0-16.07-3.42-21.6-8.94-5.52-5.53-8.94-13.16-8.94-21.6 0-16.87 13.67-30.54 30.54-30.54h69.37c-16.87 0-30.54 13.67-30.54 30.54 0 8.44 3.42 16.07 8.94 21.6z" fill="#dddaec"/><path d="m438.23 358.56c0 39.69-12.69 76.42-34.24 106.35-41.79 29.65-92.85 47.09-147.99 47.09s-106.2-17.44-147.99-47.09c-21.55-29.93-34.24-66.66-34.24-106.35 0-100.65 81.59-182.23 182.23-182.23s182.23 81.58 182.23 182.23z" fill="#f9f6f6"/><path d="m243.67 511.7c-50.41-2.38-96.99-19.36-135.65-46.79h-.01c-21.55-29.93-34.24-66.66-34.24-106.35 0-72.62 42.47-135.31 103.93-164.59 15.74-7.51 32.74-12.82 50.58-15.54v38.11c-14.12 11.37-26.52 24.8-36.72 39.84-19.77 29.14-31.32 64.31-31.32 102.18 0 64.22 33.23 120.69 83.43 153.14z" fill="#dddaec"/><path d="m397.14 358.56c0 77.95-63.19 141.14-141.14 141.14-11.55 0-22.78-1.39-33.53-4.01-61.76-15.04-107.61-70.73-107.61-137.13 0-23.23 5.61-45.14 15.54-64.46h251.2c9.93 19.32 15.54 41.23 15.54 64.46z" fill="#ac80dd"/><path d="m222.47 495.69c-61.76-15.04-107.61-70.73-107.61-137.13 0-23.23 5.61-45.14 15.54-64.46h41.57c-7.58 20.04-11.73 41.76-11.73 64.46 0 54.68 24.09 103.74 62.23 137.13z" fill="#9d66d5"/><path d="m107.789 247.154h-15.57v-15.57c0-10.393-8.425-18.818-18.818-18.818-10.393 0-18.818 8.425-18.818 18.818v15.57h-15.57c-10.393 0-18.818 8.425-18.818 18.818s8.425 18.818 18.818 18.818h15.57v15.57c0 10.393 8.425 18.818 18.818 18.818 10.393 0 18.818-8.425 18.818-18.818v-15.57h15.57c10.393 0 18.818-8.425 18.818-18.818s-8.425-18.818-18.818-18.818z" fill="#bc95e2"/><path d="m458.758 164.684h-15.57v-15.57c0-10.393-8.425-18.818-18.818-18.818-10.393 0-18.818 8.425-18.818 18.818v15.57h-15.57c-10.393 0-18.818 8.425-18.818 18.818s8.425 18.818 18.818 18.818h15.57v15.57c0 10.393 8.425 18.818 18.818 18.818 10.393 0 18.818-8.425 18.818-18.818v-15.57h15.57c10.393 0 18.818-8.425 18.818-18.818s-8.425-18.818-18.818-18.818z" fill="#bc95e2"/><circle cx="339.401" cy="253.211" fill="#fff" r="29.929"/><circle cx="375.075" cy="308.952" fill="#fff" r="19.698"/><g fill="#9d66d5"><circle cx="220.183" cy="401.668" r="34.204"/><circle cx="271.204" cy="348.937" r="16.817"/><circle cx="317.683" cy="418.775" r="24.317"/></g></g></svg>