<svg id="Capa_1" enable-background="new 0 0 512 512" height="512" viewBox="0 0 512 512" width="512" xmlns="http://www.w3.org/2000/svg"><g><path d="m17.108 257.066c0-12.5-16.208-25.846-14.478-37.866 17.84-123.95 124.49-219.2 253.37-219.2s235.53 95.25 253.37 219.2c1.73 12.02-30.765 25.366-30.765 37.866" fill="#d3effb"/><path d="m512 256c0 63.31-22.99 121.26-61.07 165.95-46.96 55.1-116.86 90.05-194.93 90.05s-147.97-34.95-194.93-90.05c-38.08-44.69-61.07-102.64-61.07-165.95" fill="#5a97ca"/><path d="m512 256c0 7.08-.29 14.1-.86 21.03-2.5 30.88-10.5 60.21-22.99 87.02-9.8 21-22.36 40.46-37.22 57.9-58.18 8.9-124.52 13.94-194.93 13.94s-136.75-5.04-194.93-13.94c-14.86-17.44-27.42-36.9-37.22-57.9-12.49-26.81-20.49-56.14-22.99-87.02-.57-6.93-.86-13.95-.86-21.03 0-12.5.9-24.78 2.63-36.8 70.26-15.54 158.09-24.77 253.37-24.77 95.29 0 183.11 9.23 253.37 24.77 1.73 12.02 2.63 24.3 2.63 36.8z" fill="#4d85ae"/><path d="m511.14 277.03c-2.5 30.88-10.5 60.21-22.99 87.02-52.22 20.71-136.75 34.16-232.15 34.16s-179.93-13.45-232.15-34.16c-12.49-26.81-20.49-56.14-22.99-87.02 47.77-26.68 144.09-44.92 255.14-44.92s207.38 18.24 255.14 44.92z" fill="#5a97ca"/><ellipse cx="256.001" cy="315.162" fill="#4d85ae" rx="200.872" ry="58.096"/><ellipse cx="256.001" cy="315.162" fill="#5a97ca" rx="128.168" ry="37.069"/><g><path d="m359.734 154.037-61.933-118.699c-17.628-33.784-65.974-33.784-83.601 0l-61.933 118.698c-23.641 45.31-15.14 100.722 20.999 136.86 45.693 45.693 119.777 45.693 165.47 0 36.138-36.137 44.64-91.549 20.998-136.859z" fill="#90d8f9"/><path d="m268.027 324.538c-3.995.425-8.017.624-12.026.624-29.946 0-59.891-11.415-82.735-34.26-36.144-36.144-44.64-91.549-20.999-136.866l61.935-118.694c10.977-21.025 33.848-28.962 53.812-23.812-6.637 3.119-12.676 11.07-16.327 23.813l-33.941 118.694c-12.955 45.317-8.296 100.721 11.508 136.866 10.845 19.79 24.61 30.993 38.773 33.635z" fill="#75cef9"/></g><path d="m393.61 143.258h-3.41c-9.822 0-17.784-7.962-17.784-17.784v-3.41c0-7.341-5.642-13.658-12.975-14.003-7.829-.369-14.293 5.87-14.293 13.618v3.795c0 9.822-7.962 17.784-17.784 17.784h-3.41c-7.341 0-13.658 5.642-14.003 12.975-.369 7.829 5.87 14.293 13.618 14.293h3.795c9.822 0 17.784 7.962 17.784 17.784v3.41c0 7.341 5.642 13.658 12.975 14.003 7.829.369 14.293-5.87 14.293-13.618v-3.795c0-9.822 7.962-17.784 17.784-17.784h3.795c7.748 0 13.987-6.463 13.618-14.293-.345-7.334-6.662-12.975-14.003-12.975z" fill="#fff"/></g></svg>