<svg id="Capa_1" enable-background="new 0 0 512 512" height="512" viewBox="0 0 512 512" width="512" xmlns="http://www.w3.org/2000/svg"><g><path d="m512 256c0 141.385-114.615 256-256 256-65.06 0-124.451-24.27-169.615-64.249-4.585-4.059-.081-13.824-4.364-18.198-2.717-2.774-14.314-.067-16.903-2.962-40.496-45.282-65.118-105.061-65.118-170.591 0-141.385 114.615-256 256-256s256 114.615 256 256z" fill="#232e7a"/><path d="m506.599 222.841-78.903 3.101c-3.611.142-6.148 3.609-5.192 7.094l20.9 76.148c1.427 5.2-4.585 9.224-8.848 5.923l-62.436-48.343c-2.857-2.212-7.03-1.187-8.537 2.097l-32.937 71.767c-2.249 4.901-9.441 4.119-10.586-1.15l-16.755-77.166c-.767-3.531-4.622-5.428-7.887-3.881l-71.362 33.805c-4.873 2.308-9.88-2.913-7.37-7.685l36.766-69.883c1.682-3.198-.051-7.129-3.547-8.043l-76.396-19.974c-5.217-1.364-5.696-8.583-.706-10.624l73.084-29.9c3.344-1.368 4.543-5.494 2.453-8.442l-45.684-64.407c-3.12-4.398 1.153-10.236 6.289-8.592l75.205 24.073c3.441 1.102 7.012-1.289 7.305-4.89l6.405-78.704c.437-5.374 7.463-7.1 10.34-2.54l42.137 66.782c1.928 3.056 6.2 3.52 8.739.95l55.496-56.174c3.789-3.836 10.281-.642 9.554 4.701l-10.648 78.243c-.487 3.58 2.487 6.682 6.084 6.345l78.62-7.36c5.368-.503 8.288 6.117 4.297 9.742l-58.45 53.093c-2.675 2.43-2.39 6.717.582 8.771l64.957 44.898c4.438 3.066 2.419 10.013-2.969 10.225z" fill="#3342ae"/><path d="m491.851 163.112-62.665 25.839c-2.868 1.182-3.887 4.727-2.085 7.252l39.367 55.18c2.688 3.768-.966 8.789-5.378 7.39l-64.613-20.487c-2.957-.937-6.016 1.123-6.259 4.215l-5.312 67.575c-.363 4.614-6.39 6.112-8.87 2.205l-36.328-57.226c-1.662-2.619-5.33-3.007-7.504-.794l-47.505 48.351c-3.244 3.302-8.824.575-8.212-4.013l8.955-67.189c.41-3.075-2.15-5.73-5.238-5.432l-67.47 6.503c-4.607.444-7.129-5.231-3.711-8.353l50.048-45.713c2.29-2.092 2.036-5.771-.521-7.528l-55.865-38.387c-3.815-2.621-2.098-8.59 2.526-8.784l67.723-2.848c3.099-.13 5.269-3.112 4.44-6.101l-18.12-65.316c-1.237-4.46 3.914-7.929 7.581-5.105l53.71 41.35c2.458 1.892 6.037 1.003 7.323-1.82l28.103-61.683c1.919-4.212 8.095-3.558 9.089.962l14.565 66.2c.667 3.029 3.98 4.649 6.78 3.313l61.177-29.187c4.177-1.993 8.488 2.478 6.344 6.58l-31.395 60.074c-1.437 2.749.061 6.12 3.064 6.896l65.626 16.965c4.48 1.156 4.909 7.351.63 9.116z" fill="#ff2ea6"/><path d="m491.851 163.112-62.665 25.839c-2.868 1.182-3.887 4.727-2.085 7.252l26.107 36.594c-85.739-25.001-152.875-93.645-175.745-180.271l43.081 33.168c2.458 1.892 6.037 1.003 7.323-1.82l28.103-61.683c1.919-4.212 8.095-3.558 9.089.962l14.565 66.2c.667 3.029 3.98 4.649 6.78 3.313l61.177-29.187c4.177-1.993 8.488 2.478 6.344 6.58l-31.395 60.074c-1.437 2.749.061 6.12 3.064 6.896l65.626 16.965c4.481 1.158 4.91 7.353.631 9.118z" fill="#ff50b5"/><path d="m499.809 157.979c-.297-4.287-3.177-7.751-7.337-8.827l-65.403-16.908 31.289-59.871c1.991-3.808 1.35-8.268-1.633-11.361-2.983-3.094-7.417-3.896-11.295-2.047l-60.97 29.088-14.516-65.976c-.924-4.197-4.282-7.201-8.555-7.653-4.276-.457-8.186 1.783-9.967 5.692l-28.008 61.474-53.528-41.21c-3.405-2.622-7.908-2.766-11.473-.364-3.564 2.4-5.125 6.627-3.977 10.769l18.059 65.095-67.495 2.838c-4.293.181-7.835 2.966-9.022 7.096s.334 8.371 3.875 10.805l55.676 38.257-49.878 45.559c-3.173 2.897-4.096 7.308-2.352 11.235s5.63 6.198 9.914 5.787l67.242-6.481-8.925 66.961c-.568 4.26 1.561 8.231 5.421 10.118s8.302 1.125 11.313-1.94l47.345-48.187 36.205 57.032c1.851 2.915 4.914 4.569 8.21 4.569.806 0 1.626-.099 2.446-.302 4.17-1.037 7.083-4.475 7.42-8.759l5.294-67.346 64.394 20.417c4.098 1.3 8.377-.107 10.906-3.582 2.528-3.475 2.549-7.98.054-11.479l-39.234-54.993 62.453-25.751c3.973-1.638 6.348-5.467 6.052-9.755zm-72.529 26.349c-2.785 1.148-4.86 3.467-5.693 6.362-.833 2.896-.307 5.963 1.443 8.416l39.047 54.734-64.09-20.32c-2.871-.912-5.951-.468-8.451 1.215-2.499 1.683-4.068 4.371-4.304 7.375l-5.27 67.027-36.034-56.762c-1.614-2.544-4.259-4.185-7.255-4.502-.352-.038-.702-.056-1.051-.056-2.622 0-5.123 1.041-6.986 2.938l-47.122 47.959 8.883-66.646c.398-2.986-.573-5.943-2.665-8.112-2.091-2.169-5.013-3.246-8.009-2.958l-66.925 6.449 49.643-45.343c2.225-2.032 3.381-4.921 3.173-7.927-.208-3.005-1.751-5.708-4.234-7.414l-55.413-38.078 67.175-2.825c3.01-.126 5.753-1.597 7.526-4.033 1.772-2.436 2.328-5.498 1.522-8.401l-17.971-64.786 53.275 41.016c2.387 1.838 5.435 2.476 8.357 1.749 2.924-.727 5.317-2.715 6.566-5.457l27.877-61.184 14.447 65.664c.647 2.943 2.571 5.389 5.278 6.712 2.706 1.322 5.818 1.336 8.537.04l60.683-28.95-31.141 59.588c-1.395 2.67-1.494 5.78-.271 8.534 1.224 2.753 3.598 4.765 6.515 5.519l65.095 16.83z" fill="#ff72c3"/><path d="m391.503 353.854 4.322 9.096c.198.416.532.751.948.948l9.096 4.321c1.522.723 1.522 2.89 0 3.613l-9.096 4.321c-.416.198-.751.532-.948.948l-4.322 9.096c-.723 1.522-2.89 1.522-3.613 0l-4.321-9.096c-.198-.416-.532-.751-.948-.948l-9.096-4.321c-1.522-.723-1.522-2.89 0-3.613l9.096-4.321c.416-.198.751-.532.948-.948l4.321-9.096c.723-1.522 2.89-1.522 3.613 0zm-253.613-270-4.321 9.096c-.198.416-.532.751-.948.948l-9.096 4.321c-1.522.723-1.522 2.89 0 3.613l9.096 4.321c.416.198.751.532.948.948l4.321 9.096c.723 1.522 2.89 1.522 3.613 0l4.321-9.096c.198-.416.532-.751.948-.948l9.096-4.321c1.522-.723 1.522-2.89 0-3.613l-9.096-4.321c-.416-.198-.751-.532-.948-.948l-4.321-9.096c-.723-1.522-2.89-1.522-3.613 0z" fill="#ff72c3"/><path d="m412.816 157.003-28.387 18.089c-2.012 1.282-2.838 3.808-1.972 6.031l12.218 31.365c1.675 4.3-2.873 8.381-6.967 6.25l-29.86-15.538c-2.117-1.102-4.717-.554-6.209 1.308l-21.054 26.263c-2.887 3.601-8.695 1.702-8.896-2.909l-1.472-33.629c-.104-2.384-1.879-4.362-4.237-4.724l-33.272-5.102c-4.562-.7-5.821-6.679-1.929-9.159l28.387-18.089c2.012-1.282 2.838-3.808 1.972-6.031l-12.218-31.365c-1.675-4.3 2.873-8.381 6.967-6.25l29.859 15.539c2.117 1.102 4.717.554 6.209-1.308l21.054-26.263c2.887-3.601 8.695-1.702 8.896 2.909l1.472 33.629c.104 2.384 1.879 4.362 4.237 4.724l33.272 5.102c4.563.698 5.822 6.678 1.93 9.158z" fill="#ffb52d"/><path d="m412.816 157.003-28.387 18.089c-2.012 1.282-2.838 3.808-1.972 6.031l8.798 22.587c-36.221-22.465-66.42-53.718-87.621-90.779.739.011 1.503.192 2.252.582l29.859 15.539c2.117 1.102 4.717.554 6.209-1.308l21.054-26.263c2.887-3.601 8.695-1.702 8.896 2.909l1.472 33.628c.104 2.384 1.879 4.362 4.237 4.724l33.272 5.102c4.563.699 5.823 6.678 1.931 9.159z" fill="#ffc14f"/><path d="m348.603 144.854 5.964 12.553c.198.416.532.751.948.948l12.553 5.964c1.522.723 1.522 2.89 0 3.613l-12.553 5.964c-.416.198-.751.532-.948.948l-5.964 12.553c-.723 1.522-2.89 1.522-3.613 0l-5.964-12.553c-.198-.416-.532-.751-.948-.948l-12.553-5.964c-1.522-.723-1.522-2.89 0-3.613l12.553-5.964c.416-.198.751-.532.948-.948l5.964-12.553c.723-1.522 2.89-1.522 3.613 0z" fill="#f76937"/><path d="m111.503 223.854 4.321 9.096c.198.416.532.751.948.948l9.096 4.321c1.522.723 1.522 2.89 0 3.613l-9.096 4.321c-.416.198-.751.532-.948.948l-4.321 9.096c-.723 1.522-2.89 1.522-3.613 0l-4.321-9.096c-.198-.416-.532-.751-.948-.948l-9.096-4.321c-1.522-.723-1.522-2.89 0-3.613l9.096-4.321c.416-.198.751-.532.948-.948l4.321-9.096c.723-1.522 2.89-1.522 3.613 0zm146.387 130-4.321 9.096c-.198.416-.532.751-.948.948l-9.096 4.321c-1.522.723-1.522 2.89 0 3.613l9.096 4.321c.416.198.751.532.948.948l4.321 9.096c.723 1.522 2.89 1.522 3.613 0l4.322-9.096c.198-.416.532-.751.948-.948l9.096-4.321c1.522-.723 1.522-2.89 0-3.613l-9.096-4.321c-.416-.198-.751-.532-.948-.948l-4.322-9.096c-.723-1.522-2.89-1.522-3.613 0z" fill="#ffc14f"/><path d="m241.426 292.71-155.041 155.04c-7.494-6.634-14.596-13.7-21.267-21.159l155.094-155.094c5.858-5.858 15.355-5.858 21.213 0s5.859 15.355.001 21.213z" fill="#1380e2"/><path d="m281.769 252.367-134.35 134.35c-5.858 5.858-15.355 5.858-21.213 0s-5.858-15.355 0-21.213l134.35-134.35c5.858-5.858 15.355-5.858 21.213 0s5.858 15.355 0 21.213z" fill="#55a4f9"/><path d="m299.409 234.727-63.64 63.64c-5.858 5.858-15.355 5.858-21.213 0s-5.858-15.355 0-21.213l63.64-63.64c5.858-5.858 15.355-5.858 21.213 0 5.857 5.858 5.857 15.355 0 21.213zm-31.519-120.873-4.321 9.096c-.198.416-.532.751-.948.948l-9.096 4.321c-1.522.723-1.522 2.89 0 3.613l9.096 4.321c.416.198.751.532.948.948l4.321 9.096c.723 1.522 2.89 1.522 3.613 0l4.322-9.096c.198-.416.532-.751.948-.948l9.096-4.321c1.522-.723 1.522-2.89 0-3.613l-9.096-4.321c-.416-.198-.751-.532-.948-.948l-4.322-9.096c-.723-1.522-2.89-1.522-3.613 0zm-70 30-4.321 9.096c-.198.416-.532.751-.948.948l-9.096 4.321c-1.522.723-1.522 2.89 0 3.613l9.096 4.321c.416.198.751.532.948.948l4.321 9.096c.723 1.522 2.89 1.522 3.613 0l4.321-9.096c.198-.416.532-.751.948-.948l9.096-4.321c1.522-.723 1.522-2.89 0-3.613l-9.096-4.321c-.416-.198-.751-.532-.948-.948l-4.321-9.096c-.723-1.522-2.89-1.522-3.613 0zm140 160-4.321 9.096c-.198.416-.532.751-.948.948l-9.096 4.321c-1.522.723-1.522 2.89 0 3.613l9.096 4.321c.416.198.751.532.948.948l4.321 9.096c.723 1.522 2.89 1.522 3.613 0l4.322-9.096c.198-.416.532-.751.948-.948l9.096-4.321c1.522-.723 1.522-2.89 0-3.613l-9.096-4.321c-.416-.198-.751-.532-.948-.948l-4.322-9.096c-.723-1.522-2.89-1.522-3.613 0z" fill="#fff5f5"/></g></svg>