<svg id="Capa_1" enable-background="new 0 0 512 512" height="512" viewBox="0 0 512 512" width="512" xmlns="http://www.w3.org/2000/svg"><g><path d="m512 256c0 50.04-14.36 96.72-39.18 136.16-14.54 23.114-55.613 6.542-76.559 23.89-11.034 9.139.089 54.562-12.391 61.77-37.63 21.74-81.3 34.18-127.87 34.18s-90.24-12.44-127.86-34.18c-36.17-20.88-66.75-50.37-88.96-85.66-24.82-39.44-39.18-86.12-39.18-136.16s14.36-96.72 39.18-136.16c18.86-29.98 43.77-55.77 73.02-75.66 40.99-27.88 90.49-44.18 143.8-44.18 141.38 0 256 114.62 256 256z" fill="#dd636e"/><g><path d="m472.82 177.13v215.03c-6.53 10.37-13.78 20.25-21.7 29.55-3.657 4.313-10.571-2.184-14.51 1.877-3.989 4.112-5.008 18.779-9.27 22.613-10.33 9.31-21.42 17.8-33.18 25.35-3.37 2.17-6.8 4.26-10.29 6.27h-302.99c-23.03 0-41.7-18.67-41.7-41.7v-350.24c0-23.03 18.67-41.7 41.7-41.7h258.99c11.06 0 21.66 4.39 29.49 12.21l91.25 91.25c7.82 7.83 12.21 18.43 12.21 29.49z" fill="#30579d"/><path d="m116.8 477.815h-35.91c-23.03 0-41.71-18.67-41.71-41.7v-350.24c0-23.03 18.68-41.7 41.71-41.7h35.91c-23.03 0-41.7 18.67-41.7 41.7v350.24c0 23.03 18.67 41.7 41.7 41.7z" fill="#26457d"/><path d="m104.643 107.907-17.689-18.553c-3.567-3.741-9.536-3.741-13.102 0l-17.689 18.553c-5.493 5.762-1.409 15.298 6.551 15.298h8.153v18.162c0 5.267 4.27 9.537 9.537 9.537s9.537-4.27 9.537-9.537v-18.162h8.153c7.959 0 12.042-9.536 6.549-15.298z" fill="#21386b"/><path d="m309.071 57.52v86.37c0 13.25-10.74 23.99-23.98 23.99h-146.24c-13.24 0-23.98-10.74-23.98-23.99v-86.37c0-4.94 1.49-9.53 4.06-13.34h186.08c2.57 3.81 4.06 8.4 4.06 13.34z" fill="#26457d"/><path d="m311.974 167.875h-146.231c-13.247 0-23.986-10.739-23.986-23.986v-86.374c0-13.247 10.739-23.986 23.986-23.986h146.231c13.247 0 23.986 10.739 23.986 23.986v86.374c.001 13.247-10.738 23.986-23.986 23.986z" fill="#f9f6f6"/><path d="m186.697 167.875h-20.95c-13.25 0-23.99-10.74-23.99-23.99v-86.37c0-13.25 10.74-23.99 23.99-23.99h20.95c-13.25 0-23.99 10.74-23.99 23.99v86.37c0 13.25 10.74 23.99 23.99 23.99z" fill="#dddaec"/><path d="m81.234 452.531c-8.448 0-15.297-6.849-15.297-15.297v-19.952c0-8.448 6.849-15.297 15.297-15.297 8.448 0 15.297 6.849 15.297 15.297v19.952c0 8.448-6.849 15.297-15.297 15.297z" fill="#21386b"/><path d="m451.12 413.52v8.19c-7.36 8.68-15.31 16.87-23.78 24.49-4.1-2.74-6.81-7.42-6.81-12.73v-19.95c0-8.45 6.85-15.3 15.3-15.3 4.23 0 8.05 1.71 10.81 4.48 2.77 2.77 4.48 6.6 4.48 10.82z" fill="#dd636e"/><path d="m296.469 147.923h-35.41c-4.914 0-8.898-3.984-8.898-8.898v-77.976c0-4.914 3.984-8.898 8.898-8.898h35.41c4.914 0 8.898 3.984 8.898 8.898v77.976c0 4.914-3.984 8.898-8.898 8.898z" fill="#26457d"/><path d="m394.16 231.49v240.06c-3.37 2.17-6.8 4.26-10.29 6.27h-267.07v-246.33c0-17.14 13.89-31.03 31.03-31.03h215.29c17.14 0 31.04 13.89 31.04 31.03z" fill="#26457d"/><path d="m131.8 367.908c0-33.426 0-97.583 0-131.009 0-11.842 9.6-21.44 21.442-21.44h204.472c11.842 0 21.442 9.6 21.442 21.442v131.005c0 11.842-9.6 21.442-21.442 21.442h-204.473c-11.841 0-21.441-9.598-21.441-21.44z" fill="#f9f6f6"/><g fill="#dddaec"><path d="m169.1 389.35h-15.86c-11.84 0-21.44-9.6-21.44-21.44v-131.01c0-11.84 9.6-21.44 21.44-21.44h15.86c-11.84 0-21.44 9.6-21.44 21.44v131.01c0 11.839 9.6 21.44 21.44 21.44z"/><g><path d="m131.8 265.991h247.355v13.967h-247.355z"/><path d="m131.8 324.85h247.355v13.967h-247.355z"/></g></g></g></g></svg>