<svg id="Capa_1" enable-background="new 0 0 512 512" height="512" viewBox="0 0 512 512" width="512" xmlns="http://www.w3.org/2000/svg"><g><path d="m512 256c0 141.38-114.62 256-256 256-59.91 0-115.01-20.58-158.62-55.05-9.67-7.65-6.044-28.716-14.514-37.646-5.2-5.49-22.896 1.526-27.596-4.414-34.6-43.66-55.27-98.86-55.27-158.89 0-141.38 114.62-256 256-256s256 114.62 256 256z" fill="#9dc6fb"/><g><path d="m328.05 226.28-230.67 230.67c-9.67-7.65-18.78-15.98-27.25-24.91-5.2-5.49-10.16-11.21-14.86-17.15l230.7-230.7 16 16.01z" fill="#b66a54"/><path d="m301.97 200.2-231.84 231.84c-5.2-5.49-10.16-11.21-14.86-17.15l230.7-230.7z" fill="#a95941"/><path d="m312.57 253.622-53.356-53.356c-9.331-9.331-9.331-24.461 0-33.792 9.331-9.331 24.461-9.331 33.792 0l53.356 53.356c9.331 9.331 9.331 24.461 0 33.792-9.331 9.331-24.46 9.331-33.792 0z" fill="#e48863"/><path d="m281.45 222.484-22.222-22.222c-9.333-9.333-9.346-24.455-.013-33.788 4.666-4.666 10.777-7.006 16.901-7.006 6.11.014 12.234 2.34 16.901 7.006l22.222 22.222c-4.667-4.667-10.791-6.993-16.887-6.993-6.124 0-12.234 2.34-16.901 7.006-9.334 9.333-9.334 24.442-.001 33.775z" fill="#d77350"/><path d="m468.598 81.959-8.404 24.784c-3.233 9.533-1.568 20.047 4.453 28.114l15.652 20.974c15.161 20.316.445 49.199-24.903 48.875l-26.168-.334c-10.066-.129-19.55 4.704-25.362 12.923l-15.111 21.367c-14.637 20.697-46.653 15.626-54.178-8.581l-7.768-24.991c-2.988-9.613-10.515-17.14-20.128-20.128l-24.991-7.768c-24.207-7.525-29.278-39.541-8.581-54.178l21.367-15.111c8.219-5.812 13.051-15.297 12.923-25.362l-.334-26.168c-.324-25.348 28.558-40.064 48.875-24.903l20.974 15.652c8.068 6.021 18.581 7.686 28.115 4.453l24.784-8.404c24.005-8.142 46.927 14.779 38.785 38.786z" fill="#f5de58"/><g fill="#eebd56"><path d="m295.637 145.544 21.367-15.111c8.219-5.812 13.051-15.297 12.923-25.362l-.334-26.168c-.325-25.348 28.557-40.064 48.874-24.903l20.974 15.652c8.068 6.02 18.581 7.686 28.115 4.453l24.784-8.404c5.904-2.003 11.74-2.118 17.067-.808-4.015-16.333-21.493-27.859-39.596-21.72l-24.784 8.404c-9.533 3.233-20.047 1.568-28.115-4.453l-20.974-15.652c-20.316-15.161-49.199-.445-48.874 24.903l.334 26.168c.129 10.066-4.704 19.55-12.923 25.362l-21.367 15.111c-20.697 14.637-15.626 46.653 8.581 54.178l1.909.593c-2.772-11.427.887-24.356 12.039-32.243z"/><path d="m349.336 227.618c-2.988-9.613-10.515-17.14-20.128-20.128l-1.831-.569 7.199 23.16c3.47 11.164 12.153 18.246 21.935 20.619z"/></g></g><g fill="#f5de58"><g><path d="m323.336 284.622 2.21 1.35c7.794 4.761 10.57 14.745 6.353 22.846l-12.971 24.92c-4.646 8.926-15.88 12.05-24.467 6.804l-5.491-3.355c-8.587-5.246-10.935-16.667-5.114-24.875l16.252-22.915c5.284-7.45 15.434-9.537 23.228-4.775z"/><path d="m382.682 299.283 2.589.064c9.13.227 16.526 7.484 16.925 16.609l1.227 28.067c.439 10.053-7.727 18.376-17.787 18.126l-6.433-.16c-10.06-.25-17.804-8.967-16.866-18.986l2.617-27.971c.851-9.094 8.598-15.976 17.728-15.749z"/><path d="m443.481 289.393 2.274-1.239c8.02-4.369 18.054-1.782 22.962 5.921l15.096 23.693c5.407 8.487 2.496 19.777-6.341 24.591l-5.651 3.078c-8.837 4.814-19.902 1.136-24.1-8.009l-11.719-25.532c-3.809-8.301-.541-18.134 7.479-22.503z"/></g><g><path d="m219.417 180.703-1.35-2.21c-4.761-7.794-14.745-10.57-22.846-6.353l-24.92 12.971c-8.926 4.646-12.05 15.88-6.804 24.467l3.355 5.491c5.246 8.587 16.667 10.935 24.875 5.114l22.915-16.252c7.45-5.284 9.537-15.434 4.775-23.228z"/><path d="m204.756 121.357-.064-2.589c-.227-9.13-7.484-16.526-16.609-16.925l-28.067-1.227c-10.053-.439-18.376 7.727-18.126 17.787l.16 6.433c.25 10.06 8.967 17.804 18.986 16.866l27.971-2.617c9.094-.851 15.976-8.598 15.749-17.728z"/><path d="m214.646 60.558 1.239-2.274c4.369-8.02 1.782-18.054-5.921-22.962l-23.693-15.096c-8.487-5.407-19.777-2.496-24.591 6.341l-3.078 5.651c-4.814 8.837-1.136 19.902 8.009 24.1l25.532 11.719c8.301 3.809 18.134.542 22.503-7.479z"/></g></g><g fill="#80b4fb"><path d="m122.039 202.583h-15.57v-15.57c0-10.393-8.425-18.818-18.818-18.818-10.393 0-18.818 8.425-18.818 18.818v15.57h-15.57c-10.393 0-18.818 8.425-18.818 18.818s8.425 18.818 18.818 18.818h15.57v15.57c0 10.393 8.425 18.818 18.818 18.818 10.393 0 18.818-8.425 18.818-18.818v-15.57h15.57c10.393 0 18.818-8.425 18.818-18.818s-8.425-18.818-18.818-18.818z"/><path d="m285.753 414.079h-15.57v-15.57c0-10.393-8.425-18.818-18.818-18.818-10.393 0-18.818 8.425-18.818 18.818v15.57h-15.57c-10.393 0-18.818 8.425-18.818 18.818s8.425 18.818 18.818 18.818h15.57v15.57c0 10.393 8.425 18.818 18.818 18.818 10.393 0 18.818-8.425 18.818-18.818v-15.57h15.57c10.393 0 18.818-8.425 18.818-18.818s-8.425-18.818-18.818-18.818z"/></g></g></svg>