<svg id="Capa_1" enable-background="new 0 0 512 512" height="512" viewBox="0 0 512 512" width="512" xmlns="http://www.w3.org/2000/svg"><g><g><path d="m481 378.208c19.767-36.317 31-77.95 31-122.208 0-141.385-114.615-256-256-256s-256 114.615-256 256c0 44.258 11.233 85.891 31 122.208z" fill="#383c6b"/></g><g><path d="m481 378.208v-244.416c-.374-.687-.764-1.364-1.144-2.047l-223.856-49.745-223.856 49.746c-.38.683-.77 1.36-1.144 2.047v244.415c43.381 79.7 127.873 133.792 225 133.792s181.619-54.092 225-133.792z" fill="#e8f8fc"/></g><g><path d="m31 133.792v244.415c15.927 29.261 37.4 55.063 63 76.011v-336.218l-61.856 13.746c-.38.683-.77 1.359-1.144 2.046z" fill="#cce6ed"/></g><g><path d="m481 132h-450v-50c0-27.614 22.386-50 50-50h350c27.614 0 50 22.386 50 50z" fill="#fe505f"/></g><g><path d="m81 32c-27.614 0-50 22.386-50 50v50h63v-100z" fill="#de3648"/></g><g><path d="m418 80c11.046 0 20-8.954 20-20v-40c0-11.046-8.954-20-20-20-11.046 0-20 8.954-20 20v40c0 11.046 8.954 20 20 20z" fill="#ffcd38"/></g><g><path d="m418 52.361c-10.969 0-19.861-8.892-19.861-19.861v27.639c0 10.969 8.892 19.861 19.861 19.861 10.969 0 19.861-8.892 19.861-19.861v-27.639c0 10.969-8.892 19.861-19.861 19.861z" fill="#ffac00"/></g><g><path d="m94 80c11.046 0 20-8.954 20-20v-40c0-11.046-8.954-20-20-20-11.046 0-20 8.954-20 20v40c0 11.046 8.954 20 20 20z" fill="#ffcd38"/></g><g><path d="m94 52.167c-11.046 0-20-8.954-20-20v27.833c0 11.046 8.954 20 20 20 11.046 0 20-8.954 20-20v-27.833c0 11.045-8.954 20-20 20z" fill="#ffac00"/></g><g><path d="m202 80c11.046 0 20-8.954 20-20v-40c0-11.046-8.954-20-20-20-11.046 0-20 8.954-20 20v40c0 11.046 8.954 20 20 20z" fill="#ffcd38"/></g><g><path d="m202 52.167c-11.046 0-20-8.954-20-20v27.833c0 11.046 8.954 20 20 20 11.046 0 20-8.954 20-20v-27.833c0 11.045-8.954 20-20 20z" fill="#ffac00"/></g><g><path d="m310 80c11.046 0 20-8.954 20-20v-40c0-11.046-8.954-20-20-20-11.046 0-20 8.954-20 20v40c0 11.046 8.954 20 20 20z" fill="#ffcd38"/></g><g><path d="m310 52.167c-11.046 0-20-8.954-20-20v27.833c0 11.046 8.954 20 20 20 11.046 0 20-8.954 20-20v-27.833c0 11.045-8.954 20-20 20z" fill="#ffac00"/></g><g><path d="m71 162h46c5.523 0 10 4.477 10 10v48.75c0 5.523-4.477 10-10 10h-46c-5.523 0-10-4.477-10-10v-48.75c0-5.523 4.477-10 10-10z" fill="#cce6ed"/></g><g><path d="m94 162h-23c-5.523 0-10 4.477-10 10v48.75c0 5.523 4.477 10 10 10h23z" fill="#a6d6eb"/></g><g><path d="m152 162h46c5.523 0 10 4.477 10 10v48.75c0 5.523-4.477 10-10 10h-46c-5.523 0-10-4.477-10-10v-48.75c0-5.523 4.477-10 10-10z" fill="#cce6ed"/></g><g><path d="m233 162h46c5.523 0 10 4.477 10 10v48.75c0 5.523-4.477 10-10 10h-46c-5.523 0-10-4.477-10-10v-48.75c0-5.523 4.477-10 10-10z" fill="#cce6ed"/></g><g><path d="m314 162h46c5.523 0 10 4.477 10 10v48.75c0 5.523-4.477 10-10 10h-46c-5.523 0-10-4.477-10-10v-48.75c0-5.523 4.477-10 10-10z" fill="#cce6ed"/></g><g><path d="m395 162h46c5.523 0 10 4.477 10 10v48.75c0 5.523-4.477 10-10 10h-46c-5.523 0-10-4.477-10-10v-48.75c0-5.523 4.477-10 10-10z" fill="#cce6ed"/></g><g><path d="m71 245.75h46c5.523 0 10 4.477 10 10v48.75c0 5.523-4.477 10-10 10h-46c-5.523 0-10-4.477-10-10v-48.75c0-5.523 4.477-10 10-10z" fill="#cce6ed"/></g><g><path d="m94 245.75h-23c-5.523 0-10 4.477-10 10v48.75c0 5.523 4.477 10 10 10h23z" fill="#a6d6eb"/></g><g><path d="m152 245.75h46c5.523 0 10 4.477 10 10v48.75c0 5.523-4.477 10-10 10h-46c-5.523 0-10-4.477-10-10v-48.75c0-5.523 4.477-10 10-10z" fill="#cce6ed"/></g><g><path d="m233 245.75h46c5.523 0 10 4.477 10 10v48.75c0 5.523-4.477 10-10 10h-46c-5.523 0-10-4.477-10-10v-48.75c0-5.523 4.477-10 10-10z" fill="#cce6ed"/></g><g><path d="m314 245.75h46c5.523 0 10 4.477 10 10v48.75c0 5.523-4.477 10-10 10h-46c-5.523 0-10-4.477-10-10v-48.75c0-5.523 4.477-10 10-10z" fill="#cce6ed"/></g><g><path d="m395 245.75h46c5.523 0 10 4.477 10 10v48.75c0 5.523-4.477 10-10 10h-46c-5.523 0-10-4.477-10-10v-48.75c0-5.523 4.477-10 10-10z" fill="#cce6ed"/></g><g><path d="m71 329.5h46c5.523 0 10 4.477 10 10v48.75c0 5.523-4.477 10-10 10h-46c-5.523 0-10-4.477-10-10v-48.75c0-5.523 4.477-10 10-10z" fill="#cce6ed"/></g><g><path d="m94 329.5h-23c-5.523 0-10 4.477-10 10v48.75c0 5.523 4.477 10 10 10h23z" fill="#a6d6eb"/></g><g><path d="m152 329.5h46c5.523 0 10 4.477 10 10v48.75c0 5.523-4.477 10-10 10h-46c-5.523 0-10-4.477-10-10v-48.75c0-5.523 4.477-10 10-10z" fill="#cce6ed"/></g><g><path d="m233 329.5h46c5.523 0 10 4.477 10 10v48.75c0 5.523-4.477 10-10 10h-46c-5.523 0-10-4.477-10-10v-48.75c0-5.523 4.477-10 10-10z" fill="#cce6ed"/></g><g><path d="m314 329.5h46c5.523 0 10 4.477 10 10v48.75c0 5.523-4.477 10-10 10h-46c-5.523 0-10-4.477-10-10v-48.75c0-5.523 4.477-10 10-10z" fill="#cce6ed"/></g><g><path d="m395 329.5h46c5.523 0 10 4.477 10 10v48.75c0 5.523-4.477 10-10 10h-46c-5.523 0-10-4.477-10-10v-48.75c0-5.523 4.477-10 10-10z" fill="#fe505f"/></g><g><path d="m362.5 443.25h-213c-4.142 0-7.5-3.358-7.5-7.5 0-4.142 3.358-7.5 7.5-7.5h213c4.142 0 7.5 3.358 7.5 7.5 0 4.142-3.358 7.5-7.5 7.5z" fill="#a6d6eb"/></g></g></svg>