<svg id="Layer_1" enable-background="new 0 0 512 512" height="512" viewBox="0 0 512 512" width="512" xmlns="http://www.w3.org/2000/svg"><g><path d="m244.999 16.502c-135.31 0-244.999 109.689-244.999 244.999 0 16.421 1.628 32.46 4.709 47.977s50.525 120.376 108.953 158.871c37.96 24.152 83.011 38.151 131.336 38.151 135.309 0 244.999-109.69 244.999-244.999s-109.689-244.999-244.998-244.999z" fill="#ffd764"/><g><path d="m360.287 33.675h19.483c.359 0 .71.038 1.059.082v-17.455c0-5.965-4.836-10.801-10.801-10.801s-10.801 4.836-10.801 10.801v17.455c.35-.044.701-.082 1.06-.082z" fill="#665364"/></g><path d="m387.853 37.305c-1.273-3.359-4.491-5.581-8.083-5.581h-19.483c-3.593 0-6.81 2.222-8.083 5.581l-13.78 41.24h63.209z" fill="#fcf8ed"/><path d="m365.752 54.142 5.626-16.837c1.273-3.359 4.49-5.581 8.083-5.581h-19.174c-3.593 0-6.81 2.222-8.083 5.581l-13.78 41.24h44.904c-12.654 0-21.586-12.402-17.576-24.403z" fill="#fceca9"/><path d="m338.424 78.545h19.705v160.09h-19.705z" fill="#e80054"/><path d="m381.927 78.545h19.705v160.09h-19.705z" fill="#ff7186"/><path d="m357.598 78.545h24.86v160.09h-24.86z" fill="#ff4155"/><path d="m338.424 238.635h63.209v161.176h-63.209z" fill="#543e5b"/><path d="m370.028 327.198c-17.455 0-31.604-14.15-31.604-31.604v104.217h63.209v-104.217c0 17.455-14.15 31.604-31.605 31.604z" fill="#422953"/><path d="m348.304 434.08 6.599 22.888c4.375 15.174 25.875 15.174 30.25 0l6.599-22.888z" fill="#665364"/><path d="m372.521 447.884s-.724-4.827-1.948-13.804h-22.269l6.599 22.888c4.317 14.973 25.297 15.16 30.055.584-11.013 1.422-12.437-9.668-12.437-9.668z" fill="#543e5b"/><path d="m391.434 435.183 10.199-35.372h-63.209l10.198 35.372z" fill="#fcf8ed"/><path d="m348.622 435.183h22.102c-.569-4.156-1.256-9.278-2.036-15.3-2.333-18 15-20.073 15-20.073h-45.263z" fill="#fceca9"/><path d="m504.827 211.785h-84.715c-.166 0-.329-.012-.491-.025v13.634c0 7.283 5.958 13.241 13.241 13.241h59.216c7.282 0 13.241-5.958 13.241-13.241v-13.634c-.163.013-.326.025-.492.025z" fill="#def2fe"/><g><path d="m449.287 225.394v-13.609h-29.175c-.166 0-.329-.012-.491-.025v13.634c0 7.283 5.958 13.241 13.241 13.241h29.667c-7.283 0-13.242-5.959-13.242-13.241z" fill="#c5e2f2"/></g><path d="m420.112 149.085h84.715c.166 0 .329.012.492.025v-32.441c0-7.283-5.958-13.241-13.241-13.241h-59.216c-7.282 0-13.241 5.958-13.241 13.241v32.441c.162-.013.325-.025.491-.025z" fill="#def2fe"/><g><path d="m449.287 116.669c0-7.283 5.958-13.241 13.241-13.241h-29.667c-7.282 0-13.241 5.958-13.241 13.241v32.441c.163-.013.326-.025.491-.025h29.175v-32.416z" fill="#c5e2f2"/></g><path d="m504.827 147.982h-84.715c-3.961 0-7.173 3.211-7.173 7.173v50.561c0 3.961 3.211 7.173 7.173 7.173h84.715c3.962 0 7.173-3.212 7.173-7.173v-50.561c0-3.962-3.211-7.173-7.173-7.173z" fill="#01c8f0"/><path d="m504.827 147.982h-84.715c-3.961 0-7.173 3.211-7.173 7.173v50.561c0 3.961 3.211 7.173 7.173 7.173h84.715c3.962 0 7.173-3.212 7.173-7.173v-50.561c0-3.962-3.211-7.173-7.173-7.173z" fill="#01c8f0"/><path d="m444.438 206.035v-51.2c0-3.174 2.039-5.865 4.875-6.854h-29.201c-3.961 0-7.173 3.212-7.173 7.173v50.561c0 3.962 3.212 7.173 7.173 7.173h29.201c-2.837-.988-4.875-3.679-4.875-6.853z" fill="#03b2ef"/><path d="m113.663 468.349h199.311c5.744 0 10.4-4.656 10.4-10.4v-433.077l-311.655 311.654c17.658 54.944 54.175 101.429 101.944 131.823zm126.675-83.036h-194.036l194.036-194.035z" fill="#01c8f0"/><path d="m323.373 457.949v-78.801c-3.42-2.739-8.021-3.891-12.54-2.661-46.632 12.687-66.126-31.666-69.873-41.649-.179-.478-.393-.939-.622-1.392v51.868h-194.036l130.483-130.482c-1.489-.71-3.096-1.185-4.769-1.364-33.394-3.58-27.979-38.097-27.979-38.097l-5.804-5.358-126.514 126.513c17.657 54.944 54.175 101.429 101.943 131.823h199.311c5.744 0 10.4-4.657 10.4-10.4z" fill="#03b2ef"/><path d="m305.62 8.568-300.911 300.91c2.023 10.186 4.671 20.146 7.914 29.834l310.75-310.75v-12.64c0-9.266-11.202-13.906-17.753-7.354z" fill="#63dfff"/><g fill="#01c8f0"><path d="m120.521 193.666-115.811 115.812c2.022 10.186 4.671 20.146 7.914 29.834l127.528-127.528z"/><path d="m188.346 451.715c0-5.053-4.096-9.149-9.149-9.149s-9.149 4.096-9.149 9.149v16.634h18.298z"/><path d="m139.005 468.349v-16.634c0-5.053-4.096-9.149-9.149-9.149s-9.149 4.096-9.149 9.149v16.634z"/><path d="m277.88 442.566c-5.053 0-9.149 4.096-9.149 9.149v16.634h18.298v-16.634c0-5.054-4.096-9.149-9.149-9.149z"/><path d="m228.538 442.566c-5.053 0-9.149 4.096-9.149 9.149v16.634h18.298v-16.634c.001-5.054-4.096-9.149-9.149-9.149z"/></g><path d="m167.114 179.581c3.558 3.585 9.352 3.61 12.939.049 3.586-3.56 3.608-9.351.049-12.938l-16.241-16.366-12.939 12.939z" fill="#9deafc"/><path d="m95.082 251.062c3.558 3.585 9.352 3.61 12.939.049 3.586-3.559 3.608-9.351.049-12.938l-15.967-16.089-12.939 12.939z" fill="#63dfff"/><path d="m239.146 108.099c3.558 3.585 9.351 3.61 12.939.049 3.586-3.558 3.608-9.352.049-12.938l-16.515-16.641-12.939 12.938z" fill="#9deafc"/><path d="m59.067 286.804c3.558 3.585 9.352 3.61 12.939.049 3.586-3.558 3.608-9.351.049-12.938l-15.831-15.952-12.939 12.939z" fill="#63dfff"/><path d="m275.16 72.357c3.561 3.587 9.353 3.611 12.939.049 3.586-3.558 3.608-9.351.049-12.938l-16.651-16.778-12.939 12.939z" fill="#9deafc"/><path d="m203.129 143.839c3.558 3.585 9.352 3.61 12.939.049 3.586-3.558 3.608-9.352.049-12.938l-16.378-16.503-12.939 12.939z" fill="#9deafc"/><path d="m23.052 322.545c3.558 3.585 9.352 3.61 12.939.049 3.586-3.56 3.608-9.351.05-12.938l-15.694-15.815-12.941 12.94z" fill="#63dfff"/><path d="m144.037 215.37c3.586-3.558 3.608-9.351.049-12.938l-16.104-16.227-12.939 12.939 16.055 16.178c3.558 3.584 9.352 3.609 12.939.048z" fill="#9deafc"/></g></svg>