<svg id="Capa_1" enable-background="new 0 0 501 501" height="512" viewBox="0 0 501 501" width="512" xmlns="http://www.w3.org/2000/svg"><path d="m65.554 416.692c-38.233-43.967-61.047-101.697-60.021-164.771 2.17-133.427 111.807-241.072 245.251-240.921 135.179.154 244.716 109.785 244.716 245 0 61.493-22.655 117.694-60.073 160.714-.596.685-1.657.684-2.262.008-44.863-50.155-110.078-81.722-182.665-81.722-72.577 0-137.783 31.558-182.645 81.7-.616.688-1.695.688-2.301-.008z" fill="#e12929"/><path d="m65.5 120v-62.902c0-4.942 3.611-9.144 8.498-9.886l309.892-47.097c5.735-.872 11.006 3.303 11.47 9.085l8.907 110.8z" fill="#8ed0e1"/><path d="m107 101.237c-21.245-.782-38.065-18.232-38.065-39.492.416-5.078 4.48-9.091 9.563-9.442l331.049-22.279c5.966-.412 11.029 4.321 11.02 10.301l-.116 72.581z" fill="#ade8f0"/><path d="m115.606 460.552c-18.641-12.318-35.5-27.116-50.106-43.923v-356.629h70.82v389.443c0 10.639-11.838 16.974-20.714 11.109z" fill="#d98800"/><path d="m435.5 80v336.629c-44.919 51.69-111.143 84.371-185 84.371-50.317 0-97.092-15.169-136-41.183v-399.817h301c11.046 0 20 8.954 20 20z" fill="#f4aa39"/><path d="m354.5 200v70c0 11.046-8.954 20-20 20h-140c-11.046 0-20-8.954-20-20v-70c0-11.046 8.954-20 20-20h140c11.046 0 20 8.954 20 20z" fill="#f9eecf"/><path d="m314.5 215c0 5.523-4.477 10-10 10h-80c-5.523 0-10-4.477-10-10s4.477-10 10-10h80c5.523 0 10 4.477 10 10zm-20 30h-60c-5.523 0-10 4.477-10 10s4.477 10 10 10h60c5.523 0 10-4.477 10-10s-4.477-10-10-10z" fill="#f1ca50"/></svg>