<svg height="512pt" viewBox="0 0 512 512" width="512pt" xmlns="http://www.w3.org/2000/svg"><path d="m512 256c0 33.140625-6.300781 64.808594-17.761719 93.878906-1.808593 4.601563-3.757812 9.132813-5.828125 13.589844-4.308594 9.3125-9.171875 18.320312-14.53125 26.980469-14.449218 23.378906-32.558594 44.242187-53.527344 61.8125-6.523437 5.476562-13.320312 10.628906-20.371093 15.429687 0 .007813-.011719.007813-.011719.007813-41.019531 27.960937-90.589844 44.300781-143.96875 44.300781-141.378906 0-256-114.621094-256-256s114.621094-256 256-256 256 114.621094 256 256zm0 0" fill="#94d3d1"/><path d="m362.839844 133.914062-24.617188 30.839844c-1.925781 2.414063-5.738281 1.832032-6.863281-1.039062l-3.296875-8.417969c-.808594-2.0625-3.132812-3.074219-5.191406-2.269531l-80.335938 31.476562c-.890625-2.035156-1.738281-4.09375-2.558594-6.179687-.816406-2.085938-1.589843-4.175781-2.320312-6.273438l80.335938-31.472656c2.058593-.808594 3.074218-3.132813 2.265624-5.191406l-3.296874-8.417969c-1.125-2.871094 1.277343-5.886719 4.332031-5.425781l39.011719 5.910156c3.050781.464844 4.453124 4.050781 2.535156 6.460937zm0 0" fill="#8c5841"/><path d="m335.386719 367.941406-39.457031-.292968c-3.089844-.023438-4.988282-3.378907-3.425782-6.039063l4.578125-7.792969c1.121094-1.910156.484375-4.363281-1.425781-5.484375l-74.390625-43.703125c1.046875-1.957031 2.140625-3.898437 3.277344-5.828125 1.132812-1.933593 2.296875-3.832031 3.496093-5.703125l74.394532 43.703125c1.90625 1.121094 4.359375.484375 5.480468-1.421875l4.578126-7.796875c1.5625-2.65625 5.417968-2.632812 6.941406.054688l19.46875 34.320312c1.519531 2.683594-.433594 6.003907-3.515625 5.984375zm0 0" fill="#8c5841"/><path d="m131.675781 254.355469c0 36.359375-29.476562 65.835937-65.835937 65.835937-36.363282 0-65.839844-29.476562-65.839844-65.835937 0-36.363281 29.476562-65.839844 65.839844-65.839844 36.359375 0 65.835937 29.476563 65.835937 65.839844zm0 0" fill="#5d91c9"/><path d="m85.089844 317.328125c-6.089844 1.867187-12.554688 2.863281-19.253906 2.863281-36.359376 0-65.835938-29.476562-65.835938-65.835937 0-36.363281 29.476562-65.835938 65.835938-65.835938 6.699218 0 13.164062.996094 19.253906 2.859375-26.980469 8.230469-46.601563 33.3125-46.601563 62.976563 0 29.660156 19.621094 54.746093 46.601563 62.972656zm0 0" fill="#3d72a3"/><path d="m118.753906 237.933594c0 8.296875-6.730468 15.027344-15.027344 15.027344-8.296874 0-15.023437-6.730469-15.023437-15.027344s6.726563-15.023438 15.023437-15.023438c8.296876 0 15.027344 6.726563 15.027344 15.023438zm0 0" fill="#89bae5"/><path d="m170.492188 156.078125c0 44.164063-35.800782 79.96875-79.964844 79.96875-44.160156 0-79.964844-35.804687-79.964844-79.96875 0-44.160156 35.804688-79.964844 79.964844-79.964844 44.164062 0 79.964844 35.804688 79.964844 79.964844zm0 0" fill="#f73e3e"/><path d="m113.914062 232.566406c-7.398437 2.269532-15.253906 3.476563-23.386718 3.476563-44.164063 0-79.964844-35.796875-79.964844-79.960938 0-44.164062 35.800781-79.964843 79.964844-79.964843 8.132812 0 15.988281 1.207031 23.386718 3.476562-32.769531 9.992188-56.601562 40.457031-56.601562 76.488281 0 36.027344 23.832031 66.492188 56.601562 76.484375zm0 0" fill="#d82525"/><path d="m154.796875 136.136719c0 10.078125-8.167969 18.25-18.25 18.25-10.078125 0-18.25-8.171875-18.25-18.25s8.171875-18.25 18.25-18.25c10.082031 0 18.25 8.171875 18.25 18.25zm0 0" fill="#ff9c9c"/><path d="m284.925781 162.160156c0 35.796875-29.015625 64.8125-64.8125 64.8125-35.792969 0-64.8125-29.015625-64.8125-64.8125s29.019531-64.8125 64.8125-64.8125c35.796875 0 64.8125 29.015625 64.8125 64.8125zm0 0" fill="#5d91c9"/><path d="m239.066406 224.152344c-5.996094 1.839844-12.363281 2.820312-18.953125 2.820312-35.796875 0-64.8125-29.019531-64.8125-64.8125 0-35.796875 29.015625-64.8125 64.8125-64.8125 6.59375 0 12.957031.980469 18.953125 2.816406-26.558594 8.101563-45.875 32.792969-45.875 61.996094 0 29.199219 19.316406 53.894532 45.875 61.992188zm0 0" fill="#3d72a3"/><path d="m272.203125 145.996094c0 8.167968-6.621094 14.789062-14.789063 14.789062-8.171874 0-14.792968-6.621094-14.792968-14.789062 0-8.171875 6.621094-14.792969 14.792968-14.792969 8.167969 0 14.789063 6.621094 14.789063 14.792969zm0 0" fill="#89bae5"/><path d="m495.449219 101.859375c0 35.792969-29.015625 64.8125-64.8125 64.8125-35.792969 0-64.8125-29.019531-64.8125-64.8125 0-35.796875 29.019531-64.8125 64.8125-64.8125 35.796875 0 64.8125 29.015625 64.8125 64.8125zm0 0" fill="#5d91c9"/><path d="m449.59375 163.851562c-5.996094 1.839844-12.363281 2.820313-18.957031 2.820313-35.792969 0-64.8125-29.019531-64.8125-64.8125 0-35.796875 29.019531-64.8125 64.8125-64.8125 6.59375 0 12.960937.980469 18.957031 2.816406-26.5625 8.101563-45.878906 32.792969-45.878906 61.996094 0 29.199219 19.316406 53.894531 45.878906 61.992187zm0 0" fill="#3d72a3"/><path d="m482.730469 85.695312c0 8.167969-6.625 14.789063-14.792969 14.789063s-14.792969-6.621094-14.792969-14.789063c0-8.171874 6.625-14.792968 14.792969-14.792968s14.792969 6.621094 14.792969 14.792968zm0 0" fill="#89bae5"/><path d="m188.433594 339.644531c0 44.160157-35.804688 79.964844-79.964844 79.964844-44.164062 0-79.964844-35.804687-79.964844-79.964844 0-44.164062 35.800782-79.964843 79.964844-79.964843 44.160156 0 79.964844 35.800781 79.964844 79.964843zm0 0" fill="#f73e3e"/><path d="m131.851562 416.132812c-7.398437 2.265626-15.25 3.472657-23.386718 3.472657-44.164063 0-79.960938-35.796875-79.960938-79.960938 0-44.164062 35.796875-79.964843 79.960938-79.964843 8.136718 0 15.988281 1.210937 23.386718 3.476562-32.769531 9.992188-56.601562 40.457031-56.601562 76.488281 0 36.027344 23.832031 66.492188 56.601562 76.488281zm0 0" fill="#d82525"/><path d="m172.738281 319.699219c0 10.078125-8.171875 18.25-18.25 18.25-10.082031 0-18.25-8.171875-18.25-18.25s8.167969-18.25 18.25-18.25c10.078125 0 18.25 8.171875 18.25 18.25zm0 0" fill="#ff9c9c"/><path d="m271.339844 243.222656c0 55.972656-45.378906 101.351563-101.351563 101.351563-55.976562 0-101.351562-45.378907-101.351562-101.351563 0-55.976562 45.375-101.351562 101.351562-101.351562 55.972657 0 101.351563 45.375 101.351563 101.351562zm0 0" fill="#ffbb16"/><path d="m199.625 340.164062c-9.375 2.875-19.328125 4.40625-29.640625 4.40625-55.976563 0-101.347656-45.375-101.347656-101.347656 0-55.976562 45.371093-101.351562 101.347656-101.351562 10.3125 0 20.265625 1.535156 29.640625 4.40625-41.53125 12.667968-71.738281 51.28125-71.738281 96.945312 0 45.664063 30.207031 84.277344 71.738281 96.941406zm0 0" fill="#ff931f"/><path d="m251.445312 217.945312c0 12.773438-10.355468 23.128907-23.128906 23.128907-12.777344 0-23.132812-10.355469-23.132812-23.128907 0-12.773437 10.355468-23.128906 23.132812-23.128906 12.773438 0 23.128906 10.355469 23.128906 23.128906zm0 0" fill="#ffd073"/><path d="m281.992188 340.839844c0 34.742187-28.160157 62.90625-62.902344 62.90625-34.742188 0-62.902344-28.164063-62.902344-62.90625 0-34.738282 28.160156-62.902344 62.902344-62.902344 34.742187 0 62.902344 28.164062 62.902344 62.902344zm0 0" fill="#5d91c9"/><path d="m237.484375 401.007812c-5.816406 1.785157-11.996094 2.734376-18.394531 2.734376-34.742188 0-62.902344-28.160157-62.902344-62.902344 0-34.738282 28.160156-62.902344 62.902344-62.902344 6.398437 0 12.578125.953125 18.394531 2.734375-25.777344 7.863281-44.523437 31.828125-44.523437 60.167969 0 28.34375 18.746093 52.308594 44.523437 60.167968zm0 0" fill="#3d72a3"/><path d="m269.648438 325.152344c0 7.929687-6.429688 14.355468-14.359376 14.355468-7.925781 0-14.355468-6.425781-14.355468-14.355468 0-7.929688 6.429687-14.355469 14.355468-14.355469 7.929688 0 14.359376 6.425781 14.359376 14.355469zm0 0" fill="#89bae5"/><path d="m338.753906 243.222656c0 44.164063-35.804687 79.964844-79.96875 79.964844-44.160156 0-79.964844-35.800781-79.964844-79.964844 0-44.164062 35.804688-79.964844 79.964844-79.964844 44.164063 0 79.96875 35.800782 79.96875 79.964844zm0 0" fill="#f73e3e"/><path d="m282.171875 319.710938c-7.398437 2.265624-15.25 3.476562-23.386719 3.476562-44.164062 0-79.964844-35.800781-79.964844-79.964844 0-44.164062 35.800782-79.964844 79.964844-79.964844 8.136719 0 15.988282 1.210938 23.386719 3.476563-32.769531 9.996094-56.601563 40.460937-56.601563 76.488281s23.832032 66.492188 56.601563 76.488282zm0 0" fill="#d82525"/><path d="m323.058594 223.277344c0 10.082031-8.171875 18.25-18.25 18.25-10.082032 0-18.25-8.167969-18.25-18.25 0-10.078125 8.167968-18.25 18.25-18.25 10.078125 0 18.25 8.171875 18.25 18.25zm0 0" fill="#ff9c9c"/><path d="m494.238281 349.878906c-18.976562 48.109375-52.109375 89.101563-94.269531 117.820313-31.1875-10.910157-53.546875-40.597657-53.546875-75.5 0-44.160157 35.796875-79.960938 79.96875-79.960938 28.621094 0 53.730469 15.042969 67.847656 37.640625zm0 0" fill="#f73e3e"/><path d="m420.351562 452.261719c-6.523437 5.476562-13.320312 10.628906-20.371093 15.429687-31.191407-10.902344-53.558594-40.582031-53.558594-75.492187 0-44.160157 35.796875-79.960938 79.96875-79.960938 8.128906 0 15.988281 1.210938 23.378906 3.472657-32.769531 10-56.597656 40.460937-56.597656 76.488281 0 23.929687 10.507813 45.402343 27.179687 60.0625zm0 0" fill="#d82525"/><path d="m488.410156 363.46875c-4.308594 9.3125-9.171875 18.320312-14.53125 26.980469-.488281.039062-.980468.0625-1.46875.0625-10.082031 0-18.25-8.171875-18.25-18.25 0-10.082031 8.167969-18.25 18.25-18.25 6.890625 0 12.890625 3.816406 16 9.457031zm0 0" fill="#ff9c9c"/></svg>