<svg height="512pt" viewBox="0 0 512 512" width="512pt" xmlns="http://www.w3.org/2000/svg"><path d="m512 256c0 17.628906-1.785156 34.847656-5.183594 51.472656-23.824218 116.714844-127.058594 204.527344-250.816406 204.527344-122.378906 0-224.707031-85.871094-250.003906-200.652344-3.925782-17.824218-5.996094-36.339844-5.996094-55.347656 0-141.386719 114.613281-256 256-256s256 114.613281 256 256zm0 0" fill="#209fbc"/><path d="m506.816406 307.472656c-23.824218 116.714844-127.058594 204.527344-250.816406 204.527344-122.378906 0-224.707031-85.871094-250.003906-200.652344.441406-.011718.878906-.019531 1.316406-.019531 10.953125 0 21.015625 3.886719 28.863281 10.34375 10.605469-22.976563 31.011719-40.488281 55.859375-47.1875-1.464844-4.042969-2.257812-8.402344-2.257812-12.945313 0-21.003906 17.03125-38.035156 38.046875-38.035156 15.273437 0 28.449219 9.015625 34.5 22.015625 9.824219-6.175781 21.453125-9.757812 33.917969-9.757812 13.898437 0 26.761718 4.449219 37.242187 12.003906 7.855469-13.582031 22.527344-22.738281 39.347656-22.738281 19.1875 0 35.578125 11.894531 42.246094 28.707031 9.476563-5.582031 20.523437-8.789063 32.308594-8.789063 18.546875 0 35.246093 7.921876 46.90625 20.554688 5.621093-13.992188 19.308593-23.867188 35.304687-23.867188 21.015625 0 38.046875 17.03125 38.046875 38.035157 0 3.824219-.574219 7.511719-1.621093 10.992187 15.203124 2.003906 29.152343 7.960938 40.792968 16.8125zm0 0" fill="#f0f3ff"/><g fill="#cad1f0"><path d="m28.242188 357.792969c0-47.65625 38.640624-86.296875 86.300781-86.296875 5.265625 0 10.425781.46875 15.433593 1.378906-31.898437 5.757812-57.707031 29.050781-67.074218 59.542969-4.601563 14.96875-18.160156 25.375-33.820313 25.375zm0 0"/><path d="m368.328125 376.171875c0-47.65625 38.628906-86.285156 86.285156-86.285156 5.433594 0 10.742188.5 15.894531 1.460937-31.453124 5.847656-56.910156 28.753906-66.40625 58.757813-4.925781 15.558593-19.453124 26.066406-35.773437 26.066406zm0 0"/><path d="m115.054688 412.9375c0-47.65625 38.628906-86.285156 86.289062-86.285156 5.433594 0 10.738281.5 15.890625 1.460937-31.449219 5.847657-56.910156 28.753907-66.40625 58.757813-4.925781 15.558594-19.453125 26.066406-35.773437 26.066406zm0 0"/><path d="m227.363281 482.585938c0-47.660157 38.628907-86.289063 86.285157-86.289063 5.433593 0 10.742187.503906 15.894531 1.464844-31.453125 5.847656-56.910157 28.75-66.410157 58.753906-4.925781 15.5625-19.449218 26.070313-35.769531 26.070313zm0 0"/><path d="m132.410156 299.582031c0-35.253906 28.578125-63.820312 63.832032-63.820312 4.355468 0 8.609374.4375 12.714843 1.261719-22.410156 4.527343-40.5625 20.777343-47.769531 42.082031-4.160156 12.289062-15.804688 20.476562-28.777344 20.476562zm0 0"/><path d="m283.554688 308.777344c0-35.253906 28.578124-63.832032 63.832031-63.832032 3.550781 0 7.042969.292969 10.4375.847657-24.507813 4.03125-44.316407 22.03125-50.976563 45.554687-2.933594 10.367188-12.523437 17.429688-23.292968 17.429688zm0 0"/><path d="m89.777344 261.539062c0-21.003906 17.03125-38.035156 38.046875-38.035156 3.207031 0 6.320312.398438 9.296875 1.148438-11.863282 2.980468-21.519532 11.539062-26.011719 22.726562-3.390625 8.449219-11.371094 14.160156-20.480469 14.160156zm0 0"/><path d="m391.554688 279.667969c0-21.003907 17.03125-38.035157 38.042968-38.035157 2.886719 0 5.695313.324219 8.402344.929688-12.652344 2.851562-22.917969 11.996094-27.324219 23.972656-2.929687 7.953125-10.644531 13.132813-19.121093 13.132813zm0 0"/><path d="m227.390625 270.480469c0-25.097657 20.34375-45.453125 45.441406-45.453125 3.355469 0 6.617188.367187 9.761719 1.058594-15.308594 3.34375-27.726562 14.414062-32.976562 28.914062-3.332032 9.195312-11.855469 15.480469-21.636719 15.480469zm0 0"/><path d="m205.503906 353.535156c0-25.097656 20.34375-45.453125 45.445313-45.453125 3.351562 0 6.613281.367188 9.757812 1.054688-15.304687 3.347656-27.722656 14.414062-32.976562 28.914062-3.332031 9.199219-11.855469 15.484375-21.636719 15.484375zm0 0"/></g><path d="m381.144531 275.867188c0 7.144531-5.789062 12.9375-12.933593 12.9375-7.144532 0-12.9375-5.792969-12.9375-12.9375 0-7.144532 5.792968-12.933594 12.9375-12.933594 7.144531 0 12.933593 5.789062 12.933593 12.933594zm0 0" fill="#fff"/><path d="m278.113281 337.371094c0 7.144531-5.792969 12.933594-12.9375 12.933594s-12.933593-5.789063-12.933593-12.933594c0-7.144532 5.789062-12.9375 12.933593-12.9375s12.9375 5.792968 12.9375 12.9375zm0 0" fill="#fff"/><path d="m336.324219 432.332031c0 7.144531-5.792969 12.9375-12.9375 12.9375s-12.933594-5.792969-12.933594-12.9375 5.789063-12.9375 12.933594-12.9375 12.9375 5.792969 12.9375 12.9375zm0 0" fill="#fff"/><path d="m492.574219 326.136719c0 7.144531-5.789063 12.9375-12.933594 12.9375s-12.9375-5.792969-12.9375-12.9375 5.792969-12.9375 12.9375-12.9375 12.933594 5.792969 12.933594 12.9375zm0 0" fill="#fff"/><path d="m222.839844 260.4375c0 7.144531-5.792969 12.933594-12.9375 12.933594-7.144532 0-12.9375-5.789063-12.9375-12.933594s5.792968-12.9375 12.9375-12.9375c7.144531 0 12.9375 5.792969 12.9375 12.9375zm0 0" fill="#fff"/><path d="m127.519531 310.363281c0 7.144531-5.789062 12.9375-12.933593 12.9375-7.144532 0-12.9375-5.792969-12.9375-12.9375s5.792968-12.933593 12.9375-12.933593c7.144531 0 12.933593 5.789062 12.933593 12.933593zm0 0" fill="#fff"/><path d="m458.082031 263.582031c0 4.746094-3.847656 8.59375-8.59375 8.59375-4.746093 0-8.59375-3.847656-8.59375-8.59375 0-4.746093 3.847657-8.59375 8.59375-8.59375 4.746094 0 8.59375 3.847657 8.59375 8.59375zm0 0" fill="#fff"/><path d="m150.992188 244.777344c0 4.746094-3.847657 8.59375-8.59375 8.59375-4.746094 0-8.59375-3.847656-8.59375-8.59375s3.847656-8.59375 8.59375-8.59375c4.746093 0 8.59375 3.847656 8.59375 8.59375zm0 0" fill="#fff"/><path d="m299.867188 247.953125c0 4.746094-3.847657 8.59375-8.59375 8.59375-4.746094 0-8.59375-3.847656-8.59375-8.59375s3.847656-8.59375 8.59375-8.59375c4.746093 0 8.59375 3.847656 8.59375 8.59375zm0 0" fill="#fff"/><path d="m333.605469 101.972656c0 29.839844-21.515625 54.65625-49.875 59.789063-3.542969.636719-7.175781.96875-10.898438.96875-33.5625 0-60.757812-27.195313-60.757812-60.757813s27.195312-60.761718 60.757812-60.761718c3.722657 0 7.355469.335937 10.898438.972656 28.359375 5.128906 49.875 29.945312 49.875 59.789062zm0 0" fill="#cad1f0"/><path d="m333.605469 101.972656c0 29.839844-21.515625 54.65625-49.875 59.789063-28.355469-5.132813-49.871094-29.949219-49.871094-59.789063 0-29.84375 21.515625-54.660156 49.871094-59.789062 28.359375 5.128906 49.875 29.945312 49.875 59.789062zm0 0" fill="#f0f3ff"/><path d="m317.144531 81.148438c0 7.144531-5.789062 12.9375-12.933593 12.9375-7.144532 0-12.9375-5.792969-12.9375-12.9375 0-7.144532 5.792968-12.933594 12.9375-12.933594 7.144531 0 12.933593 5.789062 12.933593 12.933594zm0 0" fill="#fff"/><path d="m128.316406 85.878906c0 24.070313-17.355468 44.085938-40.226562 48.222656-2.859375.515626-5.792969.785157-8.792969.785157-27.070313 0-49.007813-21.941407-49.007813-49.007813 0-27.070312 21.9375-49.007812 49.007813-49.007812 3 0 5.933594.269531 8.792969.78125 22.871094 4.136718 40.226562 24.15625 40.226562 48.226562zm0 0" fill="#cad1f0"/><path d="m128.316406 85.878906c0 24.070313-17.355468 44.085938-40.226562 48.222656-22.875-4.136718-40.226563-24.152343-40.226563-48.222656 0-24.070312 17.351563-44.089844 40.226563-48.226562 22.871094 4.136718 40.226562 24.15625 40.226562 48.226562zm0 0" fill="#f0f3ff"/><path d="m115.039062 69.082031c0 5.761719-4.671874 10.433594-10.433593 10.433594s-10.433594-4.671875-10.433594-10.433594 4.671875-10.433593 10.433594-10.433593 10.433593 4.671874 10.433593 10.433593zm0 0" fill="#fff"/><path d="m492.648438 140.003906c0 19.933594-14.371094 36.507813-33.3125 39.9375-2.367188.421875-4.792969.648438-7.28125.648438-22.417969 0-40.582032-18.167969-40.582032-40.585938 0-22.417968 18.167969-40.585937 40.582032-40.585937 2.488281 0 4.914062.222656 7.28125.648437 18.941406 3.425782 33.3125 20.003906 33.3125 39.9375zm0 0" fill="#cad1f0"/><path d="m492.648438 140.003906c0 19.933594-14.371094 36.507813-33.3125 39.9375-18.941407-3.429687-33.3125-20.003906-33.3125-39.9375s14.371093-36.511718 33.3125-39.9375c18.941406 3.425782 33.3125 20.003906 33.3125 39.9375zm0 0" fill="#f0f3ff"/><path d="m481.65625 126.09375c0 4.773438-3.871094 8.640625-8.640625 8.640625-4.773437 0-8.640625-3.867187-8.640625-8.640625 0-4.769531 3.867188-8.640625 8.640625-8.640625 4.769531 0 8.640625 3.871094 8.640625 8.640625zm0 0" fill="#fff"/><path d="m197.757812 162.773438c0 8.273437-5.960937 15.152343-13.824218 16.574218-.980469.175782-1.988282.269532-3.019532.269532-9.300781 0-16.84375-7.539063-16.84375-16.84375 0-9.300782 7.539063-16.839844 16.84375-16.839844 1.03125 0 2.039063.09375 3.019532.269531 7.863281 1.421875 13.824218 8.300781 13.824218 16.570313zm0 0" fill="#cad1f0"/><path d="m197.757812 162.773438c0 8.273437-5.960937 15.152343-13.824218 16.574218-7.859375-1.421875-13.820313-8.300781-13.820313-16.574218 0-8.269532 5.960938-15.148438 13.820313-16.570313 7.863281 1.421875 13.824218 8.300781 13.824218 16.570313zm0 0" fill="#f0f3ff"/><path d="m193.199219 157.003906c0 1.980469-1.605469 3.585938-3.585938 3.585938-1.984375 0-3.589843-1.605469-3.589843-3.585938 0-1.980468 1.605468-3.585937 3.589843-3.585937 1.980469 0 3.585938 1.605469 3.585938 3.585937zm0 0" fill="#fff"/><path d="m412.738281 43.914062c0 8.273438-5.964843 15.152344-13.824219 16.574219-.984374.175781-1.992187.269531-3.023437.269531-9.300781 0-16.839844-7.539062-16.839844-16.84375 0-9.304687 7.539063-16.84375 16.839844-16.84375 1.03125 0 2.039063.09375 3.023437.273438 7.859376 1.421875 13.824219 8.296875 13.824219 16.570312zm0 0" fill="#cad1f0"/><path d="m412.738281 43.914062c0 8.273438-5.964843 15.152344-13.824219 16.574219-7.863281-1.421875-13.824218-8.300781-13.824218-16.574219 0-8.273437 5.960937-15.148437 13.824218-16.570312 7.859376 1.421875 13.824219 8.296875 13.824219 16.570312zm0 0" fill="#f0f3ff"/><path d="m408.175781 38.144531c0 1.980469-1.605469 3.585938-3.585937 3.585938-1.980469 0-3.585938-1.605469-3.585938-3.585938s1.605469-3.585937 3.585938-3.585937c1.980468 0 3.585937 1.605468 3.585937 3.585937zm0 0" fill="#fff"/><path d="m396.445312 182.929688c0 8.269531-5.964843 15.148437-13.824218 16.570312-.984375.179688-1.988282.269531-3.019532.269531-9.304687 0-16.84375-7.539062-16.84375-16.839843 0-9.304688 7.539063-16.84375 16.84375-16.84375 1.03125 0 2.035157.09375 3.019532.269531 7.859375 1.421875 13.824218 8.300781 13.824218 16.574219zm0 0" fill="#cad1f0"/><path d="m396.445312 182.929688c0 8.269531-5.964843 15.148437-13.824218 16.570312-7.859375-1.421875-13.824219-8.300781-13.824219-16.570312 0-8.273438 5.964844-15.152344 13.824219-16.574219 7.859375 1.421875 13.824218 8.300781 13.824218 16.574219zm0 0" fill="#f0f3ff"/><path d="m391.882812 177.15625c0 1.980469-1.605468 3.585938-3.585937 3.585938s-3.585937-1.605469-3.585937-3.585938 1.605468-3.585938 3.585937-3.585938 3.585937 1.605469 3.585937 3.585938zm0 0" fill="#fff"/><path d="m84.035156 207.484375c0 12.949219-9.335937 23.714844-21.640625 25.941406-1.539062.277344-3.117187.421875-4.730469.421875-14.5625 0-26.363281-11.800781-26.363281-26.363281s11.800781-26.367187 26.363281-26.367187c1.613282 0 3.191407.148437 4.730469.421874 12.304688 2.226563 21.640625 12.996094 21.640625 25.945313zm0 0" fill="#cad1f0"/><path d="m84.035156 207.484375c0 12.949219-9.335937 23.714844-21.640625 25.941406-12.304687-2.226562-21.640625-12.992187-21.640625-25.941406s9.335938-23.71875 21.640625-25.945313c12.304688 2.226563 21.640625 12.996094 21.640625 25.945313zm0 0" fill="#f0f3ff"/><path d="m76.894531 198.449219c0 3.097656-2.511719 5.613281-5.613281 5.613281s-5.613281-2.515625-5.613281-5.613281c0-3.101563 2.511719-5.613281 5.613281-5.613281s5.613281 2.511718 5.613281 5.613281zm0 0" fill="#fff"/></svg>