<svg height="512pt" viewBox="0 0 512 512" width="512pt" xmlns="http://www.w3.org/2000/svg"><path d="m512 256c0 18.140625-1.890625 35.828125-5.484375 52.894531v.007813c-15.683594 74.691406-63.9375 137.40625-129.214844 172.585937-2.757812 1.484375-5.546875 2.925781-8.359375 4.304688-34.0625 16.78125-72.398437 26.207031-112.941406 26.207031s-78.878906-9.425781-112.953125-26.207031c-6.269531-3.082031-12.402344-6.425781-18.371094-10-25.859375-15.472657-48.765625-35.398438-67.644531-58.699219-25.066406-30.921875-43.070312-67.804688-51.546875-108.191406-3.59375-17.0625-5.484375-34.761719-5.484375-52.902344 0-141.386719 114.613281-256 256-256s256 114.613281 256 256zm0 0" fill="#663a91"/><path d="m394.304688 151.128906c0 76.386719-61.921876 138.308594-138.308594 138.308594-76.386719 0-138.308594-61.921875-138.308594-138.308594 0-76.386718 61.921875-138.308594 138.308594-138.308594 76.386718 0 138.308594 61.921876 138.308594 138.308594zm0 0" fill="#fdae2f"/><path d="m394.304688 151.128906c0 69.894532-51.828126 127.667969-119.148438 136.996094-67.324219-9.320312-119.160156-67.101562-119.160156-136.996094 0-69.882812 51.835937-127.664062 119.160156-136.984375 67.320312 9.328125 119.148438 67.101563 119.148438 136.984375zm0 0" fill="#fecf32"/><path d="m506.515625 308.894531s.007813 0 0 .007813c-15.683594 74.691406-63.9375 137.40625-129.214844 172.585937-2.757812 1.484375-5.546875 2.925781-8.359375 4.304688-74.1875-2.496094-133.558594-63.425781-133.558594-138.230469 0-76.378906 61.921876-138.300781 138.304688-138.300781 62.953125 0 116.097656 42.066406 132.828125 99.632812zm0 0" fill="#dd104f"/><path d="m276.617188 347.5625c0 69.894531-51.828126 127.667969-119.152344 137-4.730469.65625-9.550782 1.074219-14.417969 1.230469-69.496094-34.21875-121.21875-99.042969-137.5625-176.890625 16.71875-57.574219 69.851563-99.640625 132.816406-99.640625 6.5 0 12.90625.449219 19.164063 1.316406 67.324218 9.332031 119.152344 67.101563 119.152344 136.984375zm0 0" fill="#17a388"/><path d="m506.515625 308.902344c-15.683594 74.691406-63.9375 137.40625-129.214844 172.585937-59.589843-15.390625-103.609375-69.515625-103.609375-133.925781 0-69.882812 51.835938-127.664062 119.160156-136.984375 54.394532 7.542969 98.667969 46.695313 113.664063 98.324219zm0 0" fill="#fb3a4a"/><path d="m276.617188 347.5625c0 69.894531-51.828126 127.667969-119.152344 137-11.441406-1.589844-22.433594-4.566406-32.789063-8.769531-25.859375-15.472657-48.765625-35.398438-67.644531-58.699219-11.914062-20.429688-18.726562-44.179688-18.726562-69.53125 0-69.882812 51.839843-127.664062 119.160156-136.984375 67.324218 9.332031 119.152344 67.101563 119.152344 136.984375zm0 0" fill="#3fc37c"/><path d="m94.382812 306.476562c0 10.6875-8.664062 19.351563-19.351562 19.351563s-19.351562-8.664063-19.351562-19.351563 8.664062-19.351562 19.351562-19.351562 19.351562 8.664062 19.351562 19.351562zm0 0" fill="#2f373b"/><path d="m220.929688 306.476562c0 10.6875-8.664063 19.351563-19.351563 19.351563s-19.351563-8.664063-19.351563-19.351563 8.664063-19.351562 19.351563-19.351562 19.351563 8.664062 19.351563 19.351562zm0 0" fill="#2f373b"/><path d="m90.4375 303.058594c0 4.582031-3.710938 8.292968-8.289062 8.292968-4.582032 0-8.292969-3.710937-8.292969-8.292968 0-4.578125 3.710937-8.289063 8.292969-8.289063 4.578124 0 8.289062 3.710938 8.289062 8.289063zm0 0" fill="#fff"/><path d="m217.933594 303.058594c0 4.582031-3.710938 8.292968-8.292969 8.292968-4.578125 0-8.289063-3.710937-8.289063-8.292968 0-4.578125 3.710938-8.289063 8.289063-8.289063 4.582031 0 8.292969 3.710938 8.292969 8.289063zm0 0" fill="#fff"/><path d="m329.765625 306.476562c0 10.6875-8.664063 19.351563-19.351563 19.351563s-19.351562-8.664063-19.351562-19.351563 8.664062-19.351562 19.351562-19.351562 19.351563 8.664062 19.351563 19.351562zm0 0" fill="#2f373b"/><path d="m456.3125 306.476562c0 10.6875-8.664062 19.351563-19.351562 19.351563s-19.351563-8.664063-19.351563-19.351563 8.664063-19.351562 19.351563-19.351562 19.351562 8.664062 19.351562 19.351562zm0 0" fill="#2f373b"/><path d="m325.820312 303.058594c0 4.582031-3.710937 8.292968-8.289062 8.292968-4.582031 0-8.292969-3.710937-8.292969-8.292968 0-4.578125 3.710938-8.289063 8.292969-8.289063 4.578125 0 8.289062 3.710938 8.289062 8.289063zm0 0" fill="#fff"/><path d="m453.316406 303.058594c0 4.582031-3.710937 8.292968-8.292968 8.292968-4.578126 0-8.289063-3.710937-8.289063-8.292968 0-4.578125 3.710937-8.289063 8.289063-8.289063 4.582031 0 8.292968 3.710938 8.292968 8.289063zm0 0" fill="#fff"/><path d="m212.074219 106.164062c0 10.6875-8.664063 19.351563-19.351563 19.351563s-19.351562-8.664063-19.351562-19.351563 8.664062-19.351562 19.351562-19.351562 19.351563 8.664062 19.351563 19.351562zm0 0" fill="#2f373b"/><path d="m338.621094 106.164062c0 10.6875-8.664063 19.351563-19.351563 19.351563s-19.351562-8.664063-19.351562-19.351563 8.664062-19.351562 19.351562-19.351562 19.351563 8.664062 19.351563 19.351562zm0 0" fill="#2f373b"/><g fill="#fff"><path d="m208.132812 102.75c0 4.578125-3.714843 8.292969-8.292968 8.292969-4.582032 0-8.292969-3.714844-8.292969-8.292969s3.710937-8.292969 8.292969-8.292969c4.578125 0 8.292968 3.714844 8.292968 8.292969zm0 0"/><path d="m335.625 102.75c0 4.578125-3.710938 8.292969-8.289062 8.292969-4.582032 0-8.292969-3.714844-8.292969-8.292969s3.710937-8.292969 8.292969-8.292969c4.578124 0 8.289062 3.714844 8.289062 8.292969zm0 0"/><path d="m82.058594 351.890625c0 31.0625 25.183594 56.246094 56.246094 56.246094s56.246093-25.183594 56.246093-56.246094"/></g><path d="m424.882812 395.253906c-3.964843 0-7.757812-2.269531-9.511718-6.113281-7.425782-16.28125-23.789063-26.800781-41.683594-26.800781s-34.253906 10.519531-41.683594 26.800781c-2.394531 5.25-8.59375 7.566406-13.84375 5.171875s-7.5625-8.59375-5.167968-13.84375c10.8125-23.710938 34.636718-39.027344 60.695312-39.027344 26.054688 0 49.878906 15.316406 60.695312 39.027344 2.394532 5.25.082032 11.449219-5.171874 13.84375-1.402344.640625-2.875.941406-4.328126.941406zm0 0" fill="#dd104f"/><path d="m307.199219 175.824219h-102.40625c-5.769531 0-10.449219-4.675781-10.449219-10.445313 0-5.773437 4.679688-10.449218 10.449219-10.449218h102.40625c5.773437 0 10.449219 4.675781 10.449219 10.449218 0 5.769532-4.675782 10.445313-10.449219 10.445313zm0 0" fill="#fdae2f"/></svg>