<svg height="512pt" viewBox="-11 0 512 512" width="512pt" xmlns="http://www.w3.org/2000/svg"><path d="m490 267c0 135.308594-109.691406 245-245 245s-245-109.691406-245-245 109.691406-245 245-245 245 109.691406 245 245zm0 0" fill="#5e73dd"/><path d="m421.222656 437.1875c20.347656-65.648438 2.8125-139.148438-49.40625-188.59375-25.121094-23.785156-45.015625-52.632812-56.804687-85.15625-7.011719-19.332031-11.960938-39.246094-11.960938-56.9375h-116.074219c0 17.691406-4.953124 37.605469-11.960937 56.9375-11.792969 32.53125-31.703125 61.378906-56.824219 85.175781-51.667968 48.9375-69.882812 122.074219-49.507812 188.476563 44.554687 46.179687 107.078125 74.910156 176.316406 74.910156 69.191406 0 131.671875-28.691406 176.222656-74.8125zm0 0" fill="#95d6fc"/><path d="m175.015625 163.4375c-11.792969 32.53125-31.703125 61.378906-56.824219 85.175781-51.671875 48.941407-69.882812 122.078125-49.507812 188.476563 37.867187 39.246094 88.703125 65.886718 145.617187 73-50.367187-27.234375-82.390625-83.644532-76.304687-145.078125 3.996094-40.332031 17.941406-79.636719 42.652344-110.917969 19.554687-24.746094 34.921874-54.648438 43.828124-88.261719 5.160157-19.464843 8.753907-39.472656 8.730469-57.335937h-46.265625c-.351562 17.1875-5.179687 36.332031-11.925781 54.941406zm0 0" fill="#73ccf9"/><path d="m300.328125 0c-16.875 0-93.253906 0-110.628906 0-6.480469 0-11.332031 6.589844-10.039063 13.632812l21.785156 118.722657c1.128907 6.15625 6.007813 10.582031 11.671876 10.582031h63.792968c5.660156 0 10.539063-4.425781 11.671875-10.582031l21.785157-118.722657c1.292968-7.042968-3.558594-13.632812-10.039063-13.632812zm0 0" fill="#a0391e"/><path d="m243.328125 132.355469-21.785156-118.722657c-1.292969-7.042968 3.558593-13.632812 10.035156-13.632812-18.363281 0-34.894531 0-41.878906 0-6.480469 0-11.332031 6.589844-10.039063 13.632812l21.785156 118.722657c1.128907 6.15625 6.007813 10.578125 11.671876 10.578125h41.882812c-5.664062.003906-10.542969-4.421875-11.671875-10.578125zm0 0" fill="#84260d"/><path d="m255.652344 9.65625c0 8.628906 6.992187 15.621094 15.621094 15.621094 8.628906 0 15.621093-6.992188 15.621093-15.621094 0-3.648438-1.261719-6.996094-3.359375-9.65625-7.113281 0-15.589844 0-24.527344 0-2.09375 2.660156-3.355468 6.007812-3.355468 9.65625zm0 0" fill="#bc4c2e"/><path d="m247.328125 66.882812c0 8.628907-6.996094 15.621094-15.621094 15.621094-8.628906 0-15.621093-6.992187-15.621093-15.621094 0-8.628906 6.992187-15.621093 15.621093-15.621093 8.625 0 15.621094 6.992187 15.621094 15.621093zm0 0" fill="#bc4c2e"/><path d="m368.324219 304.597656c-.863281.050782-1.769531.074219-2.71875.074219-20.363281 0-20.363281-11.570313-40.722657-11.570313-20.359374 0-20.359374 11.570313-40.71875 11.570313-11.847656 0-16.800781-3.917969-22.886718-7.191406-3.183594-1.714844-4.0625-5.9375-1.703125-8.679688 3.871093-4.5 5.972656-10.5625 5.210937-17.121093-1.171875-10.144532-9.386718-18.320313-19.535156-19.449219-13.425781-1.492188-24.789062 8.976562-24.789062 22.101562 0 5.746094 2.183593 10.976563 5.769531 14.917969 2.457031 2.703125 1.585937 7-1.605469 8.777344-5.65625 3.148437-10.699219 6.644531-21.894531 6.644531-20.359375 0-20.359375-11.570313-40.714844-11.570313s-20.355469 11.570313-40.710937 11.570313c-.070313 0-.144532 0-.210938 0-10.9375-.042969-20.988281 6.265625-25.160156 16.375-20.445313 49.558594-14.988282 106.121094 14.375 150.617187 38.648437 25.488282 84.933594 40.335938 134.691406 40.335938 49.601562 0 95.753906-14.757812 134.328125-40.097656 30.507813-45.714844 34.667969-102.832032 15.011719-150.703125-4.296875-10.460938-14.722656-17.226563-26.015625-16.601563zm0 0" fill="#6c83e5"/><path d="m137.996094 365.011719c2.457031-24.808594 8.6875-49.226563 18.863281-71.632813-15.375 1.761719-17.082031 11.292969-35.554687 11.292969-.074219 0-.144532 0-.214844 0-10.9375-.042969-20.984375 6.265625-25.15625 16.375-20.449219 49.5625-14.988282 106.125 14.375 150.617187 30.574218 20.164063 65.921875 33.664063 103.992187 38.425782-50.367187-27.234375-82.390625-83.644532-76.304687-145.078125zm0 0" fill="#5e73dd"/><path d="m313.570312 115.535156h-137.117187c-11.183594 0-20.25-9.066406-20.25-20.25s9.066406-20.25 20.25-20.25h137.117187c11.183594 0 20.25 9.066406 20.25 20.25s-9.066406 20.25-20.25 20.25zm0 0" fill="#95d6fc"/><path d="m333.820312 95.285156c0-11.183594-9.066406-20.25-20.25-20.25h-61.613281c-11.183593 0-20.25 9.066406-20.25 20.25s9.066407 20.25 20.25 20.25h61.613281c11.183594 0 20.25-9.066406 20.25-20.25zm0 0" fill="#c3e9fc"/><path d="m297.511719 208.691406c0 11.546875-9.359375 20.90625-20.902344 20.90625-11.546875 0-20.90625-9.359375-20.90625-20.90625 0-11.542968 9.359375-20.902344 20.90625-20.902344 11.542969 0 20.902344 9.359376 20.902344 20.902344zm0 0" fill="#5e73dd"/><path d="m297.511719 208.691406c0 11.546875-9.359375 20.90625-20.902344 20.90625-11.546875 0-20.90625-9.359375-20.90625-20.90625 0-11.542968 9.359375-20.902344 20.90625-20.902344 11.542969 0 20.902344 9.359376 20.902344 20.902344zm0 0" fill="#6c83e5"/><g fill="#5e73dd"><path d="m191.988281 263.734375c-4.832031 0-8.679687-3.945313-8.679687-8.679687 0-5.566407 5.140625-9.585938 10.378906-8.507813 3.902344.746094 6.976562 4.261719 6.976562 8.507813 0 4.671874-3.785156 8.679687-8.675781 8.679687zm0 0"/><path d="m255.699219 409.546875c-6.261719 0-11.570313-5.117187-11.570313-11.574219 0-7.308594 6.753906-12.777344 13.839844-11.351562 5.355469 1.085937 9.300781 5.765625 9.300781 11.351562 0 6.46875-5.285156 11.574219-11.570312 11.574219zm0 0"/><path d="m293.710938 219.539062c-11.546876 0-20.902344-9.359374-20.902344-20.90625 0-3.957031 1.121094-7.648437 3.03125-10.804687-11.183594.40625-20.132813 9.578125-20.132813 20.863281 0 11.546875 9.359375 20.90625 20.902344 20.90625 7.585937 0 14.207031-4.054687 17.871094-10.097656-.257813.007812-.511719.039062-.769531.039062zm0 0"/><path d="m245.644531 453.953125c0 12.625-10.234375 22.859375-22.859375 22.859375-12.621094 0-22.855468-10.234375-22.855468-22.859375 0-12.621094 10.234374-22.855469 22.855468-22.855469 12.625 0 22.859375 10.234375 22.859375 22.855469zm0 0"/></g><path d="m241.484375 465.8125c-12.621094 0-22.855469-10.234375-22.855469-22.859375 0-4.328125 1.226563-8.363281 3.316406-11.8125-12.230468.445313-22.015624 10.472656-22.015624 22.8125 0 12.625 10.234374 22.855469 22.859374 22.855469 8.292969 0 15.53125-4.429688 19.539063-11.039063-.28125.007813-.558594.042969-.84375.042969zm0 0" fill="#4d69ce"/><path d="m216.078125 363.039062c0 8.570313-6.945313 15.519532-15.515625 15.519532s-15.515625-6.949219-15.515625-15.519532c0-8.570312 6.945313-15.515624 15.515625-15.515624s15.515625 6.945312 15.515625 15.515624zm0 0" fill="#5e73dd"/><path d="m213.257812 371.089844c-8.570312 0-15.519531-6.945313-15.519531-15.515625 0-2.941407.832031-5.679688 2.253907-8.023438-8.304688.304688-14.949219 7.113281-14.949219 15.488281 0 8.570313 6.949219 15.519532 15.519531 15.519532 5.628906 0 10.542969-3.011719 13.261719-7.496094-.1875.003906-.375.027344-.566407.027344zm0 0" fill="#4d69ce"/></svg>