<?xml version="1.0" encoding="iso-8859-1"?>
<!-- Generator: Adobe Illustrator 19.0.0, SVG Export Plug-In . SVG Version: 6.00 Build 0)  -->
<svg xmlns="http://www.w3.org/2000/svg" xmlns:xlink="http://www.w3.org/1999/xlink" version="1.1" id="Layer_1" x="0px" y="0px" viewBox="0 0 490 490" style="enable-background:new 0 0 490 490;" xml:space="preserve" width="512" height="512">
<g>
	<path style="fill:#27BA9E;" d="M490,245c0,78.62-37.03,148.58-94.6,193.41c-24.44,19.04-52.58,33.54-83.17,42.25   c-5.91,1.68-11.9,3.15-17.98,4.39h-0.01c-3.81,0.77-7.65,1.46-11.52,2.05c-12.29,1.91-24.89,2.9-37.72,2.9   c-11.89,0-23.58-0.85-35.02-2.49c-11.17-1.6-22.09-3.95-32.73-7.01c0,0,0,0.01-0.01,0c-0.96-0.27-1.92-0.55-2.88-0.84   c-15.24-4.58-29.87-10.61-43.71-17.92c-16-8.46-30.95-18.64-44.61-30.31C33.39,386.5,0,319.65,0,245C0,109.69,109.69,0,245,0   S490,109.69,490,245z"/>
	<path style="fill:#FFEDD4;" d="M427.27,408.71C382.43,458.62,317.38,490,245,490c-73.08,0-138.69-32-183.58-82.75   c-4.7-82.76-3.59-165.54,3.31-248.31c1.82-21.9,19.09-39.34,40.98-41.34c6.29-0.57,18.87-52.9,18.87-52.9h247.59   c0,0,2.65,19.21,5.55,34.48c1.9,9.99,3.9,18.29,5.34,18.42c21.89,2,39.16,19.44,40.98,41.34   C430.98,242.2,432.06,325.46,427.27,408.71z"/>
	<path style="fill:#FFD19C;" d="M188.1,64.7c0,0-5.91,52.33-8.87,52.9c-10.28,2-18.39,19.44-19.25,41.34   c-3.87,98.56-3.87,197.12,0,295.67c0.31,7.94,1.57,15.28,3.55,21.52c-39.73-14.01-74.76-37.96-102.11-68.88   c-4.7-82.76-3.59-165.54,3.31-248.31c1.83-21.9,19.1-39.34,40.99-41.34c6.29-0.57,18.87-52.9,18.87-52.9H188.1z"/>
	<path style="fill:#FFD19C;" d="M377.72,99.18H138.83V64.7h233.34C372.17,64.7,374.82,83.91,377.72,99.18z"/>
	<g>
		<path style="fill:#FFA733;" d="M413.31,351.68c0,28.66-19.35,52.81-45.7,60.08c-5.29,1.46-10.86,2.24-16.62,2.24    c-34.42,0-62.32-27.9-62.32-62.32s27.9-62.32,62.32-62.32c5.76,0,11.33,0.78,16.62,2.24    C393.96,298.87,413.31,323.02,413.31,351.68z"/>
		<path style="fill:#FBE073;" d="M413.31,351.68c0,28.66-19.35,52.81-45.7,60.08c-26.36-7.271-45.71-31.41-45.71-60.08    s19.35-52.81,45.71-60.08C393.96,298.87,413.31,323.02,413.31,351.68z"/>
	</g>
	<path style="fill:#E63D73;" d="M393.56,64.52c-2.29,10.96-11.75,18.98-22.95,19.25c-63.22,1.54-126.45,1.92-189.67,1.15   c-20.92-0.26-41.85-0.64-62.78-1.15c-11.2-0.27-20.66-8.29-22.95-19.25c-2.39-11.42-2.39-22.84,0-34.26   c2.29-10.96,11.75-18.98,22.95-19.25c20.93-0.51,41.86-0.89,62.78-1.15c63.22-0.77,126.45-0.39,189.67,1.15   c11.2,0.27,20.66,8.29,22.95,19.25C395.95,41.68,395.95,53.1,393.56,64.52z"/>
	<path style="fill:#FC6C9C;" d="M393.56,64.52c-2.29,10.96-11.75,18.98-22.95,19.25c-63.22,1.54-126.45,1.92-189.67,1.15   c-9.53-2.12-17.13-9.71-19.19-19.57c-2.49-11.97-2.49-23.94,0-35.91c2.06-9.87,9.66-17.45,19.19-19.58   c63.22-0.77,126.45-0.39,189.67,1.15c11.2,0.27,20.66,8.29,22.95,19.25C395.95,41.68,395.95,53.1,393.56,64.52z"/>
	<path style="fill:#FCF4EB;" d="M394.249,233.401L394.249,233.401c-7.197,0-13.032-5.834-13.032-13.032v-39.095   c0-7.197,5.834-13.032,13.032-13.032h0c7.197,0,13.032,5.834,13.032,13.032v39.095   C407.281,227.567,401.446,233.401,394.249,233.401z"/>
	<path style="fill:#FCF4EB;" d="M394.249,408.45L394.249,408.45c-7.197,0-13.032-5.834-13.032-13.032V261.192   c0-7.197,5.834-13.032,13.032-13.032h0c7.197,0,13.032,5.834,13.032,13.032v134.226C407.281,402.615,401.446,408.45,394.249,408.45   z"/>
	<g>
		<path style="fill:#E63D73;" d="M322.764,293.038c0,28.66-19.35,52.81-45.7,60.08c-5.29,1.46-10.86,2.24-16.62,2.24    c-34.42,0-62.32-27.9-62.32-62.32s27.9-62.32,62.32-62.32c5.76,0,11.33,0.78,16.62,2.24    C303.413,240.228,322.764,264.378,322.764,293.038z"/>
		<path style="fill:#FC6C9C;" d="M322.764,293.038c0,28.66-19.35,52.81-45.7,60.08c-26.36-7.271-45.71-31.41-45.71-60.08    s19.35-52.81,45.71-60.08C303.413,240.228,322.764,264.378,322.764,293.038z"/>
	</g>
	<g>
		<path style="fill:#5A3AA5;" d="M238.734,323.773c0,28.66-19.35,52.81-45.7,60.08c-5.29,1.46-10.86,2.24-16.62,2.24    c-34.42,0-62.32-27.9-62.32-62.32s27.9-62.32,62.32-62.32c5.76,0,11.33,0.78,16.62,2.24    C219.384,270.963,238.734,295.113,238.734,323.773z"/>
		<path style="fill:#A267BF;" d="M238.734,323.773c0,28.66-19.35,52.81-45.7,60.08c-26.36-7.271-45.71-31.41-45.71-60.08    s19.35-52.81,45.71-60.08C219.384,270.963,238.734,295.113,238.734,323.773z"/>
	</g>
	<g>
		<path style="fill:#E63D73;" d="M210.39,425.42c0,23.88-13.43,44.62-33.15,55.08c-0.96-0.27-1.92-0.55-2.88-0.84    c-32.89-9.88-62.86-26.48-88.32-48.23c-0.19-1.98-0.29-3.98-0.29-6.01c0-34.42,27.9-62.32,62.32-62.32    c5.76,0,11.33,0.78,16.62,2.24C191.04,372.61,210.39,396.76,210.39,425.42z"/>
		<path style="fill:#FC6C9C;" d="M210.39,425.42c0,23.87-13.42,44.61-33.14,55.08c0,0,0,0.01-0.01,0c-0.96-0.27-1.92-0.55-2.88-0.84    c-15.24-4.58-29.87-10.61-43.71-17.92c-7.34-10.22-11.67-22.77-11.67-36.32c0-28.67,19.35-52.81,45.71-60.08    C191.04,372.61,210.39,396.76,210.39,425.42z"/>
	</g>
	<g>
		<path style="fill:#2494B3;" d="M312.264,383.96c0,28.66-19.35,52.81-45.7,60.08c-5.29,1.46-10.86,2.24-16.62,2.24    c-34.42,0-62.32-27.9-62.32-62.32s27.9-62.32,62.32-62.32c5.76,0,11.33,0.78,16.62,2.24    C292.913,331.15,312.264,355.3,312.264,383.96z"/>
		<path style="fill:#5DB1CF;" d="M312.264,383.96c0,28.66-19.35,52.81-45.7,60.08c-26.36-7.271-45.71-31.41-45.71-60.08    s19.35-52.81,45.71-60.08C292.913,331.15,312.264,355.3,312.264,383.96z"/>
	</g>
	<g>
		<path style="fill:#5A3AA5;" d="M395.4,438.41c-24.44,19.04-52.58,33.54-83.17,42.25c-9.61,2.74-19.46,4.9-29.51,6.44    c-6.51-9.84-10.29-21.63-10.29-34.31c0-34.42,27.9-62.32,62.32-62.32c5.76,0,11.33,0.78,16.62,2.24    C373.17,398.72,390.18,416.29,395.4,438.41z"/>
		<path style="fill:#A267BF;" d="M395.4,438.41c-24.44,19.04-52.58,33.54-83.17,42.25c-4.21-8.38-6.57-17.85-6.57-27.87    c0-28.67,19.35-52.81,45.71-60.08C373.17,398.72,390.18,416.29,395.4,438.41z"/>
	</g>
	<g>
		<path style="fill:#FFA733;" d="M297.38,465.49c0,6.83-1.1,13.41-3.13,19.56h-0.01c-3.81,0.77-7.65,1.46-11.52,2.05    c-12.29,1.91-24.89,2.9-37.72,2.9c-11.89,0-23.58-0.85-35.02-2.49c-12.18-1.74-24.08-4.38-35.62-7.85    c-1.06-4.55-1.62-9.29-1.62-14.17c0-34.42,27.9-62.32,62.32-62.32c5.76,0,11.33,0.78,16.62,2.24    C278.03,412.68,297.38,436.83,297.38,465.49z"/>
		<path style="fill:#FBE073;" d="M297.38,465.49c0,6.83-1.1,13.41-3.13,19.56c-3.81,0.77-7.66,1.46-11.53,2.05    c-12.29,1.91-24.89,2.9-37.72,2.9c-11.89,0-23.58-0.85-35.02-2.49c-2.59-6.84-4.01-14.271-4.01-22.021    c0-28.67,19.35-52.81,45.71-60.08C278.03,412.68,297.38,436.83,297.38,465.49z"/>
	</g>
</g>















</svg>
