<svg height="512pt" viewBox="0 0 512.00048 512" width="512pt" xmlns="http://www.w3.org/2000/svg"><path d="m512 256c0 141.386719-114.613281 256-256 256s-256-114.613281-256-256c0-141.382812 114.613281-256 256-256s256 114.617188 256 256zm0 0" fill="#f2f2f2"/><path d="m469.28125 114.394531c-19.035156-28.617187-43.675781-53.175781-72.355469-72.125l-241.863281 108.757813-150.941406 150.9375c18.761718 103.460937 99.699218 185.253906 202.707031 205.296875l152.234375-152.234375zm0 0" fill="#ffd55c"/><path d="m194.933594 184.351562 242.433594-109.011718c-12.292969-12.34375-25.847657-23.429688-40.441407-33.070313l-241.863281 108.757813-150.941406 150.9375c18.761718 103.460937 99.699218 185.253906 202.707031 205.296875l152.234375-152.234375 8.910156-19.453125-89.273437-5.925781-1.464844-68.746094c-.15625-7.425782-3.136719-14.40625-8.386719-19.660156-5.253906-5.25-12.234375-8.230469-19.660156-8.390626l-68.746094-1.460937-1.371094-20.640625c-.511718-7.761719 2.34375-15.367188 7.847657-20.871094 2.3125-2.3125 5.03125-4.1875 8.015625-5.527344zm0 0" fill="#ffc640"/><path d="m461.019531 132.4375 49.339844-107.71875c6.691406-14.617188-8.304687-29.71875-22.96875-23.128906l-108.449219 48.765625zm0 0" fill="#465365"/><path d="m267.011719 348.914062c-4.480469-.296874-7.992188-3.96875-8.085938-8.457031l-1.6875-79.128906c-.097656-4.640625-3.835937-8.378906-8.476562-8.480469l-79.128907-1.683594c-4.488281-.09375-8.160156-3.605468-8.457031-8.085937l-6.113281-92.050781-150.941406 150.9375c18.761718 103.460937 99.699218 185.253906 202.707031 205.296875l152.234375-152.234375zm0 0" fill="#f15424"/><path d="m258.925781 340.457031-1.6875-79.128906c-.097656-4.640625-3.835937-8.378906-8.476562-8.480469l-79.128907-1.683594c-2.21875-.046874-4.238281-.929687-5.75-2.351562l-131.632812 131.632812c22.683594 40.695313 56.132812 74.570313 96.511719 97.742188l132.265625-132.265625c-1.269532-1.476563-2.058594-3.382813-2.101563-5.464844zm0 0" fill="#ff6d3b"/><path d="m500.089844 47.132812 10.269531-22.414062c6.695313-14.617188-8.304687-29.71875-22.964844-23.128906l-108.453125 48.765625 35.355469 35.355469zm0 0" fill="#3e4959"/></svg>