<?xml version="1.0" encoding="iso-8859-1"?>
<!-- Generator: Adobe Illustrator 19.0.0, SVG Export Plug-In . SVG Version: 6.00 Build 0)  -->
<svg version="1.1" id="Capa_1" xmlns="http://www.w3.org/2000/svg" xmlns:xlink="http://www.w3.org/1999/xlink" x="0px" y="0px"
	 viewBox="0 0 512 512" style="enable-background:new 0 0 512 512;" xml:space="preserve">
<path style="fill:#FF5A5F;" d="M512,256.001c0,87.143-43.543,164.116-110.057,210.35c-3.259,2.265-7.353-1.379-5.498-4.887
	C415.307,425.801,426,385.153,426,342c0-8.055-0.372-16.024-1.101-23.888c-4.383-47.323-43.762-83.792-91.286-84.113
	c-0.354-0.002-0.709-0.008-1.065-0.017c-29.604-0.749-53.781-24.926-54.53-54.53c-0.009-0.356-0.015-0.71-0.017-1.065
	c-0.321-47.525-36.79-86.904-84.113-91.286C186.023,86.372,178.055,86,170,86c-43.002,0-83.517,10.618-119.09,29.357
	c-3.606,1.9-7.352-2.304-5.019-5.647C92.151,43.391,169.008,0,256,0C396.965,0,512,115.036,512,256.001z"/>
<path style="fill:#FFF5AF;" d="M446.899,296.112C447.628,303.976,448,311.945,448,320c0,54.346-16.948,104.726-45.828,146.172
	C360.726,495.051,310.346,512,256.001,512C115.042,512.001,0,396.959,0,256c0-54.346,16.949-104.725,45.828-146.172
	C87.274,80.948,137.654,64,192,64c8.055,0,16.024,0.372,23.888,1.101c47.323,4.383,83.791,43.762,84.113,91.286
	c0.002,0.354,0.008,0.709,0.017,1.065c0.749,29.604,24.926,53.781,54.53,54.53c0.356,0.009,0.711,0.015,1.065,0.017
	C403.137,212.32,442.516,248.789,446.899,296.112z"/>
<path style="fill:#FFF091;" d="M446.899,296.112C447.628,303.976,448,311.945,448,320c0,54.346-16.948,104.726-45.828,146.172
	C360.726,495.051,310.346,512,256.001,512C115.042,512.001,0,396.959,0,256c0-19.279,2.143-38.054,6.185-56.113
	C31.812,314.139,134.228,400.001,256.001,400c1.671,0,3.338-0.016,5.001-0.048c83.717-1.606,153.946-57.466,178.053-133.547
	C443.204,275.585,445.923,285.576,446.899,296.112z"/>
<path style="fill:#D74646;" d="M261,206c24.853,0,45,20.147,45,45s-20.147,45-45,45s-45-20.147-45-45S236.147,206,261,206z"/>
<path style="fill:#506EA0;" d="M356.834,197.538l-50.911,50.911l0,0l-23.738,23.737l-7.362,7.362l0,0l-16.375,16.375
	C234.783,294.6,216,274.996,216,251c0-0.55,0.022-1.094,0.042-1.639l43.32-43.32l0,0l52.988-52.989
	c11.505-11.505,30.158-11.505,41.663,0l2.822,2.822C368.339,167.38,368.339,186.033,356.834,197.538z"/>
<path style="fill:#414669;" d="M362.769,166.024c-11.11-4.003-24.021-1.558-32.924,7.346l-41.724,41.724l-38.875,38.875
	l-13.666,13.666c4.712,11.623,14.134,20.834,25.906,25.252l-3.036,3.036c-13.619-0.762-25.609-7.588-33.345-17.812l-0.009,0.009
	C219.388,270.578,216,261.186,216,251c0-0.55,0.022-1.094,0.042-1.639l14.298-14.298l80.6-80.6c12.284-12.284,32.2-12.284,44.485,0
	l0,0C358.805,157.845,361.249,161.805,362.769,166.024z"/>
<path style="fill:#FA875A;" d="M125,110c24.853,0,45,20.147,45,45s-20.147,45-45,45s-45-20.147-45-45S100.147,110,125,110z"/>
<path style="fill:#FF6633;" d="M166.761,171.761C160.113,188.31,143.927,200,125,200c-24.853,0-45-20.147-45-45
	c0-18.927,11.69-35.113,28.239-41.761C106.157,118.421,105,124.074,105,130c0,24.853,20.147,45,45,45
	C155.926,175,161.579,173.843,166.761,171.761z"/>
<path style="fill:#91B9FF;" d="M85,230c24.853,0,45,20.147,45,45s-20.147,45-45,45s-45-20.147-45-45S60.147,230,85,230z"/>
<path style="fill:#6E96DC;" d="M126.761,291.761C120.113,308.31,103.927,320,85,320c-24.853,0-45-20.147-45-45
	c0-18.927,11.69-35.113,28.239-41.761C66.157,238.421,65,244.074,65,250c0,24.853,20.147,45,45,45
	C115.926,295,121.579,293.843,126.761,291.761z"/>
<path style="fill:#FF8287;" d="M145,340c24.853,0,45,20.147,45,45s-20.147,45-45,45s-45-20.147-45-45S120.147,340,145,340z"/>
<path style="fill:#FF6E73;" d="M186.761,401.761C180.113,418.31,163.927,430,145,430c-24.853,0-45-20.147-45-45
	c0-18.927,11.69-35.113,28.239-41.761C126.157,348.421,125,354.074,125,360c0,24.853,20.147,45,45,45
	C175.926,405,181.579,403.843,186.761,401.761z"/>
<path style="fill:#5AC3A5;" d="M255,380c24.853,0,45,20.147,45,45s-20.147,45-45,45s-45-20.147-45-45S230.147,380,255,380z"/>
<path style="fill:#3CAF96;" d="M296.761,441.761C290.113,458.31,273.927,470,255,470c-24.853,0-45-20.147-45-45
	c0-18.927,11.69-35.113,28.239-41.761C236.157,388.421,235,394.074,235,400c0,24.853,20.147,45,45,45
	C285.926,445,291.579,443.843,296.761,441.761z"/>
<path style="fill:#E3B954;" d="M365,330c24.853,0,45,20.147,45,45s-20.147,45-45,45s-45-20.147-45-45S340.147,330,365,330z"/>
<path style="fill:#C99C47;" d="M406.761,391.761C400.113,408.31,383.927,420,365,420c-24.853,0-45-20.147-45-45
	c0-18.927,11.69-35.113,28.239-41.761C346.157,338.421,345,344.074,345,350c0,24.853,20.147,45,45,45
	C395.926,395,401.579,393.843,406.761,391.761z"/>
<path style="fill:#80391B;" d="M458.671,56.393c-19.488,19.866-3.828,58.077-18.414,88.873c-4.265,9.004-10.73,17.246-20.804,24.006
	c-8.183,5.491-18.379,7.785-28.811,7.785l0,0c-14.694,0-28.094-5.541-38.225-14.646c-11.651-10.472-18.978-25.659-18.978-42.557l0,0
	c0-19.502,9.84-37.039,25.19-47.414c6.372-4.306,99.705-19.607,99.705-19.607c2.938-0.541,1.624-1.105,1.083,1.833l0,0
	C459.302,55.291,459.115,55.94,458.671,56.393z"/>
<path style="fill:#91B9FF;" d="M438.627,148.454c-3.511,0.559-7.229-0.502-9.935-3.208l0,0c-3.878-3.878-4.396-9.837-1.567-14.278
	l1.765-1.765c4.485-4.485,4.485-11.756,0-16.241l0,0c-4.485-4.485-11.756-4.485-16.241,0l-23.419,23.419
	c-4.442,2.829-10.4,2.311-14.278-1.567c-3.878-3.878-4.396-9.837-1.567-14.278l23.419-23.419c4.485-4.485,4.485-11.756,0-16.241
	s-11.756-4.485-16.241,0l-7.178,7.178c-4.442,2.829-10.4,2.311-14.278-1.567c-3.422-3.422-4.224-8.463-2.424-12.654
	c6.812-5.032,14.813-8.617,23.601-10.235l78.68-15.401c2.938-0.541,5.507,2.028,4.966,4.966c-0.115,0.624-0.301,1.273-0.746,1.727
	C443.014,75.447,455.652,117.263,438.627,148.454z"/>
<path style="fill:#F5DA73;" d="M379.89,174.482c-0.557,0.557-1.126,1.099-1.701,1.635l0.033,0.033l-44.485,44.485l0.001-0.001
	l-0.629,0.629l-44.485-44.485l15.1-15.1l0,0l30.013-30.013l0.033,0.033c0.536-0.575,1.078-1.144,1.635-1.701l0,0
	c3.071-3.071,15.519,4.398,27.803,16.682C375.493,158.963,382.961,171.411,379.89,174.482L379.89,174.482z"/>
<path style="fill:#D6A74F;" d="M356.842,168.127c3.275,3.031,3.482,8.127,0.327,11.282l-0.129,0.129
	c-2.907,2.907-7.554,3.018-10.649,0.313c-0.531-0.464-1.049-0.948-1.555-1.454l-9.816-9.816l-6.364,6.364l9.816,9.816
	c0.291,0.291,0.586,0.574,0.885,0.851c3.275,3.031,3.482,8.127,0.327,11.282l-0.129,0.129c-2.907,2.907-7.554,3.018-10.649,0.313
	c-0.531-0.464-1.049-0.948-1.555-1.454l-9.816-9.816l-9.812,9.812l-19.099-19.099l15.1-15.1l1.076-1.076l11.121-11.121
	l17.817-17.817l0.033,0.033c0.536-0.575,1.078-1.144,1.635-1.701l0,0c3.071-3.071,15.519,4.398,27.803,16.682
	c3.418,3.418,6.462,6.849,9.012,10.087c-8.398-6.611-15.5-9.887-17.716-7.67l0,0c-0.557,0.557-1.099,1.126-1.635,1.701l-0.033-0.033
	l-6.695,6.695l9.816,9.816C356.248,167.566,356.543,167.85,356.842,168.127z"/>
<g>
</g>
<g>
</g>
<g>
</g>
<g>
</g>
<g>
</g>
<g>
</g>
<g>
</g>
<g>
</g>
<g>
</g>
<g>
</g>
<g>
</g>
<g>
</g>
<g>
</g>
<g>
</g>
<g>
</g>
</svg>
