<?xml version="1.0" encoding="iso-8859-1"?>
<!-- Generator: Adobe Illustrator 19.0.0, SVG Export Plug-In . SVG Version: 6.00 Build 0)  -->
<svg version="1.1" id="Capa_1" xmlns="http://www.w3.org/2000/svg" xmlns:xlink="http://www.w3.org/1999/xlink" x="0px" y="0px"
	 viewBox="0 0 512 512" style="enable-background:new 0 0 512 512;" xml:space="preserve">
<path style="fill:#653064;" d="M511.547,256.227C511.547,397.487,397.034,512,255.774,512c-35.986,0-70.228-7.433-101.286-20.838
	c-18.113-7.819-35.151-17.674-50.81-29.273c-20.399-15.117-38.46-33.177-53.577-53.577c-11.588-15.66-21.443-32.687-29.252-50.8
	C7.434,326.455,0.001,292.202,0.001,256.227c0-141.26,114.513-255.773,255.773-255.773S511.547,114.967,511.547,256.227z"/>
<path style="fill:#FF6292;" d="M424.709,220.951L154.488,491.162c-18.113-7.819-35.151-17.674-50.81-29.273
	c-20.399-15.117-38.46-33.177-53.577-53.577c-11.588-15.66-21.443-32.687-29.252-50.8L291.06,87.302l96.129,39.024L424.709,220.951z
	"/>
<path style="fill:#DD316B;" d="M331.086,127.328L50.101,408.313c-11.588-15.66-21.443-32.687-29.252-50.8L291.06,87.302
	L331.086,127.328z"/>
<path style="fill:#FF99B6;" d="M424.709,220.951L154.488,491.162c-18.113-7.819-35.151-17.674-50.81-29.273l280.985-280.985
	L424.709,220.951z"/>
<polygon style="fill:#E6DDDD;" points="487.596,24.403 291.057,87.296 424.703,220.942 "/>
<polygon style="fill:#CCC4C4;" points="291.057,87.296 487.596,24.403 341.502,137.74 "/>
<path style="fill:#FF6292;" d="M507.25,4.749L507.25,4.749c-6.332-6.332-16.598-6.332-22.93,0l-31.119,31.119l22.93,22.93
	l31.119-31.119C513.582,21.347,513.582,11.08,507.25,4.749z"/>
<g>
</g>
<g>
</g>
<g>
</g>
<g>
</g>
<g>
</g>
<g>
</g>
<g>
</g>
<g>
</g>
<g>
</g>
<g>
</g>
<g>
</g>
<g>
</g>
<g>
</g>
<g>
</g>
<g>
</g>
</svg>
