<svg height="512pt" viewBox="0 0 512 512" width="512pt" xmlns="http://www.w3.org/2000/svg"><path d="m512 256c0 41.109375-9.699219 79.96875-26.921875 114.390625-22.457031 44.890625-57.726563 82.257813-101.007813 107.308594-16.359374 9.472656-33.871093 17.191406-52.261718 22.878906-23.957032 7.421875-49.417969 11.421875-75.808594 11.421875-141.378906 0-256-114.621094-256-256s114.621094-256 256-256 256 114.621094 256 256zm0 0" fill="#564d47"/><path d="m456.949219 194.027344c-9.449219 9.449218-20.210938 16.78125-31.703125 22.007812-1.835938.832032-3.835938 1.238282-5.847656 1.101563-27.476563-1.90625-54.53125-11.363281-77.777344-28.410157-6.101563-4.457031-11.949219-9.460937-17.464844-14.976562-26.519531-26.527344-40.980469-60.550781-43.375-95.242188-.136719-2.019531.28125-4.039062 1.113281-5.878906 5.730469-12.582031 13.980469-24.296875 24.777344-34.355468 32.832031-30.609376 80.183594-36.765626 118.929687-19.078126 3.035157 1.378907 6.027344 2.917969 8.945313 4.597657 8.324219 4.789062 16.128906 10.761719 23.148437 17.925781 41.515626 42.324219 41.269532 110.292969-.746093 152.308594zm0 0" fill="#ffbb16"/><path d="m425.601562 19.195312c-35.625-11.476562-91.355468 40.53125-58.0625 115.9375 13.789063 31.230469-1.570312 46.570313-25.917968 53.59375-6.101563-4.457031-11.949219-9.460937-17.464844-14.976562-26.515625-26.527344-40.976562-60.550781-43.371094-95.242188-.140625-2.019531.277344-4.039062 1.109375-5.878906 5.730469-12.582031 13.980469-24.296875 24.777344-34.355468 32.832031-30.609376 80.183594-36.765626 118.929687-19.078126zm0 0" fill="#ff931f"/><path d="m372.324219 109.722656c-78.703125-78.703125-206.304688-78.703125-285.003907 0-78.703124 78.699219-78.703124 206.300782 0 285.003906 78.699219 78.699219 206.300782 78.699219 285.003907 0 78.699219-78.703124 78.699219-206.304687 0-285.003906zm0 0" fill="#f73e3e"/><path d="m159.832031 394.726562c30.085938 30.097657 67.324219 48.683594 106.253907 55.761719-62.882813 11.445313-130.144532-7.140625-178.765626-55.761719-78.699218-78.699218-78.699218-206.296874 0-285.007812 48.621094-48.609375 115.882813-67.195312 178.765626-55.75-38.929688 7.078125-76.167969 25.652344-106.253907 55.75-78.699219 78.710938-78.699219 206.308594 0 285.007812zm0 0" fill="#d82525"/><path d="m485.078125 370.390625c-30.949219 61.859375-86.21875 109.4375-153.269531 130.1875-9.269532-4.917969-17.980469-11.289063-25.789063-19.097656-9.449219-9.449219-16.78125-20.21875-22.007812-31.699219-.832031-1.839844-1.242188-3.839844-1.101563-5.851562 1.71875-24.871094 9.640625-49.390626 23.75-71.050782 5.398438-8.300781 11.710938-16.179687 18.949219-23.488281.21875-.230469.449219-.46875.679687-.699219 26.53125-26.519531 60.539063-40.980468 95.25-43.382812 2.019532-.128906 4.039063.28125 5.882813 1.121094 12.578125 5.71875 24.289063 13.980468 34.347656 24.769531 10.808594 11.589843 18.570313 24.992187 23.308594 39.191406zm0 0" fill="#ffbb16"/><path d="m384.070312 477.699219c-16.359374 9.472656-33.871093 17.191406-52.261718 22.878906-9.269532-4.917969-17.980469-11.289063-25.789063-19.097656-9.449219-9.449219-16.78125-20.21875-22.007812-31.699219-.832031-1.839844-1.242188-3.839844-1.101563-5.851562 1.71875-24.871094 9.589844-49.617188 23.75-71.050782 4.234375-7.320312 15.03125-19.789062 14.796875-19.023437-19.519531 31.082031 2.113281 100.222656 62.613281 123.84375zm0 0" fill="#ff931f"/><path d="m387.265625 195.914062c0 21.496094-17.425781 38.921876-38.921875 38.921876s-38.917969-17.425782-38.917969-38.921876c0-21.496093 17.421875-38.921874 38.917969-38.921874s38.921875 17.425781 38.921875 38.921874zm0 0" fill="#ff9c9c"/><g fill="#ffd073"><path d="m469.367188 74.621094c0 12.222656-9.90625 22.128906-22.125 22.128906s-22.125-9.90625-22.125-22.128906c0-12.21875 9.90625-22.125 22.125-22.125s22.125 9.90625 22.125 22.125zm0 0"/><path d="m469.367188 380.382812c0 12.21875-9.90625 22.125-22.125 22.125s-22.125-9.90625-22.125-22.125 9.90625-22.125 22.125-22.125 22.125 9.90625 22.125 22.125zm0 0"/></g></svg>