<svg height="512pt" viewBox="0 0 512 512" width="512pt" xmlns="http://www.w3.org/2000/svg"><path d="m512 256c0 70.5625-28.558594 134.476562-74.753906 180.777344-7.511719 7.535156-15.484375 14.597656-23.882813 21.148437-43.40625 33.886719-98.023437 54.074219-157.363281 54.074219-92.578125 0-173.671875-49.132812-218.625-122.753906-13.625-22.300782-23.925781-46.832032-30.226562-72.933594-4.671876-19.34375-7.148438-39.539062-7.148438-60.3125 0-141.386719 114.613281-256 256-256s256 114.613281 256 256zm0 0" fill="#3d66bf"/><path d="m506.816406 307.472656c-23.824218 116.714844-127.058594 204.527344-250.816406 204.527344-122.378906 0-224.707031-85.871094-250.003906-200.652344.441406-.011718.878906-.019531 1.316406-.019531 10.953125 0 21.015625 3.886719 28.863281 10.34375 10.605469-22.976563 31.011719-40.488281 55.859375-47.1875-1.464844-4.042969-2.257812-8.402344-2.257812-12.945313 0-21.003906 17.03125-38.035156 38.046875-38.035156 15.273437 0 28.449219 9.015625 34.5 22.015625 9.824219-6.175781 21.453125-9.757812 33.917969-9.757812 13.898437 0 26.761718 4.449219 37.242187 12.003906 7.855469-13.582031 22.527344-22.738281 39.347656-22.738281 19.1875 0 35.578125 11.894531 42.246094 28.707031 9.476563-5.582031 20.523437-8.789063 32.308594-8.789063 18.546875 0 35.246093 7.921876 46.90625 20.554688 5.621093-13.992188 19.308593-23.867188 35.304687-23.867188 21.015625 0 38.046875 17.03125 38.046875 38.035157 0 3.824219-.574219 7.511719-1.621093 10.992187 15.203124 2.003906 29.152343 7.960938 40.792968 16.8125zm0 0" fill="#cad1f0"/><path d="m437.246094 436.777344c-46.328125 46.46875-110.433594 75.222656-181.246094 75.222656-75.003906 0-142.460938-32.246094-189.292969-83.644531-28.464843-31.253907-49.300781-69.578125-59.558593-112.042969 4.941406-23.386719 11.785156-44.941406 18.691406-63.269531 8.410156-22.296875 38.746094-24.878907 51-4.441407 28.328125 47.273438 70.625 110.96875 142.109375 13.949219l42.628906 1.296875 80.261719 2.445313c-9.8125 47.8125 94.925781 86.214843 95.40625 170.484375zm0 0" fill="#ffe469"/><path d="m403.246094 165.53125c0 53.175781-33.59375 98.503906-80.707032 115.921875-13.355468 4.953125-27.804687 7.648437-42.871093 7.648437-68.242188 0-123.570313-55.328124-123.570313-123.570312 0-68.25 55.328125-123.566406 123.570313-123.566406 6.601562 0 13.089843.519531 19.414062 1.511718 59.027344 9.3125 104.164063 60.40625 104.164063 122.054688zm0 0" fill="#ff983d"/><path d="m403.246094 165.53125c0 53.175781-33.59375 98.503906-80.707032 115.921875-59.015624-9.308594-104.144531-60.414063-104.144531-122.054687 0-53.164063 33.582031-98.492188 80.6875-115.921876 59.027344 9.3125 104.164063 60.40625 104.164063 122.054688zm0 0" fill="#ffe469"/><path d="m381.757812 228.070312c-5.652343-1.511718-8.308593-7.78125-5.710937-13.015624.953125-1.925782 1.5625-3.96875 1.894531-6.082032 1.804688-11.378906-4.457031-24.667968-8.683594-32.058594-1.378906-2.40625-2.085937-5.105468-2.085937-7.828124 0-1.621094.246094-3.25.757813-4.828126 2.808593-8.773437 12.496093-13.304687 21.023437-9.816406 18.046875 7.378906 37.441406 21.855469 56.355469 14.296875 24.875-9.953125 26.113281-20.320312 36.480468-9.953125.714844.710938 1.191407 1.804688 1.417969 3.207032 2.878907 17.675781-33.0625 84.355468-101.449219 66.078124zm0 0" fill="#ff87ad"/><path d="m381.757812 228.070312c-5.652343-1.511718-8.308593-7.78125-5.710937-13.015624.953125-1.925782 1.5625-3.96875 1.894531-6.082032 66.238282 7.03125 93.855469-28.550781 105.265625-46.980468 2.878907 17.675781-33.0625 84.355468-101.449219 66.078124zm0 0" fill="#f03c7b"/><path d="m403.832031 179.515625c0 4.117187-3.335937 7.453125-7.453125 7.453125-4.117187 0-7.453125-3.335938-7.453125-7.453125s3.335938-7.453125 7.453125-7.453125c4.117188 0 7.453125 3.335938 7.453125 7.453125zm0 0" fill="#f03c7b"/><path d="m343.738281 165.53125c0 14.871094-10.125 27.367188-23.863281 30.992188-2.601562.679687-5.351562 1.046874-8.171875 1.046874-17.691406 0-32.035156-14.347656-32.035156-32.039062 0-17.699219 14.34375-32.035156 32.035156-32.035156 2.820313 0 5.570313.367187 8.171875 1.046875 13.738281 3.613281 23.863281 16.109375 23.863281 30.988281zm0 0" fill="#15293d"/><path d="m343.738281 165.53125c0 14.871094-10.125 27.367188-23.863281 30.992188-13.730469-3.625-23.867188-16.121094-23.867188-30.992188 0-14.878906 10.136719-27.375 23.867188-30.988281 13.738281 3.613281 23.863281 16.109375 23.863281 30.988281zm0 0" fill="#364759"/><path d="m261.578125 263.847656-4.40625 23.21875c-22.851563 22.851563-36.175781 55.828125-116.519531 66.714844-45.066406 6.113281-74.28125 38.097656-73.945313 74.574219-28.464843-31.253907-49.300781-69.578125-59.558593-112.042969 4.941406-23.386719 11.785156-44.941406 18.691406-63.269531 8.410156-22.296875 38.746094-24.878907 51-4.441407 28.328125 47.273438 70.625 110.96875 142.109375 13.949219zm0 0" fill="#ff983d"/><path d="m336.386719 156.339844c0 6.199218-5.023438 11.226562-11.226563 11.226562-6.199218 0-11.226562-5.027344-11.226562-11.226562 0-6.199219 5.027344-11.226563 11.226562-11.226563 6.203125 0 11.226563 5.027344 11.226563 11.226563zm0 0" fill="#fff"/><g fill="#ffdc8f"><path d="m405.761719 386.210938c-9.574219-20.742188-26.675781-33.242188-38.199219-27.921876-11.523438 5.320313-13.097656 26.445313-3.523438 47.183594 9.574219 20.742188 26.679688 33.242188 38.199219 27.921875 11.523438-5.320312 13.101563-26.445312 3.523438-47.183593zm0 0"/><path d="m360.734375 79.078125c-9.296875-9.296875-22.167969-11.496094-28.75-4.917969-6.578125 6.582032-4.378906 19.453125 4.917969 28.75 9.296875 9.292969 22.164062 11.496094 28.746094 4.914063 6.582031-6.578125 4.378906-19.449219-4.914063-28.746094zm0 0"/><path d="m383.246094 114.890625c-2.324219-5.746094-7.503906-9.070313-11.570313-7.425781-4.066406 1.644531-5.480469 7.632812-3.160156 13.378906 2.324219 5.746094 7.503906 9.070312 11.570313 7.425781 4.066406-1.644531 5.480468-7.632812 3.160156-13.378906zm0 0"/><path d="m428.523438 429.773438c-2.324219-5.746094-7.503907-9.070313-11.570313-7.425782-4.066406 1.644532-5.480469 7.632813-3.160156 13.378906 2.324219 5.746094 7.503906 9.070313 11.570312 7.425782 4.070313-1.644532 5.484375-7.632813 3.160157-13.378906zm0 0"/></g><path d="m413.363281 457.925781c-43.40625 33.886719-98.023437 54.074219-157.363281 54.074219-92.578125 0-173.671875-49.132812-218.625-122.753906 5.101562-2.539063 10.835938-3.960938 16.917969-3.960938 15.277343 0 28.453125 9.015625 34.503906 22.015625 9.820313-6.175781 21.449219-9.757812 33.914063-9.757812 13.898437 0 26.761718 4.449219 37.242187 12.003906 7.859375-13.582031 22.527344-22.734375 39.351563-22.734375 19.183593 0 35.578124 11.890625 42.246093 28.703125 9.476563-5.582031 20.519531-8.789063 32.304688-8.789063 18.546875 0 35.246093 7.921876 46.90625 20.554688 5.621093-13.992188 19.3125-23.867188 35.308593-23.867188 21.011719 0 38.042969 17.03125 38.042969 38.035157 0 3.824219-.574219 7.511719-1.617187 10.992187 7.269531.960938 14.273437 2.832032 20.867187 5.484375zm0 0" fill="#edf4ff"/></svg>