<svg height="512pt" viewBox="-11 0 512 512.001" width="512pt" xmlns="http://www.w3.org/2000/svg"><path d="m490 267c0 135.308594-109.691406 245-245 245s-245-109.691406-245-245 109.691406-245 245-245 245 109.691406 245 245zm0 0" fill="#603256"/><path d="m344.425781 60.492188c-25.878906-11.8125-53.464843-18.761719-83.308593-20.59375v471.5625c19.269531-1.253907 37.929687-4.722657 55.730468-10.175782l37.679688-435.929687s.414062-7.398438-.210938-10.375zm0 0" fill="#7cdd83"/><path d="m297.074219 345.046875s14.78125 17.835937 39.859375 4.6875l-24.066406 76.738281-18.097657-38.90625zm0 0" fill="#69d173"/><path d="m169.59375 52.042969c-1.699219 2.140625-2.582031 4.875-2.363281 7.695312l37.730469 448.988281c13.03125 2.140626 26.402343 3.273438 40.039062 3.273438 5.417969 0 10.789062-.195312 16.117188-.539062v-471.5625c-4.898438-.296876-9.835938-.46875-14.8125-.46875-26.835938 0-52.636719 4.4375-76.710938 12.613281zm0 0" fill="#49a552"/><path d="m225.1875 345.097656s-14.800781 17.785156-39.882812 4.636719l53.117187 124.988281zm0 0" fill="#3b9641"/><path d="m311.492188 78.855469-50.375-28.148438v-50.707031c1.90625 0 3.808593.492188 5.515624 1.476562l82.902344 47.867188c2.238282 1.296875 3.894532 3.304688 4.78125 5.632812zm0 0" fill="#8ced91"/><path d="m167.929688 54.980469c.886718-2.332031 2.542968-4.347657 4.785156-5.644531l82.886718-47.859376c1.710938-.984374 3.617188-1.476562 5.523438-1.476562v50.707031l-50.375 28.148438zm0 0" fill="#69d173"/><path d="m210.761719 78.855469 23.453125 432.894531c3.578125.15625 7.171875.25 10.785156.25 14.75 0 29.199219-1.304688 43.234375-3.804688l23.261719-429.335937-50.367188-28.152344zm0 0" fill="#55b160"/><path d="m264.421875 365.414062c-.261719.019532-.527344.035157-.789063.054688-16.191406 1.109375-30.8125-7.273438-38.445312-20.371094l9.03125 166.652344c3.574219.15625 7.167969.25 10.78125.25 14.753906 0 29.199219-1.304688 43.234375-3.804688l8.839844-163.148437c-6.65625 11.4375-18.660157 19.375-32.652344 20.367187zm0 0" fill="#49a552"/><path d="m245.933594 511.988281-68.601563-340.386719-10.847656 24.65625-12.226563 37.46875c-.191406 1.0625-.648437 2.035157-1.296874 2.851563l75.277343 274.835937c5.539063.378907 11.125.585938 16.761719.585938.3125 0 .621094-.011719.933594-.011719zm0 0" fill="#8ced91"/><path d="m152.960938 236.582031c-.714844.898438-1.660157 1.613281-2.765626 2.03125l-62.792968 23.773438c-1.753906.667969-3.6875.515625-5.3125-.351563l92.976562 239.820313c17.023438 5.058593 34.816406 8.324219 53.171875 9.5625zm0 0" fill="#55b160"/><path d="m175.066406 501.855469-92.976562-239.820313c-.335938-.179687-.664063-.378906-.96875-.617187l-34.121094-26.941407-16.789062-9.214843 124.03125 269.367187c6.796874 2.710938 13.746093 5.121094 20.824218 7.226563zm0 0" fill="#49a552"/><path d="m375.832031 474.164062 98.414063-191.410156-21.796875 11.417969-30.082031 19.777344c-.742188.648437-1.621094 1.082031-2.550782 1.296875l-75.6875 175.855468c11.019532-4.882812 21.609375-10.550781 31.703125-16.9375zm0 0" fill="#69d173"/><path d="m344.128906 491.101562 75.6875-175.855468c-1.023437.238281-2.105468.207031-3.136718-.125l-58.367188-18.816406c-1.632812-.523438-2.929688-1.734376-3.59375-3.28125l-67.539062 215.347656c19.910156-3.457032 38.996093-9.316406 56.949218-17.269532zm0 0" fill="#55b160"/><path d="m345.375 253.355469-6.734375-16.144531-67.558594 273.40625c5.421875-.574219 10.789063-1.324219 16.097657-2.246094l67.539062-215.347656c-.140625-.316407-.257812-.644532-.339844-.992188zm0 0" fill="#49a552"/><path d="m292.25 390.125-76.445312 120.136719c9.574218 1.136719 19.316406 1.738281 29.195312 1.738281 27.851562 0 54.617188-4.65625 79.5625-13.21875l-17.066406-105.515625c-1.222656-7.554687-11.132813-9.597656-15.246094-3.140625zm0 0" fill="#69d173"/><path d="m272.117188 510.5c18.152343-2 35.707031-5.976562 52.445312-11.71875l-17.066406-105.515625c-.644532-3.972656-3.695313-6.402344-7.035156-6.890625zm0 0" fill="#7cdd83"/><path d="m305.273438 481.140625c-9.988282 2.542969-19.4375-2.140625-24.183594-9.941406l-8.972656 39.296875c18.152343-1.996094 35.707031-5.972656 52.445312-11.714844l-4.671875-28.878906c-2.824219 5.339844-7.816406 9.488281-14.082031 11.101562-.175782.046875-.355469.089844-.535156.136719zm0 0" fill="#69d173"/><path d="m127.761719 413.144531-10.214844 63.128907c25.691406 15.679687 54.492187 26.753906 85.261719 32.09375l-62.269532-97.855469c-3.445312-5.414063-11.753906-3.703125-12.777343 2.632812zm0 0" fill="#7cdd83"/><path d="m475.074219 274.503906-50.566407-65.117187c-1.539062-2.015625-4.164062-2.859375-6.585937-2.125l-75.132813 22.769531c-3.058593.925781-4.871093 4.066406-4.148437 7.179688l13.355469 57.355468c.480468 2.074219 2.015625 3.742188 4.046875 4.398438l60.074219 19.363281c2.027343.65625 4.25.195313 5.851562-1.207031l52.273438-34.367188c2.40625-2.101562 2.769531-5.710937.832031-8.25zm0 0" fill="#8ced91"/><path d="m453.074219 294.613281-62.117188-20.023437c-2.097656-.675782-3.683593-2.402344-4.183593-4.546875l-11.601563-49.824219-32.382813 9.8125c-3.058593.929688-4.871093 4.066406-4.144531 7.179688l13.351563 57.355468c.480468 2.074219 2.019531 3.742188 4.046875 4.398438l60.074219 19.363281c2.03125.65625 4.25.195313 5.855468-1.207031l33.886719-22.277344c-.921875.128906-1.871094.0625-2.785156-.230469zm0 0" fill="#7cdd83"/><path d="m117.546875 476.273438c11.410156 6.960937 23.433594 13.007812 35.96875 18.058593l-19.859375-86.964843c-2.800781.410156-5.355469 2.445312-5.894531 5.777343zm0 0" fill="#69d173"/><path d="m172.40625 163.980469-87.742188-21.171875c-2.691406-.671875-5.511718.394531-7.082031 2.679687l-48.730469 70.800781c-1.980468 2.882813-1.386718 6.808594 1.355469 8.976563l50.601563 39.949219c1.832031 1.445312 4.285156 1.824218 6.46875.996094l64.625-24.46875c2.179687-.824219 3.769531-2.734376 4.183594-5.027344l21.246093-65.113282c.621094-3.441406-1.535156-6.773437-4.925781-7.621093zm0 0" fill="#7cdd83"/><path d="m78.964844 213.835938c-2.742188-2.167969-3.335938-6.089844-1.355469-8.972657l37.632813-54.675781-30.578126-7.378906c-2.691406-.671875-5.511718.394531-7.082031 2.679687l-48.730469 70.800781c-1.980468 2.882813-1.386718 6.804688 1.359376 8.972657l50.601562 39.953125c1.832031 1.445312 4.285156 1.820312 6.464844.996094l39.222656-14.847657zm0 0" fill="#69d173"/><path d="m363.164062 446.871094-19.035156 44.230468c11.019532-4.882812 21.609375-10.550781 31.703125-16.9375l22.378907-43.527343c-31.351563 38.34375-35.046876 16.234375-35.046876 16.234375zm0 0" fill="#55b160"/><path d="m312.867188 426.472656 11.695312 72.308594c6.65625-2.285156 13.183594-4.851562 19.566406-7.679688l19.035156-44.230468c-42.203124 11.726562-50.296874-20.398438-50.296874-20.398438zm0 0" fill="#49a552"/></svg>