<?xml version="1.0" encoding="iso-8859-1"?>
<!-- Generator: Adobe Illustrator 19.0.0, SVG Export Plug-In . SVG Version: 6.00 Build 0)  -->
<svg xmlns="http://www.w3.org/2000/svg" xmlns:xlink="http://www.w3.org/1999/xlink" version="1.1" id="Layer_1" x="0px" y="0px" viewBox="0 0 491.878 491.878" style="enable-background:new 0 0 491.878 491.878;" xml:space="preserve" width="512" height="512">
<g>
	<path style="fill:#A267BF;" d="M490.939,246.878c0,24.13-3.49,47.45-10,69.48c-0.38,1.29-0.77,2.58-1.18,3.86c0,0,0,0,0,0.01   c-0.14,0.47-0.29,0.92-0.44,1.39c-12.2,38.13-33.49,72.21-61.31,99.66c-0.15,0.15-0.3,0.29-0.45,0.44   c-1.73,1.7-3.48,3.37-5.27,5.02c-27.3,25.27-60.36,44.4-97,55.19c-10.1,2.97-20.46,5.32-31.06,6.97c-0.98,0.16-1.97,0.31-2.96,0.45   c-11.54,1.67-23.34,2.53-35.33,2.53c-8.53,0-16.95-0.43-25.26-1.29c-15.04-1.54-29.67-4.44-43.78-8.58h-0.01   c-1.74-0.5-3.47-1.03-5.19-1.58c-10.97-3.48-21.61-7.72-31.85-12.66c-24.16-11.61-46.13-27.09-65.09-45.62   c-0.66-0.65-1.32-1.3-1.97-1.95c-24.54-24.5-43.9-54.18-56.31-87.27c-0.13-0.33-0.26-0.67-0.38-1   c-9.8-26.49-15.16-55.14-15.16-85.05c0-6.47,0.25-12.88,0.74-19.22c9.81-126.33,115.42-225.78,244.26-225.78   c107.45,0,198.73,69.16,231.77,165.39c0.68,1.98,1.33,3.96,1.96,5.96C486.989,196.478,490.939,221.218,490.939,246.878z"/>
	<g>
		<path style="fill:#FFA733;" d="M142.509,272.448c0,36.07-24.63,66.38-57.99,75.04c-6.25,1.63-12.8,2.49-19.55,2.49    c-18.35,0-35.21-6.38-48.49-17.05c-0.13-0.33-0.26-0.67-0.38-1c-9.8-26.49-15.16-55.14-15.16-85.05c0-6.47,0.25-12.88,0.74-19.22    c14.04-19.82,37.15-32.75,63.29-32.75c6.75,0,13.3,0.86,19.55,2.49C117.879,206.058,142.509,236.368,142.509,272.448z"/>
		<path style="fill:#FBE073;" d="M142.511,272.451c0,36.07-24.63,66.38-57.99,75.04c-33.36-8.66-57.99-38.97-57.99-75.04    c0-36.08,24.63-66.39,57.99-75.05C117.881,206.061,142.511,236.371,142.511,272.451z"/>
	</g>
	<g>
		<path style="fill:#E63D73;" d="M170.039,345.198c0,36.07-24.63,66.38-57.99,75.04c-6.25,1.63-12.8,2.49-19.55,2.49    c-6.81,0-13.42-0.88-19.71-2.53c-24.79-24.75-44.29-54.78-56.69-88.27c6.29-36.51,38.1-64.27,76.4-64.27    c6.75,0,13.3,0.86,19.55,2.49C145.409,278.808,170.039,309.118,170.039,345.198z"/>
		<path style="fill:#FC6C9C;" d="M170.043,345.198c0,36.07-24.63,66.38-57.99,75.04c-33.36-8.66-57.99-38.97-57.99-75.04    c0-36.08,24.63-66.39,57.99-75.05C145.413,278.808,170.043,309.118,170.043,345.198z"/>
	</g>
	<g>
		<path style="fill:#E63D73;" d="M412.436,77.54c0,36.07-24.63,66.38-57.99,75.04c-6.25,1.63-12.8,2.49-19.55,2.49    c-42.82,0-77.53-34.71-77.53-77.53c0-42.83,34.71-77.54,77.53-77.54c6.75,0,13.3,0.86,19.55,2.49    C387.806,11.15,412.436,41.46,412.436,77.54z"/>
		<path style="fill:#FC6C9C;" d="M412.436,77.54c0,36.07-24.63,66.38-57.99,75.04c-33.36-8.66-57.99-38.97-57.99-75.04    c0-36.08,24.63-66.39,57.99-75.05C387.806,11.15,412.436,41.46,412.436,77.54z"/>
	</g>
	<g>
		<path style="fill:#E63D73;" d="M490.939,246.878c0,24.13-3.49,47.45-10,69.48c-0.52,1.76-1.06,3.51-1.62,5.26    c-2.71,0.3-5.47,0.44-8.25,0.44c-42.82,0-77.53-34.71-77.53-77.53c0-42.83,34.71-77.54,77.53-77.54c2.24,0,4.45,0.1,6.64,0.28    c0.68,1.98,1.33,3.96,1.96,5.96C486.989,196.478,490.939,221.218,490.939,246.878z"/>
		<path style="fill:#FC6C9C;" d="M490.939,246.878c0,24.13-3.49,47.45-10,69.48c-28.34-11.54-48.31-39.35-48.31-71.83    c0-32,19.38-59.47,47.04-71.3C486.989,196.478,490.939,221.218,490.939,246.878z"/>
	</g>
	<g>
		<path style="fill:#17A388;" d="M265.381,272.731c0,36.07-24.63,66.38-57.99,75.04c-6.25,1.63-12.8,2.49-19.55,2.49    c-42.82,0-77.53-34.71-77.53-77.53c0-42.83,34.71-77.54,77.53-77.54c6.75,0,13.3,0.86,19.55,2.49    C240.751,206.341,265.381,236.651,265.381,272.731z"/>
		<path style="fill:#27BA9E;" d="M265.381,272.731c0,36.07-24.63,66.38-57.99,75.04c-33.36-8.66-57.99-38.97-57.99-75.04    c0-36.08,24.63-66.39,57.99-75.05C240.751,206.341,265.381,236.651,265.381,272.731z"/>
	</g>
	<g>
		<path style="fill:#2494B3;" d="M407.923,258.396c0,36.07-24.63,66.38-57.99,75.04c-6.25,1.63-12.8,2.49-19.55,2.49    c-42.82,0-77.53-34.71-77.53-77.53c0-42.83,34.71-77.54,77.53-77.54c6.75,0,13.3,0.86,19.55,2.49    C383.293,192.006,407.923,222.316,407.923,258.396z"/>
		<path style="fill:#5DB1CF;" d="M407.923,258.396c0,36.07-24.63,66.38-57.99,75.04c-33.36-8.66-57.99-38.97-57.99-75.04    c0-36.08,24.63-66.39,57.99-75.05C383.293,192.006,407.923,222.316,407.923,258.396z"/>
	</g>
	<g>
		<path style="fill:#FFA733;" d="M228.689,408.858c0,33.8-21.63,62.54-51.8,73.15c-1.74-0.5-3.47-1.03-5.19-1.58    c-36.86-11.7-69.94-31.9-96.94-58.28c-0.75-4.32-1.14-8.76-1.14-13.29c0-42.83,34.71-77.54,77.53-77.54    c6.75,0,13.3,0.86,19.55,2.49C204.059,342.468,228.689,372.778,228.689,408.858z"/>
		<path style="fill:#FBE073;" d="M228.689,408.858c0,33.8-21.62,62.54-51.79,73.15h-0.01c-1.74-0.5-3.47-1.03-5.19-1.58    c-10.97-3.48-21.61-7.72-31.85-12.66c-16.61-14.21-27.14-35.33-27.14-58.91c0-36.08,24.63-66.39,57.99-75.05    C204.059,342.468,228.689,372.778,228.689,408.858z"/>
	</g>
	<g>
		<path style="fill:#FFA733;" d="M479.759,320.218c0,0,0,0,0,0.01c-0.14,0.47-0.29,0.92-0.44,1.39    c-12.2,38.13-33.49,72.21-61.31,99.66c-1.88,1.85-3.78,3.67-5.72,5.46c-1.46,0.09-2.94,0.13-4.42,0.13    c-42.82,0-77.53-34.71-77.53-77.53c0-42.83,34.71-77.54,77.53-77.54c6.75,0,13.3,0.86,19.55,2.49    C451.259,280.478,470.629,297.718,479.759,320.218z"/>
		<path style="fill:#FBE073;" d="M479.759,320.218c-0.14,0.47-0.29,0.93-0.44,1.4c-12.2,38.13-33.49,72.21-61.31,99.66    c-28.48-11.47-48.58-39.36-48.58-71.94c0-36.08,24.63-66.39,57.99-75.05C451.259,280.478,470.629,297.718,479.759,320.218z"/>
	</g>
	<g>
		<path style="fill:#E63D73;" d="M353.793,349.55c0,36.07-24.63,66.38-57.99,75.04c-6.25,1.63-12.8,2.49-19.55,2.49    c-42.82,0-77.53-34.71-77.53-77.53c0-42.83,34.71-77.54,77.53-77.54c6.75,0,13.3,0.86,19.55,2.49    C329.163,283.16,353.793,313.47,353.793,349.55z"/>
		<path style="fill:#FC6C9C;" d="M353.793,349.55c0,36.07-24.63,66.38-57.99,75.04c-33.36-8.66-57.99-38.97-57.99-75.04    c0-36.08,24.63-66.39,57.99-75.05C329.163,283.16,353.793,313.47,353.793,349.55z"/>
	</g>
	<g>
		<path style="fill:#17A388;" d="M417.559,421.718c-1.73,1.7-3.48,3.37-5.27,5.02c-27.3,25.27-60.36,44.4-97,55.19    c-11.04,3.25-22.39,5.75-34.02,7.42c-10.08-13.08-16.08-29.47-16.08-47.27c0-42.83,34.71-77.54,77.53-77.54    c6.75,0,13.3,0.86,19.55,2.49C389.109,373.998,410.309,394.988,417.559,421.718z"/>
		<path style="fill:#27BA9E;" d="M417.559,421.718c-1.73,1.7-3.48,3.37-5.27,5.02c-27.3,25.27-60.36,44.4-97,55.19    c-6.99-11.64-11.01-25.28-11.01-39.85c0-36.08,24.63-66.39,57.99-75.05C389.109,373.998,410.309,394.988,417.559,421.718z"/>
	</g>
	<g>
		<path style="fill:#2494B3;" d="M309.489,431.648c0,22.68-9.74,43.08-25.26,57.25c-0.98,0.16-1.97,0.31-2.96,0.45    c-11.54,1.67-23.34,2.53-35.33,2.53c-25.88,0-50.82-4.01-74.24-11.45c-10.81-13.32-17.28-30.29-17.28-48.78    c0-42.83,34.71-77.54,77.53-77.54c6.75,0,13.3,0.86,19.55,2.49C284.859,365.258,309.489,395.568,309.489,431.648z"/>
		<path style="fill:#5DB1CF;" d="M309.489,431.648c0,22.68-9.74,43.08-25.26,57.25c-0.98,0.16-1.97,0.31-2.96,0.45    c-11.54,1.67-23.34,2.53-35.33,2.53c-8.53,0-16.95-0.43-25.26-1.29c-16.63-14.21-27.17-35.34-27.17-58.94    c0-36.08,24.63-66.39,57.99-75.05C284.859,365.258,309.489,395.568,309.489,431.648z"/>
	</g>
	<g>
		<path style="fill:#2494B3;" d="M213.051,103.387c0,36.07-24.63,66.38-57.99,75.04c-6.25,1.63-12.8,2.49-19.55,2.49    c-42.82,0-77.53-34.71-77.53-77.53c0-42.83,34.71-77.54,77.53-77.54c6.75,0,13.3,0.86,19.55,2.49    C188.421,36.997,213.051,67.307,213.051,103.387z"/>
		<path style="fill:#5DB1CF;" d="M213.051,103.387c0,36.07-24.63,66.38-57.99,75.04c-33.36-8.66-57.99-38.97-57.99-75.04    c0-36.08,24.63-66.39,57.99-75.05C188.421,36.997,213.051,67.307,213.051,103.387z"/>
	</g>
</g>















</svg>
