<?xml version="1.0" encoding="iso-8859-1"?>
<!-- Generator: Adobe Illustrator 19.0.0, SVG Export Plug-In . SVG Version: 6.00 Build 0)  -->
<svg version="1.1" id="Capa_1" xmlns="http://www.w3.org/2000/svg" xmlns:xlink="http://www.w3.org/1999/xlink" x="0px" y="0px"
	 viewBox="0 0 512 512" style="enable-background:new 0 0 512 512;" xml:space="preserve">
<path style="fill:#1E9682;" d="M512,256c0,141.385-114.615,256-256,256S0,397.385,0,256S114.615,0,256,0S512,114.615,512,256z"/>
<path style="fill:#2D5A5F;" d="M474.155,390C429.1,463.193,348.254,512,256,512S82.9,463.193,37.845,390H474.155z"/>
<path style="fill:#B4D2D7;" d="M311,430H201V270h110V430z"/>
<path style="fill:#CDE1E6;" d="M311,430h-89.692v-50c0-5.523,4.477-10,10-10H311V430z"/>
<path style="fill:#9BB9C3;" d="M471,60v280c0,5.523-4.477,10-10,10H51c-5.523,0-10-4.477-10-10V60c0-5.523,4.477-10,10-10h410
	C466.523,50,471,54.477,471,60z M321,420H191c-13.807,0-25,11.193-25,25l0,0c0,2.761,2.239,5,5,5h170c2.761,0,5-2.239,5-5l0,0
	C346,431.193,334.807,420,321,420z"/>
<path style="fill:#E6FAFF;" d="M452,95v210c0,2.761-2.239,5-5,5H65c-2.761,0-5-2.239-5-5V95c0-2.761,2.239-5,5-5h176.872
	c2.061,5.822,7.6,10,14.128,10c6.528,0,12.067-4.178,14.128-10H447C449.761,90,452,92.239,452,95z"/>
<path style="fill:#FFAFB4;" d="M336,210c0,44.183-35.817,80-80,80s-80-35.817-80-80s35.817-80,80-80S336,165.817,336,210z"/>
<path style="fill:#9BB9C3;" d="M105,150H85c-2.761,0-5-2.239-5-5v-10c0-2.761,2.239-5,5-5h20c2.761,0,5,2.239,5,5v10
	C110,147.761,107.761,150,105,150z"/>
<g>
	<path style="fill:#CDE1E6;" d="M105,280H85c-2.761,0-5-2.239-5-5V140h30v135C110,277.761,107.761,280,105,280z"/>
	<path style="fill:#CDE1E6;" d="M452,85v25H60V85c0-2.761,2.239-5,5-5h176.872c2.061,5.822,7.6,10,14.128,10
		c6.528,0,12.067-4.178,14.128-10H447C449.761,80,452,82.239,452,85z"/>
</g>
<path style="fill:#9BB9C3;" d="M102.5,207.5c0,4.142-3.358,7.5-7.5,7.5s-7.5-3.358-7.5-7.5s3.358-7.5,7.5-7.5
	S102.5,203.358,102.5,207.5z M95,225c-4.142,0-7.5,3.358-7.5,7.5s3.358,7.5,7.5,7.5s7.5-3.358,7.5-7.5S99.142,225,95,225z M95,250
	c-4.142,0-7.5,3.358-7.5,7.5c0,4.142,3.358,7.5,7.5,7.5s7.5-3.358,7.5-7.5C102.5,253.358,99.142,250,95,250z M95,150
	c-4.142,0-7.5,3.358-7.5,7.5s3.358,7.5,7.5,7.5s7.5-3.358,7.5-7.5S99.142,150,95,150z M95,175c-4.142,0-7.5,3.358-7.5,7.5
	s3.358,7.5,7.5,7.5s7.5-3.358,7.5-7.5S99.142,175,95,175z M75,90c-2.761,0-5,2.239-5,5s2.239,5,5,5s5-2.239,5-5S77.761,90,75,90z
	 M95,95c0-2.761-2.239-5-5-5s-5,2.239-5,5s2.239,5,5,5S95,97.761,95,95z M105,90c-2.761,0-5,2.239-5,5s2.239,5,5,5s5-2.239,5-5
	S107.761,90,105,90z"/>
<path style="fill:#80391B;" d="M236.021,287.52L236.021,287.52c-2.375,0.437-2.791,0.689-2.354-1.687l13.833-62.458
	c1.144-6.214,0.721-13.004,4.015-18.029c8.338-12.716,22.696-20.9,38.688-20.9l0,0c13.662,0,25.939,5.924,34.405,15.343
	c7.362,8.191,11.841,19.024,11.841,30.904l0,0c0,8.434-1.855,16.677-6.294,23.292c-5.891,8.78-13.175,14.169-21.122,17.594
	c-24.639,10.62-55.923-0.058-71.617,15.338C237.05,287.276,236.526,287.427,236.021,287.52z"/>
<path style="fill:#FF5A5F;" d="M237.681,289.338c-0.366,0.359-0.891,0.51-1.396,0.603c-2.375,0.437-4.453-1.64-4.015-4.015
	l12.451-63.609c1.308-7.105,4.206-13.573,8.275-19.08c3.388-1.455,7.464-0.807,10.231,1.96c3.135,3.135,3.554,7.952,1.267,11.544
	l-5.803,5.803c-3.626,3.626-3.626,9.504,0,13.13s9.504,3.626,13.13,0l18.934-18.934c3.591-2.287,8.408-1.869,11.544,1.267
	c3.135,3.135,3.554,7.953,1.267,11.544l-18.934,18.934c-3.626,3.626-3.626,9.504,0,13.13l0,0c3.626,3.626,9.504,3.626,13.13,0
	l1.427-1.427c3.591-2.287,8.408-1.869,11.544,1.267l0,0c2.188,2.188,3.046,5.194,2.594,8.032
	C288.109,283.251,254.302,273.033,237.681,289.338z"/>
<path style="fill:#55696E;" d="M504.552,51.817L467.6,88.769l-48.786,48.787l-65.805,65.805c-9.301,9.301-24.382,9.301-33.683,0
	l-2.281-2.281c-9.301-9.301-9.301-24.382,0-33.683L468.587,15.853c9.931-9.931,26.033-9.931,35.964,0l0,0
	C514.483,25.784,514.483,41.885,504.552,51.817z"/>
<path style="fill:#3F4A4A;" d="M483.872,31.137L333.469,181.541c-7.198,7.198-9.174,17.636-5.939,26.618
	c-3.411-1.229-6.613-3.205-9.346-5.939l0,0c-9.931-9.931-9.931-26.033,0-35.964L468.587,15.853c9.931-9.931,26.033-9.931,35.964,0
	l0,0c2.733,2.733,4.71,5.935,5.939,9.346C501.508,21.963,491.07,23.939,483.872,31.137z"/>
<path style="fill:#E3B954;" d="M334.368,222.001c-2.483,2.483-12.546-3.555-22.478-13.487c-9.931-9.931-15.969-19.995-13.487-22.478
	l0,0c0.45-0.45,0.91-0.889,1.375-1.322l-0.027-0.027l24.265-24.265l0,0l12.208-12.208l35.964,35.964l-0.509,0.509
	c0,0,0.001,0,0.001-0.001l-35.964,35.964l-0.027-0.027C335.257,221.09,334.818,221.55,334.368,222.001L334.368,222.001z"/>
<path style="fill:#C99C47;" d="M352.592,189.391l-0.104,0.104c-2.551,2.551-6.671,2.383-9.122-0.265
	c-0.224-0.242-0.453-0.48-0.688-0.715l-7.936-7.936l-5.145,5.145l7.936,7.936c0.409,0.409,0.801,0.828,1.175,1.257
	c2.187,2.503,2.097,6.259-0.253,8.609l-0.104,0.104c-2.551,2.551-6.671,2.383-9.121-0.264c-0.224-0.242-0.453-0.48-0.688-0.715
	l-7.936-7.936l-5.413,5.413l0.027,0.027c-0.465,0.433-0.925,0.872-1.375,1.322l0,0c-1.792,1.792,0.856,7.533,6.201,14.323
	c-2.618-2.061-5.391-4.522-8.155-7.286c-9.931-9.931-15.969-19.995-13.486-22.478l0,0c0.45-0.45,0.91-0.889,1.375-1.322
	l-0.027-0.027l14.404-14.404l8.991-8.991l0.87-0.87l12.208-12.208l15.441,15.441l-7.932,7.932l7.936,7.936
	c0.409,0.409,0.801,0.828,1.175,1.257C355.031,183.284,354.942,187.041,352.592,189.391z"/>
<path style="fill:#87A0AF;" d="M191,420h24c-13.807,0-25,11.193-25,25c0,2.761,2.239,5,5,5h-24c-2.761,0-5-2.239-5-5
	C166,431.193,177.193,420,191,420z M267,325.003h-22c-2.761,0-5,2.239-5,5s2.239,5,5,5h22c2.761,0,5-2.239,5-5
	S269.761,325.003,267,325.003z M256,80c2.761,0,5-2.239,5-5s-2.239-5-5-5c-2.761,0-5,2.239-5,5S253.239,80,256,80z"/>
<g>
</g>
<g>
</g>
<g>
</g>
<g>
</g>
<g>
</g>
<g>
</g>
<g>
</g>
<g>
</g>
<g>
</g>
<g>
</g>
<g>
</g>
<g>
</g>
<g>
</g>
<g>
</g>
<g>
</g>
</svg>
