<svg height="512pt" viewBox="0 0 512 512" width="512pt" xmlns="http://www.w3.org/2000/svg"><path d="m512 256c0 141.386719-114.613281 256-256 256s-256-114.613281-256-256 114.613281-256 256-256 256 114.613281 256 256zm0 0" fill="#ffc640"/><path d="m444 41.320312v388.441407c-46.769531 50.566406-113.691406 82.238281-188 82.238281-8.441406 0-16.789062-.410156-25.019531-1.210938-21.289063-2.070312-41.820313-6.738281-61.25-13.699218-8.550781-3.050782-16.902344-6.558594-25-10.480469-8.609375-4.160156-16.960938-8.789063-25-13.859375-19.089844-12.019531-36.480469-26.5-51.730469-42.988281v-388.441407c0-9.769531 7.921875-17.691406 17.679688-17.691406h340.640624c9.757813 0 17.679688 7.921875 17.679688 17.691406zm0 0" fill="#465365"/><path d="m166.332031 23.628906h-80.652343c-9.757813 0-17.679688 7.921875-17.679688 17.691406v388.441407c15.25 16.488281 32.640625 30.96875 51.730469 42.988281 8.039062 5.070312 16.390625 9.699219 25 13.859375 7.019531 3.398437 14.238281 6.464844 21.601562 9.214844zm0 0" fill="#3e4959"/><path d="m306.367188 215.179688-41.101563 108.269531v188.367187c46.15625-1.644531 89.191406-15.5 125.988281-38.445312v-149.921875l-40.269531-108.339844c-14.714844-2.957031-29.910156-2.933594-44.617187.070313zm0 0" fill="#ffd55c"/><path d="m358.601562 340.425781-21.679687-20.773437c-2.34375-2.246094-5.417969-3.480469-8.664063-3.480469-3.242187 0-6.316406 1.234375-8.660156 3.480469l-21.679687 20.773437-6.796875-5.949219c-2.554688-2.238281-4.019532-5.46875-4.019532-8.867187 0-1.425781.257813-2.84375.765626-4.179687l41.199218-108.523438c-7.609375-.015625-15.214844.746094-22.699218 2.277344l-41.101563 108.265625v188.367187c46.152344-1.644531 89.191406-15.5 125.984375-38.445312v-149.921875l-3.253906-8.757813zm0 0" fill="#ffc640"/><path d="m354.003906 223.230469-18.027344-48.496094c-2.449218-6.582031-11.742187-6.613281-14.234374-.050781l-18.429688 48.546875zm0 0" fill="#3e4959"/><path d="m355.832031 349.871094-24.953125-23.914063c-1.464844-1.402343-3.773437-1.402343-5.234375 0l-24.957031 23.914063c-1.414062 1.355468-3.632812 1.40625-5.109375.113281l-30.3125-26.535156v188.367187c46.15625-1.644531 89.195313-15.5 125.988281-38.445312v-149.921875l-30.3125 26.535156c-1.476562 1.292969-3.695312 1.242187-5.109375-.113281zm0 0" fill="#f15424"/><path d="m330.878906 325.957031c-1.464844-1.402343-3.773437-1.402343-5.234375 0l-24.957031 23.914063c-.699219.671875-1.59375 1.019531-2.5 1.050781v157.597656c20.964844-3.476562 41.066406-9.496093 59.984375-17.742187v-139.867188c-.851563-.0625-1.683594-.40625-2.339844-1.039062zm0 0" fill="#ff6d3b"/><path d="m339.726562 184.828125-3.75-10.09375c-2.449218-6.582031-11.742187-6.613281-14.234374-.050781l-18.429688 48.546875h21.835938zm0 0" fill="#242d3c"/><path d="m119.5 109.78125h-52.621094c-4.074218 0-7.378906-3.304688-7.378906-7.382812v-25.238282c0-4.074218 3.304688-7.378906 7.378906-7.378906h52.621094c11.046875 0 20 8.953125 20 20s-8.953125 20-20 20zm0 0" fill="#f2f2f2"/><path d="m89.5 102.402344v-25.242188c0-4.074218 3.304688-7.378906 7.382812-7.378906h-30c-4.078124 0-7.382812 3.304688-7.382812 7.378906v25.242188c0 4.074218 3.304688 7.378906 7.382812 7.378906h30c-4.078124 0-7.382812-3.304688-7.382812-7.378906zm0 0" fill="#d9d8d7"/><path d="m119.5 189.78125h-52.621094c-4.074218 0-7.378906-3.304688-7.378906-7.382812v-25.238282c0-4.074218 3.304688-7.378906 7.378906-7.378906h52.621094c11.046875 0 20 8.953125 20 20s-8.953125 20-20 20zm0 0" fill="#f2f2f2"/><path d="m89.5 182.402344v-25.242188c0-4.074218 3.304688-7.378906 7.382812-7.378906h-30c-4.078124 0-7.382812 3.304688-7.382812 7.378906v25.242188c0 4.074218 3.304688 7.378906 7.382812 7.378906h30c-4.078124 0-7.382812-3.304688-7.382812-7.378906zm0 0" fill="#d9d8d7"/><path d="m119.5 269.78125h-52.621094c-4.074218 0-7.378906-3.304688-7.378906-7.382812v-25.238282c0-4.074218 3.304688-7.378906 7.378906-7.378906h52.621094c11.046875 0 20 8.953125 20 20s-8.953125 20-20 20zm0 0" fill="#f2f2f2"/><path d="m89.5 262.402344v-25.242188c0-4.074218 3.304688-7.378906 7.382812-7.378906h-30c-4.078124 0-7.382812 3.304688-7.382812 7.378906v25.242188c0 4.074218 3.304688 7.378906 7.382812 7.378906h30c-4.078124 0-7.382812-3.304688-7.382812-7.378906zm0 0" fill="#d9d8d7"/><path d="m119.5 349.78125h-52.621094c-4.074218 0-7.378906-3.304688-7.378906-7.382812v-25.238282c0-4.074218 3.304688-7.378906 7.378906-7.378906h52.621094c11.046875 0 20 8.953125 20 20s-8.953125 20-20 20zm0 0" fill="#f2f2f2"/><path d="m89.5 342.402344v-25.242188c0-4.074218 3.304688-7.378906 7.382812-7.378906h-30c-4.078124 0-7.382812 3.304688-7.382812 7.378906v25.242188c0 4.074218 3.304688 7.378906 7.382812 7.378906h30c-4.078124 0-7.382812-3.304688-7.382812-7.378906zm0 0" fill="#d9d8d7"/><path d="m119.5 429.78125h-52.621094c-4.074218 0-7.378906-3.304688-7.378906-7.382812v-25.238282c0-4.074218 3.304688-7.378906 7.378906-7.378906h52.621094c11.046875 0 20 8.953125 20 20s-8.953125 20-20 20zm0 0" fill="#f2f2f2"/><path d="m89.5 422.402344v-25.242188c0-4.074218 3.304688-7.378906 7.382812-7.378906h-30c-4.078124 0-7.382812 3.304688-7.382812 7.378906v25.242188c0 4.074218 3.304688 7.378906 7.382812 7.378906h30c-4.078124 0-7.382812-3.304688-7.382812-7.378906zm0 0" fill="#d9d8d7"/></svg>