<?xml version="1.0" encoding="iso-8859-1"?>
<!-- Generator: Adobe Illustrator 19.0.0, SVG Export Plug-In . SVG Version: 6.00 Build 0)  -->
<svg version="1.1" id="Capa_1" xmlns="http://www.w3.org/2000/svg" xmlns:xlink="http://www.w3.org/1999/xlink" x="0px" y="0px"
	 viewBox="0 0 512 512" style="enable-background:new 0 0 512 512;" xml:space="preserve">
<path style="fill:#414669;" d="M512,256c0,141.385-114.615,256-256,256S0,397.385,0,256S114.615,0,256,0S512,114.615,512,256z"/>
<path style="fill:#82AAF0;" d="M449.162,256c0-106.359-85.964-192.631-192.202-193.149l0,0c-0.32-0.001-0.639-0.012-0.96-0.012
	c-106.359,0-192.631,85.964-193.149,192.202l0,0c-0.001,0.32-0.012,0.639-0.012,0.959c0,106.359,85.964,192.631,192.202,193.149l0,0
	c0.32,0.001,0.639,0.012,0.96,0.012c106.359,0,192.631-85.964,193.149-192.202l0,0C449.151,256.639,449.162,256.321,449.162,256z
	 M256.876,349.15L256.876,349.15c-0.292,0.003-0.583,0.011-0.875,0.011c-51.159,0-92.68-41.238-93.151-92.286l0,0
	c-0.003-0.292-0.011-0.583-0.011-0.875c0-0.321,0.009-0.64,0.012-0.959l0,0c0.513-50.717,41.546-91.723,92.274-92.191l0,0
	c0.292-0.003,0.583-0.011,0.876-0.011c51.159,0,92.68,41.238,93.151,92.286l0,0c0.003,0.292,0.011,0.583,0.011,0.875
	c0,0.321-0.009,0.64-0.012,0.959l0,0C348.637,307.677,307.603,348.683,256.876,349.15z"/>
<path style="fill:#5F82C3;" d="M256,62.838c0.321,0,0.639,0.011,0.96,0.012v100c-0.32-0.003-0.639-0.012-0.96-0.012
	c-25.704,0-48.977,10.411-65.833,27.245l-70.711-70.711C154.409,84.442,202.681,62.838,256,62.838z"/>
<path style="fill:#FFFAD2;" d="M449.162,256c0,0.321-0.011,0.639-0.012,0.96h-100c0.003-0.32,0.012-0.639,0.012-0.96
	c0-51.452-41.71-93.161-93.162-93.161c-0.293,0-0.583,0.008-0.875,0.011v-100c0.292-0.001,0.583-0.011,0.875-0.011
	C362.68,62.839,449.162,149.32,449.162,256z"/>
<path style="fill:#FFF091;" d="M449.162,256c0,0.321-0.011,0.639-0.012,0.96h-100c0.003-0.32,0.012-0.639,0.012-0.96
	c0-25.704-10.411-48.977-27.245-65.833l70.711-70.711C427.558,154.409,449.162,202.681,449.162,256z"/>
<path style="fill:#FFC396;" d="M256,449.162c-0.321,0-0.639-0.011-0.96-0.012v-100c0.32,0.003,0.639,0.012,0.96,0.012
	c51.452,0,93.161-41.71,93.161-93.162c0-0.293-0.008-0.583-0.011-0.875h100c0.001,0.292,0.011,0.583,0.011,0.875
	C449.162,362.68,362.68,449.162,256,449.162z"/>
<path style="fill:#FF9B69;" d="M256,449.162c-0.321,0-0.639-0.011-0.96-0.012v-100c0.32,0.003,0.639,0.012,0.96,0.012
	c25.704,0,48.977-10.411,65.833-27.245l70.711,70.711C357.591,427.558,309.319,449.162,256,449.162z"/>
<path style="fill:#3CAF96;" d="M62.838,256c0-0.321,0.011-0.639,0.012-0.96h100c-0.003,0.32-0.012,0.639-0.012,0.96
	c0,51.452,41.71,93.161,93.162,93.161c0.293,0,0.583-0.008,0.875-0.011v100c-0.292,0.001-0.583,0.011-0.875,0.011
	C149.32,449.161,62.838,362.68,62.838,256z"/>
<path style="fill:#1E9682;" d="M62.838,256c0-0.321,0.011-0.639,0.012-0.96h100c-0.003,0.32-0.012,0.639-0.012,0.96
	c0,25.704,10.411,48.977,27.245,65.833l-70.711,70.711C84.442,357.591,62.838,309.319,62.838,256z"/>
<path style="fill:#FF5019;" d="M340.679,459.322L340.679,459.322c-24.084-24.084-27.539-61.929-8.215-89.976l58.136-84.381
	l58.136,84.381c19.324,28.047,15.868,65.892-8.215,89.975l0,0C412.95,486.893,368.25,486.893,340.679,459.322z"/>
<path style="fill:#FF784B;" d="M440.521,459.322L440.521,459.322c-2.844,2.843-5.872,5.389-9.042,7.646
	c-20.015-2.37-39.408-11.233-54.766-26.591l0,0c-31.728-31.728-36.281-81.586-10.823-118.536l25.058-36.37l57.788,83.876
	C468.06,397.393,464.605,435.238,440.521,459.322z"/>
<g>
</g>
<g>
</g>
<g>
</g>
<g>
</g>
<g>
</g>
<g>
</g>
<g>
</g>
<g>
</g>
<g>
</g>
<g>
</g>
<g>
</g>
<g>
</g>
<g>
</g>
<g>
</g>
<g>
</g>
</svg>
