<?xml version="1.0" encoding="iso-8859-1"?>
<!-- Generator: Adobe Illustrator 19.0.0, SVG Export Plug-In . SVG Version: 6.00 Build 0)  -->
<svg version="1.1" id="Capa_1" xmlns="http://www.w3.org/2000/svg" xmlns:xlink="http://www.w3.org/1999/xlink" x="0px" y="0px"
	 viewBox="0 0 512 512" style="enable-background:new 0 0 512 512;" xml:space="preserve">
<path style="fill:#91B9FF;" d="M512,256c0,141.385-114.615,256-256,256S0,397.385,0,256S114.615,0,256,0S512,114.615,512,256z"/>
<path style="fill:#495959;" d="M487.919,51.328l-4.552,13.656l1.124,1.124c1.953,1.953,1.953,5.118,0,7.071l-5.785,5.784l-0.39,1.17
	c-0.249,0.006-0.506-0.002-0.766-0.014l-0.131,0.131c-1.953,1.953-5.118,1.953-7.071,0L452.67,62.572
	c-1.953-1.953-1.953-5.118,0-7.071l0.131-0.131c-0.013-0.259-0.021-0.516-0.014-0.766l1.17-0.39l5.785-5.784
	c1.953-1.953,5.119-1.953,7.071,0l1.124,1.124l13.656-4.552C485.504,43.7,489.222,47.419,487.919,51.328z"/>
<path style="fill:#55696E;" d="M58.037,418.317L397.871,78.483c3.905-3.905,10.237-3.905,14.142,0l42.426,42.426
	c3.905,3.905,3.905,10.237,0,14.142L117.9,471.591C95.253,457.055,75.052,439.044,58.037,418.317z"/>
<path style="fill:#3F4A4A;" d="M412.013,78.483l24.039,24.039c-3.905-3.905-10.237-3.905-14.142,0L81.315,443.116
	c-8.291-7.744-16.074-16.024-23.278-24.799L397.871,78.483C401.776,74.578,408.108,74.578,412.013,78.483z"/>
<path style="fill:#323C3C;" d="M291.805,241.117L291.805,241.117c-5.858-5.858-5.858-15.355,0-21.213l35.355-35.355
	c5.858-5.858,15.355-5.858,21.213,0l0,0c5.858,5.858,5.858,15.355,0,21.213l-35.355,35.355
	C307.161,246.975,297.663,246.975,291.805,241.117z"/>
<path style="fill:#82D2AF;" d="M341.303,205.762c-3.905,3.905-10.237,3.905-14.142,0s-3.905-10.237,0-14.142s10.237-3.905,14.142,0
	S345.208,201.857,341.303,205.762z"/>
<path style="fill:#87A0AF;" d="M453.733,135.758l-7.071,7.071L390.093,86.26l7.071-7.071l0.01,0.01
	c9.165-8.951,20.237-15.716,32.399-19.77l23.451-7.817c1.974-0.658,4.138-0.025,5.454,1.588c2.946,3.613,6.347,7.381,10.105,11.14
	c3.758,3.758,7.527,7.158,11.14,10.105c1.613,1.315,2.246,3.48,1.588,5.454l-7.817,23.451c-4.054,12.161-10.819,23.234-19.77,32.399
	L453.733,135.758z"/>
<path style="fill:#80391B;" d="M37.25,51.25c23.913,23.458,71.358,4.485,108.414,22.086c10.802,5.131,20.689,12.9,28.802,24.99
	c6.605,9.844,9.365,22.108,9.365,34.657l0,0c0,17.676-6.665,33.795-17.618,45.982c-12.597,14.015-30.865,22.829-51.193,22.829l0,0
	c-23.664,0-44.923-12.043-57.359-30.785c-5.01-7.55-8.588-16.188-10.315-25.564L32.25,52c-0.651-3.534-0.611-2.298,2.923-1.647l0,0
	C35.924,50.491,36.705,50.715,37.25,51.25z"/>
<path style="fill:#FF5A5F;" d="M149.422,75.26c0.673,4.223-0.604,8.696-3.859,11.951l0,0c-4.665,4.665-11.833,5.288-17.176,1.885
	l-2.123-2.123c-5.395-5.395-14.142-5.395-19.537,0l0,0c-5.395,5.395-5.395,14.142,0,19.537l28.172,28.172
	c3.403,5.343,2.78,12.511-1.885,17.176s-11.833,5.287-17.176,1.885l-28.172-28.172c-5.395-5.395-14.142-5.395-19.537,0
	c-5.395,5.395-5.395,14.142,0,19.537l8.635,8.635c3.403,5.343,2.78,12.511-1.885,17.176c-4.116,4.116-10.181,5.081-15.222,2.916
	c-6.053-8.194-10.365-17.819-12.312-28.39L28.82,50.799c-0.651-3.534,2.44-6.625,5.974-5.974c0.751,0.138,1.532,0.363,2.077,0.898
	C61.601,69.983,111.903,54.78,149.422,75.26z"/>
<path style="fill:#B9783D;" d="M397.287,469.494L180.783,252.99c-13.839-13.84-13.839-36.278,0-50.117l3.394-3.394
	c13.839-13.84,36.278-13.84,50.117,0l72.085,72.085l147.214,147.214C437.463,438.334,418.477,455.442,397.287,469.494z"/>
<path style="fill:#965028;" d="M397.287,469.494L182.48,254.687c-14.777-14.777-14.777-38.735,0-53.512l0,0
	c4.067-4.067,8.831-7.008,13.906-8.836c-4.815,13.365-1.874,28.895,8.836,39.605l217.942,217.942
	C414.976,456.951,406.33,463.497,397.287,469.494z"/>
<path style="fill:#F5DA73;" d="M180.732,145.915c0.67,0.67,1.323,1.355,1.967,2.046l0.04-0.04l53.512,53.512l-0.001-0.001
	l0.757,0.757l-53.512,53.512l-18.164-18.164l0,0l-36.104-36.104l0.04-0.04c-0.692-0.645-1.376-1.297-2.046-1.967l0,0
	c-3.694-3.694,5.29-18.668,20.067-33.445C162.064,151.205,177.038,142.221,180.732,145.915L180.732,145.915z"/>
<path style="fill:#D6A74F;" d="M208.224,207.246c-0.558,0.638-1.141,1.262-1.749,1.87l-11.808,11.808l11.803,11.803l-22.974,22.974
	l-18.164-18.164l-1.294-1.294l0,0l-13.378-13.378l0,0l-21.432-21.432l0.04-0.04c-0.692-0.645-1.376-1.297-2.046-1.967l0,0
	c-3.694-3.694,5.29-18.668,20.067-33.445c4.112-4.112,8.239-7.774,12.134-10.84c-7.953,10.102-11.893,18.645-9.227,21.311l0,0
	c0.67,0.67,1.355,1.322,2.046,1.967l-0.04,0.04l8.054,8.054l11.808-11.808c0.35-0.35,0.691-0.704,1.024-1.064
	c3.646-3.939,9.776-4.189,13.572-0.393l0.155,0.155c3.497,3.497,3.63,9.086,0.376,12.81c-0.558,0.638-1.141,1.262-1.749,1.871
	l-11.808,11.808l7.655,7.655l11.808-11.808c0.35-0.35,0.691-0.705,1.024-1.064c3.646-3.939,9.776-4.189,13.572-0.393l0.155,0.155
	C211.345,197.933,211.478,203.522,208.224,207.246z"/>
<g>
</g>
<g>
</g>
<g>
</g>
<g>
</g>
<g>
</g>
<g>
</g>
<g>
</g>
<g>
</g>
<g>
</g>
<g>
</g>
<g>
</g>
<g>
</g>
<g>
</g>
<g>
</g>
<g>
</g>
</svg>
