<?xml version="1.0" encoding="iso-8859-1"?>
<!-- Generator: Adobe Illustrator 19.0.0, SVG Export Plug-In . SVG Version: 6.00 Build 0)  -->
<svg version="1.1" id="Capa_1" xmlns="http://www.w3.org/2000/svg" xmlns:xlink="http://www.w3.org/1999/xlink" x="0px" y="0px"
	 viewBox="0 0 512 512" style="enable-background:new 0 0 512 512;" xml:space="preserve">
<path style="fill:#91B9FF;" d="M58.117,418.417C21.804,374.226,0,317.661,0,256C0,114.615,114.615,0,256,0s256,114.615,256,256
	c0,61.661-21.804,118.226-58.117,162.417c-3.28-6.564-10.046-11.083-17.883-11.083h-15.336H91.336H76
	C68.163,407.333,61.397,411.852,58.117,418.417z"/>
<path style="fill:#D29650;" d="M456,80v16.212V260v155.788c-7.629,9.537-15.937,18.505-24.831,26.857
	c-0.972-3.094-2.767-5.906-5.246-8.104c-0.038-0.034-0.076-0.067-0.114-0.101c-3.25-2.877-7.457-4.44-11.797-4.44H97.988
	c-4.34,0-8.547,1.562-11.797,4.44c-0.038,0.034-0.076,0.067-0.114,0.101c-2.479,2.198-4.274,5.01-5.246,8.104
	c-8.894-8.351-17.202-17.32-24.831-26.857V260V96.212V80c0-11.046,8.954-20,20-20h15.336h329.327H436C447.046,60,456,68.954,456,80z
	"/>
<path style="fill:#FFEBDC;" d="M432,77.974v363.918C386.122,485.343,324.176,512,256,512s-130.122-26.657-176-70.108V77.974
	c0-5.143,2.229-10.021,6.077-13.433c0.038-0.034,0.076-0.067,0.114-0.101C89.44,61.562,93.647,60,97.988,60h316.024
	c4.34,0,8.547,1.562,11.797,4.44c0.038,0.034,0.076,0.067,0.114,0.101C429.771,67.953,432,72.831,432,77.974z"/>
<path style="fill:#D29650;" d="M140,102c0,11.046-8.954,20-20,20s-20-8.954-20-20s8.954-20,20-20S140,90.954,140,102z M174,82
	c-11.046,0-20,8.954-20,20s8.954,20,20,20s20-8.954,20-20S185.046,82,174,82z M228,82c-11.046,0-20,8.954-20,20s8.954,20,20,20
	s20-8.954,20-20S239.046,82,228,82z M282,82c-11.046,0-20,8.954-20,20s8.954,20,20,20s20-8.954,20-20S293.046,82,282,82z M336,82
	c-11.046,0-20,8.954-20,20s8.954,20,20,20s20-8.954,20-20S347.046,82,336,82z M390,82c-11.046,0-20,8.954-20,20s8.954,20,20,20
	s20-8.954,20-20S401.046,82,390,82z"/>
<path style="fill:#AA6432;" d="M194,102c0,11.046-8.954,20-20,20c-8.657,0-16.008-5.511-18.792-13.208
	C157.332,109.56,159.612,110,162,110c11.046,0,20-8.954,20-20c0-2.388-0.44-4.668-1.208-6.792C188.489,85.992,194,93.343,194,102z
	 M234.792,83.208C235.56,85.332,236,87.612,236,90c0,11.046-8.954,20-20,20c-2.388,0-4.668-0.44-6.792-1.208
	C211.992,116.489,219.343,122,228,122c11.046,0,20-8.954,20-20C248,93.343,242.489,85.992,234.792,83.208z M126.792,83.208
	C127.56,85.332,128,87.612,128,90c0,11.046-8.954,20-20,20c-2.388,0-4.668-0.44-6.792-1.208C103.992,116.489,111.343,122,120,122
	c11.046,0,20-8.954,20-20C140,93.343,134.489,85.992,126.792,83.208z M396.792,83.208C397.56,85.332,398,87.612,398,90
	c0,11.046-8.954,20-20,20c-2.388,0-4.668-0.44-6.792-1.208C373.992,116.489,381.343,122,390,122c11.046,0,20-8.954,20-20
	C410,93.343,404.489,85.992,396.792,83.208z M288.792,83.208C289.56,85.332,290,87.612,290,90c0,11.046-8.954,20-20,20
	c-2.388,0-4.668-0.44-6.792-1.208C265.992,116.489,273.343,122,282,122c11.046,0,20-8.954,20-20
	C302,93.343,296.489,85.992,288.792,83.208z M342.792,83.208C343.56,85.332,344,87.612,344,90c0,11.046-8.954,20-20,20
	c-2.388,0-4.668-0.44-6.792-1.208C319.992,116.489,327.343,122,336,122c11.046,0,20-8.954,20-20
	C356,93.343,350.489,85.992,342.792,83.208z"/>
<path style="fill:#55696E;" d="M387.5,60v22c0,0.167,0.021,0.329,0.029,0.494C387.792,89.156,393.274,94.5,400,94.5
	c2.75,0,5.288-0.904,7.354-2.415C409.029,95.01,410,98.388,410,102c0,2.07-0.315,4.067-0.899,5.945
	c-2.851,1.003-5.912,1.555-9.101,1.555c-11.67,0-21.65-7.315-25.635-17.595c-0.001,0.002-0.002,0.003-0.004,0.005
	c-0.163-0.419-0.537-1.483-0.572-1.591c0.004-0.005,0.008-0.009,0.012-0.014c-0.837-2.622-1.301-5.408-1.301-8.304V60h-14
	c0-6.893-5.607-12.5-12.5-12.5s-12.5,5.607-12.5,12.5v22c0,0.167,0.021,0.329,0.029,0.494C333.792,89.156,339.274,94.5,346,94.5
	c2.75,0,5.288-0.904,7.354-2.415C355.029,95.01,356,98.388,356,102c0,2.07-0.315,4.067-0.899,5.945
	c-2.851,1.003-5.912,1.555-9.101,1.555c-11.67,0-21.65-7.315-25.635-17.595c-0.001,0.002-0.002,0.003-0.004,0.005
	c-0.163-0.419-0.537-1.483-0.572-1.591c0.004-0.005,0.008-0.009,0.012-0.014c-0.837-2.622-1.301-5.408-1.301-8.304V60h-14
	c0-6.893-5.607-12.5-12.5-12.5s-12.5,5.607-12.5,12.5v22c0,0.167,0.021,0.329,0.029,0.494C279.792,89.156,285.275,94.5,292,94.5
	c2.75,0,5.288-0.904,7.354-2.415C301.029,95.01,302,98.388,302,102c0,2.07-0.315,4.067-0.899,5.945
	c-2.851,1.003-5.912,1.555-9.101,1.555c-11.67,0-21.65-7.315-25.635-17.595c-0.001,0.002-0.002,0.003-0.004,0.005
	c-0.163-0.419-0.537-1.483-0.572-1.591c0.004-0.005,0.008-0.009,0.011-0.014c-0.837-2.622-1.301-5.408-1.301-8.304V60h-14
	c0-6.893-5.607-12.5-12.5-12.5s-12.5,5.607-12.5,12.5v22c0,0.167,0.021,0.329,0.029,0.494C225.792,89.156,231.275,94.5,238,94.5
	c2.75,0,5.288-0.904,7.354-2.415C247.029,95.01,248,98.388,248,102c0,2.07-0.315,4.067-0.899,5.945
	c-2.851,1.003-5.912,1.555-9.101,1.555c-11.67,0-21.65-7.315-25.635-17.595c-0.001,0.002-0.002,0.003-0.004,0.005
	c-0.163-0.419-0.537-1.483-0.572-1.591c0.004-0.005,0.008-0.009,0.011-0.014c-0.837-2.622-1.301-5.408-1.301-8.304V60h-14
	c0-6.893-5.607-12.5-12.5-12.5s-12.5,5.607-12.5,12.5v22c0,0.167,0.021,0.329,0.029,0.494C171.792,89.156,177.275,94.5,184,94.5
	c2.75,0,5.288-0.904,7.354-2.415C193.029,95.01,194,98.388,194,102c0,2.07-0.315,4.067-0.899,5.945
	c-2.851,1.003-5.912,1.555-9.101,1.555c-11.67,0-21.65-7.315-25.635-17.595c-0.001,0.002-0.002,0.003-0.004,0.005
	c-0.163-0.419-0.537-1.483-0.572-1.591c0.004-0.005,0.008-0.009,0.011-0.014c-0.837-2.622-1.301-5.408-1.301-8.304V60h-14
	c0-6.893-5.607-12.5-12.5-12.5s-12.5,5.607-12.5,12.5v22c0,0.167,0.021,0.329,0.029,0.494C117.792,89.156,123.275,94.5,130,94.5
	c2.75,0,5.288-0.904,7.354-2.415C139.029,95.01,140,98.388,140,102c0,2.07-0.315,4.067-0.899,5.945
	c-2.851,1.003-5.912,1.555-9.101,1.555c-11.67,0-21.65-7.315-25.635-17.595c-0.001,0.002-0.002,0.003-0.004,0.005
	c-0.163-0.419-0.537-1.483-0.572-1.591c0.004-0.005,0.008-0.009,0.011-0.014c-0.837-2.622-1.301-5.408-1.301-8.304V60
	c0-15.164,12.337-27.5,27.5-27.5c13.385,0,24.561,9.614,27,22.298c2.439-12.684,13.615-22.298,27-22.298s24.561,9.614,27,22.298
	c2.439-12.684,13.615-22.298,27-22.298s24.561,9.614,27,22.298c2.439-12.684,13.615-22.298,27-22.298s24.561,9.614,27,22.298
	c2.439-12.684,13.615-22.298,27-22.298s24.561,9.614,27,22.298c2.439-12.684,13.615-22.298,27-22.298
	c15.163,0,27.5,12.336,27.5,27.5h-15c0-6.893-5.607-12.5-12.5-12.5S387.5,53.107,387.5,60z"/>
<path style="fill:#3F4A4A;" d="M191.354,92.085C193.029,95.01,194,98.388,194,102c0,2.07-0.315,4.067-0.899,5.945
	c-2.851,1.003-5.912,1.555-9.101,1.555c-4.092,0-7.967-0.916-11.458-2.527c4.515-2.811,7.831-7.356,8.994-12.718
	c0.797,0.16,1.621,0.245,2.464,0.245C186.75,94.5,189.288,93.596,191.354,92.085z M238,94.5c-0.844,0-1.667-0.084-2.464-0.245
	c-1.163,5.362-4.479,9.907-8.994,12.718c3.491,1.611,7.366,2.527,11.458,2.527c3.189,0,6.251-0.552,9.101-1.555
	C247.685,106.067,248,104.07,248,102c0-3.612-0.971-6.99-2.646-9.915C243.288,93.596,240.75,94.5,238,94.5z M130,94.5
	c-0.844,0-1.667-0.084-2.464-0.245c-1.163,5.362-4.479,9.907-8.994,12.718c3.491,1.611,7.366,2.527,11.458,2.527
	c3.189,0,6.251-0.552,9.101-1.555C139.685,106.067,140,104.07,140,102c0-3.612-0.971-6.99-2.646-9.915
	C135.288,93.596,132.75,94.5,130,94.5z M407.354,92.085C405.288,93.596,402.75,94.5,400,94.5c-0.844,0-1.667-0.084-2.464-0.245
	c-1.163,5.362-4.479,9.907-8.994,12.718c3.491,1.611,7.366,2.527,11.458,2.527c3.189,0,6.251-0.552,9.101-1.555
	C409.685,106.067,410,104.07,410,102C410,98.388,409.029,95.01,407.354,92.085z M346,94.5c-0.844,0-1.667-0.084-2.464-0.245
	c-1.163,5.362-4.479,9.907-8.994,12.718c3.491,1.611,7.366,2.527,11.458,2.527c3.189,0,6.251-0.552,9.101-1.555
	C355.685,106.067,356,104.07,356,102c0-3.612-0.971-6.99-2.646-9.915C351.288,93.596,348.75,94.5,346,94.5z M292,94.5
	c-0.844,0-1.667-0.084-2.464-0.245c-1.163,5.362-4.479,9.907-8.994,12.718c3.491,1.611,7.366,2.527,11.458,2.527
	c3.189,0,6.251-0.552,9.101-1.555C301.685,106.067,302,104.07,302,102c0-3.612-0.971-6.99-2.646-9.915
	C297.288,93.596,294.75,94.5,292,94.5z"/>
<path style="fill:#FFD7AA;" d="M385.5,272.5h-22.266c-0.166-2.4-0.412-4.778-0.734-7.133V181c0-4.142-3.357-7.5-7.5-7.5h-84.367
	c-2.354-0.322-4.733-0.568-7.133-0.734V150.5c0-4.142-3.357-7.5-7.5-7.5s-7.5,3.358-7.5,7.5v22.266
	c-2.4,0.166-4.778,0.412-7.133,0.734H157c-4.143,0-7.5,3.358-7.5,7.5v84.367c-0.322,2.354-0.568,4.733-0.734,7.133H126.5
	c-4.143,0-7.5,3.358-7.5,7.5s3.357,7.5,7.5,7.5h22.266c0.166,2.4,0.412,4.778,0.734,7.133V379c0,4.142,3.357,7.5,7.5,7.5h84.367
	c2.354,0.322,4.733,0.568,7.133,0.734V409.5c0,4.142,3.357,7.5,7.5,7.5s7.5-3.358,7.5-7.5v-22.266
	c2.4-0.166,4.778-0.412,7.133-0.734H355c4.143,0,7.5-3.358,7.5-7.5v-84.367c0.322-2.354,0.568-4.733,0.734-7.133H385.5
	c4.143,0,7.5-3.358,7.5-7.5S389.643,272.5,385.5,272.5z M269.585,188.5c40.152,5.935,71.979,37.763,77.915,77.915v6.085h-84v-84
	H269.585z M248.5,188.5v84h-84v-6.085c5.935-40.152,37.763-71.979,77.915-77.915H248.5z M164.5,287.5h84v84h-6.085
	c-40.152-5.935-71.979-37.763-77.915-77.915V287.5z M263.5,371.5v-84h84v6.085c-5.936,40.152-37.763,71.979-77.915,77.915H263.5z
	 M347.5,188.5v35.136c-8.818-14.262-20.874-26.318-35.136-35.136H347.5z M164.5,188.5h35.136
	c-14.262,8.818-26.318,20.874-35.136,35.136V188.5z M164.5,371.5v-35.136c8.818,14.262,20.874,26.318,35.136,35.136H164.5z
	 M347.5,371.5h-35.136c14.262-8.818,26.318-20.874,35.136-35.136V371.5z"/>
<path style="fill:#FF6E73;" d="M390.545,393.097v80.717c-24.575,15.212-51.912,26.38-81.091,32.579V393.097
	c0-22.393,18.153-40.545,40.545-40.545l0,0C372.393,352.552,390.545,370.705,390.545,393.097z"/>
<path style="fill:#D74646;" d="M350,352.552c6.163,0,12.001,1.382,17.232,3.842c-13.774,6.478-23.313,20.474-23.313,36.704v103.405
	c-11.144,4.075-22.656,7.383-34.464,9.891V393.097C309.455,370.705,327.608,352.552,350,352.552L350,352.552z"/>
<path style="fill:#EDC85F;" d="M390.546,393.097L390.546,393.097c0,1.683-1.641,3.27-4.545,4.667
	c-9.443,4.542-20.767,2.303-28.177-5.107L350,384.834l-7.824,7.824c-7.409,7.409-18.734,9.649-28.177,5.107
	c-2.904-1.397-4.545-2.984-4.545-4.667l0,0c0-13.332,3.104-26.481,9.066-38.405l26.946-53.892c1.868-3.735,7.198-3.735,9.066,0
	l26.946,53.892C387.442,366.617,390.546,379.765,390.546,393.097z"/>
<path style="fill:#495959;" d="M331.703,328.329l13.764-27.529c1.868-3.735,7.198-3.735,9.066,0l13.764,27.529
	c-3.255,3.423-10.214,5.794-18.298,5.794S334.958,331.752,331.703,328.329z"/>
<g>
</g>
<g>
</g>
<g>
</g>
<g>
</g>
<g>
</g>
<g>
</g>
<g>
</g>
<g>
</g>
<g>
</g>
<g>
</g>
<g>
</g>
<g>
</g>
<g>
</g>
<g>
</g>
<g>
</g>
</svg>
