<svg height="512pt" viewBox="0 0 512 512" width="512pt" xmlns="http://www.w3.org/2000/svg"><path d="m512 256c0 141.386719-114.613281 256-256 256s-256-114.613281-256-256 114.613281-256 256-256 256 114.613281 256 256zm0 0" fill="#f2f2f2"/><path d="m171.703125 211.09375c17.511719 17.507812 17.511719 45.898438 0 63.40625l-16.347656 16.347656c-62.242188 62.242188-21.230469 169.503906 66.714843 173.195313 1.285157.054687 2.574219.097656 3.867188.128906 134.152344 3.421875 242.332031-105.496094 238.03125-239.625-4.117188-128.363281-112.449219-230.402344-243.160156-224.285156-118.796875 5.5625-214.632813 101.011719-220.660156 219.785156-.042969.808594-.0781255 1.621094-.1132818 2.429687-1.4570312 35.929688 41.8789058 55 67.3046878 29.574219l40.960937-40.957031c17.507813-17.507812 45.894531-17.507812 63.402344 0zm0 0" fill="#ffc640"/><path d="m33.0625 255.503906c.03125-.808594.070312-1.621094.109375-2.433594 6.027344-118.773437 101.867187-214.222656 220.664063-219.785156 60.007812-2.808594 115.289062 17.195313 157.945312 52.0625-44.738281-54.746094-113.964844-88.691406-190.972656-85.085937-118.796875 5.5625-214.632813 101.011719-220.660156 219.785156-.042969.808594-.0781255 1.621094-.1132818 2.429687-.8945312 22.042969 15.0742188 37.738282 33.4179688 40.707032-.355469-2.460938-.5-5.023438-.390625-7.679688zm0 0" fill="#ffb733"/><path d="m290.652344 373.859375c0 26.648437-21.597656 48.246094-48.246094 48.246094-26.644531 0-48.242188-21.597657-48.242188-48.246094 0-26.644531 21.597657-48.242187 48.242188-48.242187 26.648438 0 48.246094 21.597656 48.246094 48.242187zm0 0" fill="#465365"/><path d="m213.980469 393.675781c0-26.644531 21.597656-48.246093 48.242187-48.246093 8.222656 0 15.964844 2.0625 22.742188 5.691406-8.128906-15.175782-24.136719-25.503906-42.554688-25.503906-26.644531 0-48.246094 21.597656-48.246094 48.242187 0 18.421875 10.328126 34.425781 25.507813 42.554687-3.628906-6.773437-5.691406-14.515624-5.691406-22.738281zm0 0" fill="#3e4959"/><path d="m409.539062 279.960938c0 26.644531-21.597656 48.246093-48.242187 48.246093-26.648437 0-48.246094-21.601562-48.246094-48.246093 0-26.644532 21.597657-48.242188 48.246094-48.242188 26.644531 0 48.242187 21.597656 48.242187 48.242188zm0 0" fill="#fff"/><path d="m332.867188 299.777344c0-26.644532 21.597656-48.246094 48.242187-48.246094 8.226563 0 15.964844 2.0625 22.742187 5.691406-8.128906-15.175781-24.132812-25.503906-42.554687-25.503906-26.644531 0-48.246094 21.597656-48.246094 48.242188 0 18.421874 10.328125 34.425781 25.507813 42.554687-3.628906-6.777344-5.691406-14.515625-5.691406-22.738281zm0 0" fill="#f2f2f2"/><path d="m388.382812 136.335938c0 26.644531-21.597656 48.246093-48.242187 48.246093-26.648437 0-48.246094-21.601562-48.246094-48.246093 0-26.644532 21.597657-48.242188 48.246094-48.242188 26.644531 0 48.242187 21.597656 48.242187 48.242188zm0 0" fill="#21d8de"/><path d="m311.710938 156.152344c0-26.644532 21.597656-48.246094 48.242187-48.246094 8.222656 0 15.964844 2.066406 22.738281 5.691406-8.125-15.175781-24.128906-25.503906-42.550781-25.503906-26.648437 0-48.246094 21.597656-48.246094 48.246094 0 18.417968 10.328125 34.425781 25.503907 42.550781-3.625-6.773437-5.6875-14.515625-5.6875-22.738281zm0 0" fill="#16c6cc"/><path d="m242.40625 93.371094c0 26.648437-21.597656 48.246094-48.242188 48.246094-26.644531 0-48.246093-21.597657-48.246093-48.246094 0-26.644532 21.601562-48.242188 48.246093-48.242188 26.644532 0 48.242188 21.597656 48.242188 48.242188zm0 0" fill="#ff6d3b"/><path d="m165.734375 113.1875c0-26.644531 21.601563-48.242188 48.246094-48.242188 8.222656 0 15.960937 2.0625 22.738281 5.691407-8.128906-15.179688-24.132812-25.507813-42.554688-25.507813-26.644531 0-48.246093 21.601563-48.246093 48.246094 0 18.421875 10.328125 34.425781 25.507812 42.554688-3.628906-6.777344-5.691406-14.519532-5.691406-22.742188zm0 0" fill="#f15424"/><path d="m391.121094 315.042969c-2.113282-35.027344-49.433594-114.476563-63.34375-137.144531-1.746094-2.84375-5.878906-2.84375-7.625 0-13.910156 22.667968-61.230469 102.117187-63.339844 137.144531-2.476562 41.085937 30.460938 83.824219 30.460938 83.824219h73.382812s32.941406-42.738282 30.464844-83.824219zm0 0" fill="#fff"/><path d="m280.382812 315.042969c1.804688-29.921875 36.59375-92.25 55.371094-123.917969-3.207031-5.402344-5.949218-9.921875-7.976562-13.226562-1.746094-2.84375-5.878906-2.84375-7.625 0-13.910156 22.667968-61.230469 102.117187-63.339844 137.144531-2.476562 41.085937 30.460938 83.824219 30.460938 83.824219h23.574218s-32.941406-42.738282-30.464844-83.824219zm0 0" fill="#f2f2f2"/><path d="m282.054688 510.6875c29.742187-3.003906 57.976562-11.113281 83.828124-23.417969v-79.246093h-83.828124zm0 0" fill="#465365"/><path d="m282.054688 510.6875c7.96875-.804688 15.828124-1.992188 23.566406-3.511719v-99.152343h-23.566406zm0 0" fill="#3e4959"/><path d="m370.292969 427.695312h-92.652344c-2.761719 0-5-2.242187-5-5.003906v-29.347656c0-2.761719 2.238281-5 5-5h92.652344c2.761719 0 5.003906 2.238281 5.003906 5v29.347656c0 2.761719-2.242187 5.003906-5.003906 5.003906zm0 0" fill="#21d8de"/><path d="m296.210938 422.691406v-29.347656c0-2.761719 2.238281-5 5-5h-23.570313c-2.761719 0-5 2.238281-5 5v29.347656c0 2.761719 2.238281 5.003906 5 5.003906h23.570313c-2.761719 0-5-2.242187-5-5.003906zm0 0" fill="#16c6cc"/><path d="m391.121094 315.042969c-2.113282-35.027344-49.433594-114.476563-63.34375-137.144531-1.746094-2.84375-5.878906-2.84375-7.625 0-9.25 15.074218-33.269532 55.257812-48.949219 90.789062 12.84375-26.832031 45.410156-4.878906 46.824219 34.011719 1.414062 38.890625 32.070312 51.621093 47.855468 38.890625 14.878907-11.996094 23.078126-2.074219 19.78125 9.570312 3.769532-11.394531 6.195313-23.828125 5.457032-36.117187zm0 0" fill="#ff6d3b"/><path d="m298.394531 260.703125c11.863281-25.472656 27.03125-52.160156 37.359375-69.578125-3.207031-5.402344-5.949218-9.921875-7.976562-13.226562-1.746094-2.84375-5.878906-2.84375-7.625 0-9.25 15.074218-33.269532 55.257812-48.949219 90.789062 6.3125-13.1875 17.390625-14.585938 27.191406-7.984375zm0 0" fill="#f15424"/></svg>