<?xml version="1.0" encoding="iso-8859-1"?>
<!-- Generator: Adobe Illustrator 19.0.0, SVG Export Plug-In . SVG Version: 6.00 Build 0)  -->
<svg version="1.1" id="Capa_1" xmlns="http://www.w3.org/2000/svg" xmlns:xlink="http://www.w3.org/1999/xlink" x="0px" y="0px"
	 viewBox="0 0 512 512" style="enable-background:new 0 0 512 512;" xml:space="preserve">
<path style="fill:#FF5A5F;" d="M485.258,370C443.324,454.168,356.423,512,256,512C114.615,512,0,397.385,0,256S114.615,0,256,0
	c95.576,0,178.907,52.384,222.88,130H478c-5.523,0-10,4.477-10,10v220c0,5.523,4.477,10,10,10H485.258z"/>
<path style="fill:#B4D2D7;" d="M234.335,367.431H48.013L20.989,70.16C20.493,64.704,24.788,60,30.266,60h221.815
	c5.478,0,9.774,4.704,9.278,10.16L234.335,367.431z"/>
<path style="fill:#9BB9C3;" d="M60.039,70.159L87.064,367.43H48.013L20.989,70.159C20.493,64.704,24.788,60,30.266,60h39.051
	C63.839,60,59.543,64.704,60.039,70.159z"/>
<path style="fill:#91B9FF;" d="M173.78,199.741h75.799L234.335,367.43H48.013L30.228,171.793h59.708
	c15.118,0,29.828,4.903,41.922,13.974l0,0C143.952,194.838,158.662,199.741,173.78,199.741z"/>
<path style="fill:#82AAF0;" d="M70,171.793l17.785,195.638H48.013L30.228,171.793H70z"/>
<path style="fill:#FFFAD2;" d="M478.88,130C499.956,167.201,512,210.191,512,256c0,40.962-9.637,79.668-26.742,114H150
	c-5.523,0-10-4.477-10-10V140c0-5.523,4.477-10,10-10H478.88z"/>
<path style="fill:#F09196;" d="M256,200c0,22.091-17.909,40-40,40s-40-17.909-40-40s17.909-40,40-40S256,177.909,256,200z"/>
<path style="fill:#FFA0A5;" d="M256,200c0,5.868-1.274,11.436-3.544,16.456C247.435,218.726,241.868,220,236,220
	c-22.091,0-40-17.909-40-40c0-5.868,1.274-11.435,3.544-16.456C204.565,161.274,210.132,160,216,160
	C238.091,160,256,177.909,256,200z"/>
<path style="fill:#E3B954;" d="M256,300c0,22.091-17.909,40-40,40s-40-17.909-40-40s17.909-40,40-40S256,277.909,256,300z"/>
<path style="fill:#F5DA73;" d="M256,300c0,5.868-1.274,11.436-3.544,16.456C247.435,318.726,241.868,320,236,320
	c-22.091,0-40-17.909-40-40c0-5.868,1.274-11.435,3.544-16.456C204.565,261.274,210.132,260,216,260
	C238.091,260,256,277.909,256,300z"/>
<path style="fill:#FF784B;" d="M476,200c0,22.091-17.909,40-40,40s-40-17.909-40-40s17.909-40,40-40S476,177.909,476,200z"/>
<path style="fill:#FF9B69;" d="M476,200c0,5.868-1.274,11.436-3.544,16.456C467.435,218.726,461.868,220,456,220
	c-22.091,0-40-17.909-40-40c0-5.868,1.274-11.435,3.544-16.456C424.565,161.274,430.132,160,436,160
	C458.091,160,476,177.909,476,200z"/>
<path style="fill:#B9783D;" d="M476,300c0,22.091-17.909,40-40,40s-40-17.909-40-40s17.909-40,40-40S476,277.909,476,300z"/>
<path style="fill:#D29650;" d="M476,300c0,5.868-1.274,11.436-3.544,16.456C467.435,318.726,461.868,320,456,320
	c-22.091,0-40-17.909-40-40c0-5.868,1.274-11.435,3.544-16.456C424.565,261.274,430.132,260,436,260
	C458.091,260,476,277.909,476,300z"/>
<path style="fill:#82AAF0;" d="M366,300c0,22.091-17.909,40-40,40s-40-17.909-40-40s17.909-40,40-40S366,277.909,366,300z"/>
<path style="fill:#91B9FF;" d="M366,300c0,5.868-1.274,11.436-3.544,16.456C357.435,318.726,351.868,320,346,320
	c-22.091,0-40-17.909-40-40c0-5.868,1.274-11.435,3.544-16.456C314.565,261.274,320.132,260,326,260
	C348.091,260,366,277.909,366,300z"/>
<path style="fill:#5AC3A5;" d="M366,200c0,22.091-17.909,40-40,40s-40-17.909-40-40s17.909-40,40-40S366,177.909,366,200z"/>
<path style="fill:#82D2AF;" d="M366,200c0,5.868-1.274,11.436-3.544,16.456C357.435,218.726,351.868,220,346,220
	c-22.091,0-40-17.909-40-40c0-5.868,1.274-11.435,3.544-16.456C314.565,161.274,320.132,160,326,160
	C348.091,160,366,177.909,366,200z"/>
<path style="fill:#80391B;" d="M309.252,418.759c-31.715,0-40.194-12.886-60.943-33.705c20.749-20.818,29.228-33.705,60.943-33.705
	c4.844,0,10.09,0.301,15.576,0.884c30.428,3.237,65.26,15.182,82.839,32.82c-17.579,17.638-52.411,29.583-82.838,32.82
	C319.342,418.458,314.096,418.759,309.252,418.759z"/>
<path style="fill:#91B9FF;" d="M410.64,385.054c-17.58,17.639-55.384,29.58-85.812,32.817c-5.578-0.559-9.934-5.266-9.934-10.991
	c0-5.301,3.74-9.708,8.722-10.778h21.475c6.102,0,11.048-4.946,11.048-11.048c0-6.101-4.946-11.047-11.048-11.047h-21.475
	c-4.981-1.07-8.722-5.478-8.722-10.778c0-5.725,4.355-10.432,9.933-10.991C355.256,355.474,393.06,367.415,410.64,385.054z
	 M433.833,422.324l-19.795-28.731l-19.795,28.731c-6.58,9.55-5.403,22.436,2.797,30.636c9.387,9.387,24.607,9.387,33.995,0
	C439.236,444.759,440.413,431.874,433.833,422.324z"/>
<path style="fill:#82AAF0;" d="M433.98,449.364c-0.854,1.27-1.828,2.479-2.944,3.595c-9.388,9.387-24.608,9.387-33.995,0
	c-8.2-8.2-9.377-21.086-2.797-30.636l6.595-9.573c-1.097,9.696,2.133,19.694,9.425,26.986
	C416.803,446.276,425.41,449.48,433.98,449.364z"/>
<path style="fill:#55696E;" d="M268.069,383.211v3.687c0,15.035-12.188,27.223-27.223,27.223H54.657
	c-13.883-17.653-25.491-37.178-34.39-58.132H55.62h78.858h106.367C255.881,355.988,268.069,368.176,268.069,383.211z"/>
<path style="fill:#3F4A4A;" d="M265.315,372.701c1.763,3.75,2.754,7.935,2.754,12.353l0,0c0,16.053-13.013,29.066-29.066,29.066
	H54.657c-6.193-7.875-11.928-16.126-17.178-24.706h201.523C250.637,389.414,260.671,382.576,265.315,372.701z"/>
<path style="fill:#B4D2D7;" d="M275.581,355.988c4.013,0,7.267,13.013,7.267,29.066s-3.254,29.066-7.267,29.066l0,0
	c-0.728,0-1.454-0.017-2.18-0.043v0.043H234.18l0,0h-19.732v-58.132h0.823h-0.001h58.132v0.043
	C274.127,356.006,274.853,355.988,275.581,355.988L275.581,355.988z"/>
<path style="fill:#9BB9C3;" d="M282.847,385.054c0,16.052-3.253,29.066-7.267,29.066l0,0c-0.728,0-1.454-0.018-2.18-0.043v0.043
	h-23.282h-14.533h-1.406h-19.733v-24.958h12.822v-12.828c0-0.661,0.022-1.316,0.066-1.966c0.255-3.79,3.364-6.754,7.162-6.754h0.169
	c4.123,0,7.318,3.466,7.158,7.586c-0.015,0.376-0.022,0.754-0.022,1.134v12.828h8.316v-12.828c0-0.661,0.022-1.316,0.066-1.966
	c0.255-3.79,3.364-6.754,7.162-6.754h0.169c4.123,0,7.318,3.466,7.158,7.586c-0.015,0.376-0.022,0.754-0.022,1.134v12.828h8.749
	v-0.043c0.726,0.026,1.452,0.043,2.18,0.043l0,0c2.896,0,5.396-6.78,6.564-16.587C282.595,376.357,282.847,380.587,282.847,385.054z
	"/>
<g>
</g>
<g>
</g>
<g>
</g>
<g>
</g>
<g>
</g>
<g>
</g>
<g>
</g>
<g>
</g>
<g>
</g>
<g>
</g>
<g>
</g>
<g>
</g>
<g>
</g>
<g>
</g>
<g>
</g>
</svg>
