<?xml version="1.0" encoding="iso-8859-1"?>
<!-- Generator: Adobe Illustrator 19.0.0, SVG Export Plug-In . SVG Version: 6.00 Build 0)  -->
<svg version="1.1" id="Capa_1" xmlns="http://www.w3.org/2000/svg" xmlns:xlink="http://www.w3.org/1999/xlink" x="0px" y="0px"
	 viewBox="0 0 512 512" style="enable-background:new 0 0 512 512;" xml:space="preserve">
<path style="fill:#FFE67D;" d="M512,256c0,141.385-114.615,256-256,256S0,397.385,0,256S114.615,0,256,0S512,114.615,512,256z"/>
<path style="fill:#80391B;" d="M453.447,38.523c-24.681,25.159-5.947,77.644-22.685,111.858
	c-5.13,10.487-13.11,19.919-24.873,27.812c-10.181,6.832-22.865,9.686-35.844,9.686l0,0c-18.281,0-34.953-6.893-47.557-18.222
	c-14.495-13.028-23.61-31.922-23.61-52.945l0,0c0-23.559,11.542-44.814,29.695-57.843C336.875,52.911,452,33.25,452,33.25
	c3.655-0.673,3.048-0.53,2.375,3.125l0,0C454.232,37.152,454,37.959,453.447,38.523z"/>
<path style="fill:#5AC3A5;" d="M512,201.557c0,22.392-19.325,40.27-42.207,37.866c-17.449-1.833-31.538-15.704-33.669-33.12
	c-0.805-6.575,0.093-12.856,2.278-18.495c0.22-0.723,0.466-1.429,0.772-2.092c11.824-25.607,25.324-39.514,28.779-67.194
	c0.227-1.821,2.585-2.399,3.626-0.888l26.944,39.108c5.514,8.004,9.331,16.737,11.493,25.742c1.462,6.091,2.119,12.122,1.953,17.818
	C511.982,200.72,512,201.137,512,201.557z M461.221,33.739c0.673-3.655-2.523-6.852-6.179-6.179l-97.886,19.161
	c-11.54,2.125-21.997,6.965-30.766,13.784c-1.587,5.342-0.175,11.117,3.838,15.13c5.024,5.024,13.02,5.901,19.008,2.085l9.101-9.067
	c2.51-2.51,5.847-3.892,9.396-3.892s6.886,1.382,9.396,3.892c5.181,5.181,5.181,13.611,0,18.792l-29.136,29.137l-0.136,0.17
	c-3.815,5.991-2.938,13.985,2.085,19.008c5.024,5.024,13.018,5.902,19.008,2.085l29.307-29.273c2.51-2.51,5.847-3.892,9.396-3.892
	c3.549,0,6.886,1.382,9.396,3.892c5.181,5.181,5.181,13.611,0,18.792l-2.195,2.195l-0.136,0.17
	c-3.815,5.991-2.938,13.985,2.085,19.008c2.874,2.875,6.791,4.462,10.819,4.462c0.557,0,1.117-0.042,1.676-0.104
	c21.846-38.887,5.732-91.454,30.997-117.209C460.846,35.324,461.078,34.516,461.221,33.739z"/>
<path style="fill:#506EA0;" d="M299.755,189.755c14.313,14.313,14.313,37.52,0,51.833l-73.036,73.036L90.257,451.087
	c-19.993-17.003-37.336-37.021-51.331-59.357l205.486-205.486c14.313-14.313,37.52-14.313,51.833,0L299.755,189.755z"/>
<path style="fill:#414669;" d="M298,188c4.206,4.206,7.248,9.134,9.139,14.382c-13.822-4.98-29.885-1.938-40.962,9.139
	L58.641,419.057c-7.152-8.647-13.734-17.779-19.716-27.326L242.656,188C257.939,172.717,282.717,172.717,298,188L298,188z"/>
<path style="fill:#E3B954;" d="M356.669,184.675c-0.693,0.693-1.401,1.368-2.116,2.034l0.041,0.041l-55.344,55.344
	c0,0,0,0,0.001-0.001l-0.783,0.783l-55.344-55.344l18.786-18.786l0,0l37.34-37.34l0.041,0.041c0.667-0.715,1.342-1.424,2.034-2.116
	l0,0c3.821-3.821,19.307,5.471,34.59,20.754S360.49,180.854,356.669,184.675L356.669,184.675z"/>
<path style="fill:#D6A74F;" d="M327.995,176.768c4.074,3.771,4.332,10.111,0.407,14.037l-0.161,0.161
	c-3.617,3.617-9.397,3.754-13.249,0.389c-0.66-0.577-1.305-1.18-1.935-1.809l-12.213-12.213l-7.917,7.917l12.213,12.213
	c0.362,0.362,0.729,0.715,1.101,1.059c4.074,3.771,4.332,10.111,0.407,14.037l-0.16,0.16c-3.617,3.617-9.398,3.754-13.249,0.389
	c-0.66-0.577-1.305-1.18-1.935-1.809l-12.213-12.213l-12.207,12.207l-23.761-23.761l18.786-18.786l1.338-1.338l13.836-13.836
	l22.166-22.166l0.041,0.041c0.667-0.715,1.342-1.424,2.034-2.116l0,0c3.821-3.821,19.307,5.471,34.59,20.754
	c4.253,4.253,8.04,8.521,11.211,12.55c-10.448-8.225-19.283-12.3-22.041-9.543l0,0c-0.693,0.693-1.368,1.401-2.034,2.116
	l-0.041-0.041l-8.33,8.33l12.213,12.213C327.255,176.071,327.622,176.424,327.995,176.768z"/>
<path style="fill:#1E9682;" d="M505.342,223.066c-6.862,10.007-18.375,16.574-31.425,16.574c-21.033,0-38.083-17.05-38.083-38.083
	c0-4.849,0.916-9.482,2.569-13.748c0.22-0.723,0.466-1.429,0.772-2.092c2.049-4.438,4.149-8.521,6.238-12.389
	c-0.051,0.903-0.084,1.81-0.084,2.726c0,26.741,21.678,48.42,48.42,48.42C497.745,224.474,501.626,223.98,505.342,223.066z"/>
<g>
</g>
<g>
</g>
<g>
</g>
<g>
</g>
<g>
</g>
<g>
</g>
<g>
</g>
<g>
</g>
<g>
</g>
<g>
</g>
<g>
</g>
<g>
</g>
<g>
</g>
<g>
</g>
<g>
</g>
</svg>
