<?xml version="1.0" encoding="iso-8859-1"?>
<!-- Generator: Adobe Illustrator 19.0.0, SVG Export Plug-In . SVG Version: 6.00 Build 0)  -->
<svg version="1.1" id="Capa_1" xmlns="http://www.w3.org/2000/svg" xmlns:xlink="http://www.w3.org/1999/xlink" x="0px" y="0px"
	 viewBox="0 0 512 512" style="enable-background:new 0 0 512 512;" xml:space="preserve">
<path style="fill:#5085D4;" d="M250.924,10.179c-138.574,0-250.91,112.336-250.91,250.91c0,60.893,21.763,116.874,57.743,160.135
	c17.247,20.742,32.304,32.297,34.489,34.241c2.069,0,58.833,56.535,158.679,56.535c138.574,0,250.91-112.336,250.91-250.91
	C501.835,122.757,389.754,10.179,250.924,10.179z"/>
<path style="fill:#80391B;" d="M289.16,389.5v15.948c0,6.59-5.383,11.974-11.974,11.974H141.725c-6.59,0-11.974-5.383-11.974-11.974
	V389.5c0-6.581,5.383-11.974,11.974-11.974h135.461C283.777,377.526,289.16,382.919,289.16,389.5z"/>
<path style="fill:#FFC364;" d="M328.534,38.948v261.405c0,7.514-6.148,13.662-13.662,13.662H104.041
	c-7.514,0-13.662-6.148-13.662-13.662V38.948c0-7.514,6.148-13.662,13.662-13.662h210.831
	C322.386,25.286,328.534,31.434,328.534,38.948z"/>
<path style="fill:#FFD791;" d="M328.534,38.948v261.405c0,7.514-6.148,13.662-13.662,13.662H139.335
	c-7.514,0-13.662-6.148-13.662-13.662V38.948c0-7.514,6.148-13.662,13.662-13.662h175.537
	C322.386,25.286,328.534,31.434,328.534,38.948z"/>
<g>
	<path style="fill:#AA6432;" d="M358.033,14.231v18.956c0,7.833-6.399,14.231-14.231,14.231H75.112
		c-7.833,0-14.231-6.399-14.231-14.231V14.231C60.879,6.41,67.278,0,75.112,0h268.691C351.634,0,358.033,6.41,358.033,14.231z"/>
	<path style="fill:#AA6432;" d="M345.799,493.444c-12.66,5.173-25.846,9.345-39.445,12.412l-80.439-169.439
		c-2.385-4.936-0.299-10.925,4.626-13.31l18.969-9.169c4.925-2.385,10.915-0.31,13.3,4.626l82.566,173.93
		C345.531,492.814,345.675,493.124,345.799,493.444z"/>
	<path style="fill:#AA6432;" d="M192.996,336.417l-67.459,142.116c-20.962-12.195-32.382-23.068-33.291-23.068
		c-0.186-0.165-0.454-0.392-0.805-0.671l64.661-136.23c2.385-4.936,8.374-7.011,13.31-4.626l18.958,9.169
		C193.295,325.493,195.381,331.482,192.996,336.417z"/>
</g>
<path style="fill:#B9783D;" d="M358.033,14.231v18.956c0,7.833-6.399,14.231-14.231,14.231H117.236
	c-7.833,0-14.231-6.399-14.231-14.231V14.231C103.005,6.41,109.403,0,117.236,0h226.566C351.634,0,358.033,6.41,358.033,14.231z"/>
<path style="fill:#AA6432;" d="M358.033,306.114v18.956c0,7.833-6.399,14.231-14.231,14.231H75.112
	c-7.833,0-14.231-6.399-14.231-14.231v-18.956c0-7.822,6.398-14.231,14.231-14.231h268.691
	C351.634,291.883,358.033,298.292,358.033,306.114z"/>
<path style="fill:#B9783D;" d="M358.033,306.114v18.956c0,7.833-6.399,14.231-14.231,14.231H117.236
	c-7.833,0-14.231-6.399-14.231-14.231v-18.956c0-7.822,6.399-14.231,14.231-14.231h226.566
	C351.634,291.883,358.033,298.292,358.033,306.114z"/>
<path style="fill:#8764A5;" d="M264.608,126.504c-0.886-0.257-3.151-0.318-5.914-0.276c-15.062,0.232-29.786-4.7-41.679-13.947
	c-12.283-9.55-23.989-20.257-38.992-23.777c-9.08-2.129-21.178,0.679-23.002,9.825c-2.507,12.565,13.103,16.534-2.403,39.881
	c-5.102,7.681-11.091,15.409-9.801,25.348c0.575,4.432,3.262,8.423,7.388,10.137c8.533,3.546,15.053-4.784,23.1-6.16
	c6.727-1.151,13.947,3.46,15.732,10.048c2.186,8.073-3.119,16.398-2.531,24.74c0.881,12.491,16.03,20.581,27.992,16.875
	c11.962-3.705,19.708-16.058,21.222-28.488c1.535-12.606-1.478-26.296,20.393-31.145c3.939-0.382,7.454,0.393,10.871-0.588
	C280.18,155.19,279.248,130.753,264.608,126.504z"/>
<path style="fill:#AA6432;" d="M336.659,122.833l147.428-71.829c1.264-0.616,2.572-1.083,3.884-1.406
	c3.498-0.863,7.111-0.705,10.433,0.341c4.579,1.44,8.625,4.571,11.13,9.073c5.015,9.01,2.107,20.361-6.611,25.852l-138.754,87.411
	c-9.42,5.931-21.886,2.742-27.296-6.978l-8.674-15.582C322.789,139.994,326.654,127.716,336.659,122.833z"/>
<path style="fill:#B9783D;" d="M336.659,122.833l147.428-71.829c1.264-0.616,2.572-1.083,3.884-1.406
	c2.896,8.37-0.265,17.857-7.998,22.733l-138.758,87.404c-1.917,1.202-3.958,2.038-6.043,2.502l-6.97-12.522
	C322.789,139.994,326.654,127.716,336.659,122.833z"/>
<path style="fill:#413255;" d="M230.769,156.572c0.973,0.165,1.911,0.32,2.823,0.462c20.757,3.337,27.533,2.151,44.972-11.797
	c10.413-8.324,14.56-24.478,38.179-30.906c22.575-6.166,44.73,3.074,56.225,25.325c0.103,0.185,0.194,0.367,0.29,0.556
	c15.04,30.116-5.615,65.925-41.549,73.175c-0.119-0.04-70.457,20.822-106.24-49.653
	C223.628,160.093,226.748,155.905,230.769,156.572z"/>
<path style="fill:#644682;" d="M278.565,145.237c10.413-8.324,14.56-24.478,38.179-30.906c22.575-6.166,44.73,3.074,56.225,25.325
	c-2.618,21.858-20.496,41.627-46.175,46.81c-0.103-0.03-55.722,16.454-93.202-29.432
	C254.349,160.371,261.125,159.185,278.565,145.237z"/>
<g>
	<circle style="fill:#8764A5;" cx="244.726" cy="91.054" r="16.178"/>
	<circle style="fill:#8764A5;" cx="254.38" cy="229.412" r="9.304"/>
	
		<ellipse transform="matrix(0.6801 -0.7331 0.7331 0.6801 -91.621 182.0685)" style="fill:#8764A5;" cx="162.818" cy="196.021" rx="13.093" ry="9.293"/>
</g>
<g>
</g>
<g>
</g>
<g>
</g>
<g>
</g>
<g>
</g>
<g>
</g>
<g>
</g>
<g>
</g>
<g>
</g>
<g>
</g>
<g>
</g>
<g>
</g>
<g>
</g>
<g>
</g>
<g>
</g>
</svg>
