<?xml version="1.0" encoding="iso-8859-1"?>
<!-- Generator: Adobe Illustrator 19.0.0, SVG Export Plug-In . SVG Version: 6.00 Build 0)  -->
<svg version="1.1" id="Capa_1" xmlns="http://www.w3.org/2000/svg" xmlns:xlink="http://www.w3.org/1999/xlink" x="0px" y="0px"
	 viewBox="0 0 512 512" style="enable-background:new 0 0 512 512;" xml:space="preserve">
<path style="fill:#91CDFF;" d="M256,0C114.615,0,0,114.615,0,256c0,62.128,22.204,119.245,58.914,163.383
	c17.597,21.162,32.959,32.953,35.188,34.935C96.214,454.319,154.129,512,256,512c141.385,0,256-114.615,256-256
	C512,114.862,397.646,0,256,0z"/>
<path style="fill:#E6B464;" d="M511.252,275.701c0,0,0,0,0,0.011c-3.171,41.72-16.361,80.649-37.158,114.394
	c-0.274,0.021-0.537,0.021-0.811,0.021c-10.314,0-20.807-3.845-29.194-12.295c-8.06-8.123-18.732-12.179-29.394-12.179
	c-10.567,0-21.145,3.982-29.194,11.979c-16.161,16.045-16.256,42.416-0.211,58.577l16.962,17.088
	c2.539,2.56,4.667,5.331,6.384,8.249c-26.128,19.427-56.091,33.998-88.54,42.363C299.606,509.187,278.135,512,256,512
	c-30.216,0-56.575-5.078-78.752-12.221c-37.021-26.001-66.194-63.75-81.028-109.905c-30.005-93.354,7.038-192.166,84.378-244.401
	c16.593-11.22,35.041-20.291,55.079-26.697C348.965,82.534,471.26,146.01,506.848,259.508
	C508.534,264.892,509.998,270.286,511.252,275.701z"/>
<path style="fill:#FFD78C;" d="M511.252,275.701c0,0,0,0,0,0.011c-3.171,41.72-16.361,80.649-37.158,114.394
	c-0.274,0.021-0.537,0.021-0.811,0.021c-10.314,0-20.807-3.845-29.194-12.295c-8.06-8.123-18.732-12.179-29.394-12.179
	c-10.567,0-21.145,3.982-29.194,11.979c-16.161,16.045-16.256,42.416-0.211,58.577l16.962,17.088
	c2.539,2.56,4.667,5.331,6.384,8.249c-26.128,19.427-56.091,33.998-88.54,42.363c-82.882-8.218-157.42-64.371-184.433-148.412
	c-24.316-75.644-4.604-154.881,44.934-210.023c16.593-11.22,35.041-20.291,55.079-26.697
	C348.965,82.534,471.26,146.01,506.848,259.508C508.534,264.892,509.998,270.286,511.252,275.701z"/>
<path style="fill:#644682;" d="M248.843,230.265c-0.453,1.148-0.948,2.307-1.486,3.456c-9.629,20.597-29.299,31.754-43.912,24.916
	c-14.623-6.838-18.669-29.078-9.039-49.685c6.395-13.654,17.194-23.157,28.003-26.022c5.489-1.454,10.988-1.201,15.919,1.106
	C252.141,190.494,256.513,210.68,248.843,230.265z"/>
<path style="fill:#FF4682;" d="M214.698,354.678c-0.453,1.148-0.948,2.307-1.486,3.456c-9.629,20.597-29.288,31.754-43.912,24.916
	s-18.669-29.078-9.039-49.674c6.395-13.664,17.194-23.167,28.003-26.033c5.489-1.454,10.988-1.201,15.919,1.106
	C217.996,314.907,222.368,335.103,214.698,354.678z"/>
<path style="fill:#69280F;" d="M368.705,203.021c-0.453,1.159-0.948,2.307-1.486,3.456c-9.64,20.597-29.299,31.754-43.922,24.916
	c-14.623-6.837-18.669-29.078-9.029-49.674c6.384-13.664,17.183-23.167,27.993-26.033c5.499-1.454,10.999-1.201,15.919,1.106
	C371.992,163.249,376.364,183.446,368.705,203.021z"/>
<path style="fill:#5085D4;" d="M329.26,332.88c-0.453,1.148-0.948,2.307-1.486,3.456c-9.629,20.597-29.299,31.754-43.922,24.916
	c-14.623-6.837-18.658-29.078-9.029-49.685c6.384-13.654,17.183-23.157,27.993-26.022c5.5-1.454,10.999-1.201,15.93,1.106
	C332.547,293.109,336.919,313.295,329.26,332.88z"/>
<path style="fill:#8764A5;" d="M248.843,230.265c-5.489,1.454-10.988,1.201-15.919-1.106c-13.812-6.458-18.184-26.655-10.514-46.229
	c5.489-1.454,10.988-1.201,15.919,1.106C252.141,190.494,256.513,210.68,248.843,230.265z"/>
<path style="fill:#FF73A0;" d="M214.698,354.678c-5.489,1.454-10.988,1.201-15.919-1.106c-13.812-6.458-18.184-26.644-10.514-46.229
	c5.489-1.454,10.988-1.201,15.919,1.106C217.996,314.907,222.368,335.103,214.698,354.678z"/>
<path style="fill:#80391B;" d="M368.705,203.021c-5.499,1.454-10.999,1.201-15.93-1.106c-13.801-6.458-18.174-26.644-10.514-46.229
	c5.499-1.454,10.999-1.201,15.919,1.106C371.992,163.249,376.364,183.446,368.705,203.021z"/>
<path style="fill:#6E9ADB;" d="M329.26,332.88c-5.499,1.454-10.999,1.201-15.919-1.106c-13.812-6.458-18.184-26.655-10.525-46.229
	c5.5-1.454,10.999-1.201,15.93,1.106C332.547,293.109,336.919,313.295,329.26,332.88z"/>
<path style="fill:#69280F;" d="M399.567,200.113l47.828-160.341c0.41-1.375,0.962-2.68,1.625-3.889
	c1.768-3.224,4.381-5.829,7.459-7.602c4.243-2.444,9.389-3.323,14.501-2.098c10.232,2.454,16.749,12.475,14.856,22.814
	l-30.134,164.583c-2.048,11.172-13.05,18.334-24.088,15.687l-17.694-4.243C402.883,222.379,396.326,210.999,399.567,200.113z"/>
<path style="fill:#80391B;" d="M399.567,200.113l47.828-160.341c0.41-1.375,0.962-2.68,1.625-3.889
	c8.287,3.603,13.23,12.528,11.554,21.704l-30.143,164.581c-0.42,2.269-1.201,4.381-2.293,6.268l-14.219-3.409
	C402.883,222.379,396.326,210.999,399.567,200.113z"/>
<path style="fill:#AA6432;" d="M351.805,302.951c0.795-0.617,1.56-1.215,2.296-1.802c16.838-13.289,20.625-19.198,22.188-41.928
	c0.937-13.57-8.335-27.837,3.144-50.018c10.954-21.215,33.191-31.479,57.843-24.751c0.21,0.051,0.409,0.107,0.617,0.165
	c33.006,9.495,45.646,49.733,26.284,81.733c-0.113,0.062-33.002,67.303-110.649,45.527
	C349.519,310.746,348.527,305.511,351.805,302.951z"/>
<path style="fill:#B9783D;" d="M376.288,259.221c0.937-13.57-8.335-27.837,3.144-50.018c10.954-21.215,33.191-31.479,57.843-24.751
	c14.613,17.058,17.12,44.137,3.284,67.004c-0.094,0.057-26.11,53.219-86.458,49.693C370.938,287.86,374.726,281.951,376.288,259.221
	z"/>
<g>
</g>
<g>
</g>
<g>
</g>
<g>
</g>
<g>
</g>
<g>
</g>
<g>
</g>
<g>
</g>
<g>
</g>
<g>
</g>
<g>
</g>
<g>
</g>
<g>
</g>
<g>
</g>
<g>
</g>
</svg>
