<?xml version="1.0" encoding="iso-8859-1"?>
<!-- Generator: Adobe Illustrator 19.0.0, SVG Export Plug-In . SVG Version: 6.00 Build 0)  -->
<svg version="1.1" id="Capa_1" xmlns="http://www.w3.org/2000/svg" xmlns:xlink="http://www.w3.org/1999/xlink" x="0px" y="0px"
	 viewBox="0 0 512 512" style="enable-background:new 0 0 512 512;" xml:space="preserve">
<path style="fill:#FF73A0;" d="M504.976,259.777C504.976,399.076,392.052,512,252.753,512c-100.364,0-157.433-56.83-159.509-56.83
	c-2.201-1.951-17.335-13.567-34.669-34.42C22.411,377.268,0.53,320.988,0.53,259.777c0-5.429,0.166-10.806,0.509-16.151
	C9.364,111.852,118.883,7.555,252.753,7.555c134.109,0,243.389,104.505,251.714,236.072
	C504.8,248.973,504.976,254.349,504.976,259.777z"/>
<path style="fill:#463250;" d="M504.976,259.777C504.976,399.076,392.052,512,252.753,512c-100.364,0-157.433-56.83-159.509-56.83
	c-2.201-1.951-17.335-13.567-34.669-34.42C22.411,377.268,0.53,320.988,0.53,259.777c0-5.429,0.166-10.806,0.509-16.151h503.428
	C504.8,248.973,504.976,254.349,504.976,259.777z"/>
<path style="fill:#FFAF37;" d="M504.976,259.777C504.976,399.076,392.052,512,252.753,512c-100.364,0-157.433-56.83-159.509-56.83
	c-2.201-1.951-17.335-13.567-34.669-34.42C22.411,377.268,0.53,320.988,0.53,259.777c0-5.429,0.166-10.806,0.509-16.151h503.428
	C504.8,248.973,504.976,254.349,504.976,259.777z"/>
<path style="fill:#64AFFF;" d="M156.386,329.375c0,24.798-16.006,45.859-38.25,53.426c-5.699,1.931-11.812,2.979-18.165,2.979
	c-31.15,0-56.405-25.254-56.405-56.405c0-31.161,25.254-56.415,56.405-56.415c6.353,0,12.466,1.048,18.165,2.989
	C140.38,283.506,156.386,304.567,156.386,329.375z"/>
<path style="fill:#FF4682;" d="M461.941,329.375c0,24.798-16.006,45.859-38.24,53.426c-5.699,1.931-11.812,2.979-18.165,2.979
	c-31.161,0-56.415-25.254-56.415-56.405c0-31.161,25.254-56.415,56.415-56.415c6.353,0,12.466,1.048,18.165,2.989
	C445.935,283.506,461.941,304.567,461.941,329.375z"/>
<path style="fill:#FFCA77;" d="M309.168,329.375c0,24.798-16.006,45.859-38.25,53.415c-5.699,1.941-11.812,2.989-18.165,2.989
	c-31.15,0-56.415-25.254-56.415-56.405c0-31.161,25.265-56.415,56.415-56.415c6.353,0,12.466,1.048,18.165,2.989
	C293.162,283.506,309.168,304.567,309.168,329.375z"/>
<path style="fill:#413255;" d="M385.555,469.338c0,1.702-0.073,3.384-0.228,5.045c-20.033,12.404-41.935,22.089-65.186,28.514
	c-10.006,2.771-20.272,4.93-30.745,6.456c-10.287-10.214-16.66-24.372-16.66-40.015c0-31.161,25.254-56.415,56.405-56.415
	c6.353,0,12.466,1.048,18.165,2.989C369.549,423.469,385.555,444.53,385.555,469.338z"/>
<path style="fill:#80391B;" d="M232.772,469.338c0,15.674-6.394,29.842-16.712,40.067c-19.483-2.803-36.818-7.629-51.879-13.276
	c-17.968-6.726-32.697-14.636-44.001-21.704c-0.156-1.671-0.228-3.374-0.228-5.086c0-31.161,25.254-56.415,56.415-56.415
	c6.571,0,12.871,1.121,18.736,3.187C217.046,423.833,232.772,444.748,232.772,469.338z"/>
<path style="fill:#91CDFF;" d="M156.386,329.375c0,24.798-16.006,45.859-38.25,53.426c-22.234-7.567-38.24-28.628-38.24-53.426
	c0-24.808,16.006-45.869,38.24-53.426C140.38,283.506,156.386,304.567,156.386,329.375z"/>
<path style="fill:#AA6432;" d="M232.772,469.338c0,15.674-6.394,29.842-16.712,40.067c-19.483-2.803-36.818-7.629-51.879-13.276
	c-4.308-7.961-6.757-17.096-6.757-26.791c0-24.59,15.736-45.506,37.679-53.228C217.046,423.833,232.772,444.748,232.772,469.338z"/>
<path style="fill:#FF73A0;" d="M461.941,329.375c0,24.798-16.006,45.859-38.24,53.426c-22.244-7.567-38.25-28.628-38.25-53.426
	c0-24.808,16.006-45.869,38.25-53.426C445.935,283.506,461.941,304.567,461.941,329.375z"/>
<path style="fill:#FFE194;" d="M309.168,329.375c0,24.798-16.006,45.859-38.25,53.415c-22.244-7.557-38.25-28.618-38.25-53.415
	c0-24.808,16.006-45.869,38.25-53.426C293.162,283.506,309.168,304.567,309.168,329.375z"/>
<path style="fill:#644682;" d="M385.555,469.338c0,1.702-0.073,3.384-0.228,5.045c-20.033,12.404-41.935,22.089-65.186,28.514
	c-6.955-9.373-11.075-20.988-11.075-33.558c0-24.808,16.006-45.869,38.24-53.426C369.549,423.469,385.555,444.53,385.555,469.338z"
	/>
<path style="fill:#69280F;" d="M273.776,189.601L459.405,8.703c1.591-1.552,3.324-2.902,5.131-4.037
	c4.823-3.03,10.323-4.585,15.826-4.663c7.585-0.108,15.211,2.584,21.203,8.096c11.995,11.035,13.257,29.511,2.898,42.074
	L339.579,250.157c-11.197,13.573-31.485,14.967-44.424,3.062l-20.743-19.084C261.471,222.231,261.182,201.888,273.776,189.601z"/>
<path style="fill:#80391B;" d="M273.776,189.601L459.405,8.703c1.591-1.552,3.324-2.902,5.131-4.037
	c8.498,11.124,8.456,26.93-0.732,38.081L298.908,242.72c-2.279,2.754-4.929,5.022-7.829,6.751l-16.669-15.335
	C261.471,222.231,261.182,201.888,273.776,189.601z"/>
<path style="fill:#AA6432;" d="M131.596,292.739c1.542-0.235,3.028-0.467,4.465-0.707c32.806-5.284,42.386-10.425,61.64-40.004
	c11.5-17.654,9.713-43.953,41.971-65.312c30.82-20.447,68.65-17.566,96.934,10.127c0.246,0.226,0.473,0.454,0.71,0.689
	c37.504,37.736,24.262,101.718-26.067,130.417c-0.199-0.001-95.411,66.186-184.056-21.835
	C122.625,301.564,125.232,293.733,131.596,292.739z"/>
<path style="fill:#B9783D;" d="M197.702,252.029c11.5-17.654,9.713-43.953,41.971-65.312c30.82-20.448,68.65-17.566,96.934,10.127
	c6.91,34.1-10.117,72.634-46.083,93.144c-0.17,0.007-75.463,52.323-154.464,2.046C168.868,286.748,178.447,281.607,197.702,252.029z
	"/>
<g>
</g>
<g>
</g>
<g>
</g>
<g>
</g>
<g>
</g>
<g>
</g>
<g>
</g>
<g>
</g>
<g>
</g>
<g>
</g>
<g>
</g>
<g>
</g>
<g>
</g>
<g>
</g>
<g>
</g>
</svg>
